<svg xmlns="http://www.w3.org/2000/svg" viewBox="0 0 158.66 126.91"><defs><style>.cls-1{fill:#fff;}.cls-2{fill:#8bc53f;}.cls-3{fill:#006838;}.cls-4{fill:#70be44;}.cls-5{fill:#009345;}.cls-6{fill:#37b34a;}</style></defs><g id="Layer_2" data-name="Layer 2"><g id="Layer_1-2" data-name="Layer 1"><path class="cls-1" d="M156.45,97.33l-1.57-2.52v3.81h-.64V93.88H155s0,0,.06,0c.43.67.84,1.35,1.26,2a1.26,1.26,0,0,1,.11.17l.29-.46,1.08-1.73a.16.16,0,0,1,.09,0h.75v4.74H158V94.83h0Z"/><path class="cls-1" d="M152.34,98.62h-.63v-4.1h-1.26v-.63h3.15v.62h-1.26Z"/><path class="cls-2" d="M63.31,6.59A87.27,87.27,0,0,0,75.43,0L74.36,0H33.85V19.29c4.09-2,8.31-3.78,12.51-5.53Q51.33,6.66,63.31,6.59Z"/><path class="cls-3" d="M73.83,78.86H63.5c-.82,0-1.62,0-2.39-.07A40.61,40.61,0,0,0,74.36,81h40.5V50.67c-6.18,3.18-13.24,6-20.43,9Q93.73,78.84,73.83,78.86Z"/><path class="cls-4" d="M42.85,27.23c0-5.66,1.19-10.14,3.51-13.47-4.2,1.75-8.42,3.56-12.51,5.53V40.51c0,1.13.06,2.25.15,3.36a78.28,78.28,0,0,1,8.85-5.7Z"/><path class="cls-4" d="M63.5,6.58h33A40.38,40.38,0,0,0,75.43,0,87.27,87.27,0,0,1,63.31,6.59Z"/><path class="cls-4" d="M63.5,22.07q-5.16,0-5.16,5.16v3.52c7-3,14.1-5.73,20.53-8.68Z"/><path class="cls-5" d="M58.34,58.21q0,5.16,5.16,5.16H73.83q5.16,0,5.16-5.16V50.47H68.67V48.53c-3.54,1.6-7,3.3-10.33,5.16Z"/><path class="cls-5" d="M112.31,26.35c-4.5,4.41-10.77,7.93-17.83,11.18V58.21c0,.49,0,1,0,1.43,7.19-3,14.25-5.79,20.43-9V40.51A40.32,40.32,0,0,0,112.31,26.35Z"/><path class="cls-6" d="M43.48,64.61a31.48,31.48,0,0,1-.63-6.4v-20A78.28,78.28,0,0,0,34,43.87a40.18,40.18,0,0,0,8.57,21.72c.55.71,1.13,1.4,1.73,2.07A22.63,22.63,0,0,1,43.48,64.61Z"/><path class="cls-6" d="M112.31,26.35a40,40,0,0,0-1.89-4.28H78.87C72.44,25,65.36,27.76,58.34,30.75V53.69c3.32-1.86,6.79-3.56,10.33-5.16V35H94.48v2.55C101.54,34.28,107.81,30.76,112.31,26.35Z"/><path class="cls-1" d="M18.34,121.49c0-2.26,1.11-3.52,3.05-3.52a3.41,3.41,0,0,1,2.06.63l-.28.47a3.4,3.4,0,0,0-1.77-.5c-1.52,0-2.38,1.06-2.38,2.94s.83,2.92,2.43,2.92a3.32,3.32,0,0,0,1.92-.61l.26.48a3.65,3.65,0,0,1-2.25.73C19.45,125,18.34,123.75,18.34,121.49Z"/><path class="cls-1" d="M24.52,122.59c0-1.58.79-2.45,2.06-2.45s1.81.78,1.81,2.18v.26H25.13c0,1.28.57,1.92,1.53,1.92a2,2,0,0,0,1.53-.71l.09.57a2.21,2.21,0,0,1-1.67.67C25.29,125,24.52,124.15,24.52,122.59Zm3.26-.48c0-.91-.39-1.43-1.18-1.43s-1.34.6-1.44,1.43Z"/><path class="cls-1" d="M31.9,120.68a2.31,2.31,0,0,0-1.51.74v3.5H29.8v-4.68h.47l.07.67a2.36,2.36,0,0,1,1.52-.77Z"/><path class="cls-1" d="M35,124.76a1.73,1.73,0,0,1-.73.17,1,1,0,0,1-1-1.07v-3.09h-.74l.17-.53h.57v-1.72h.59v1.72h1v.53h-1v3.08c0,.36.18.57.49.57a1.55,1.55,0,0,0,.51-.08Z"/><path class="cls-1" d="M36,119.18a.41.41,0,0,1,.46-.44.44.44,0,0,1,0,.88A.41.41,0,0,1,36,119.18Zm.15,1.06h.58v4.68h-.58Z"/><path class="cls-1" d="M38.62,120.75h-.75l.17-.51h.58v-1.59a1,1,0,0,1,1-1.08,1.28,1.28,0,0,1,.56.14l.05.5a1.76,1.76,0,0,0-.57-.11c-.32,0-.5.21-.5.56v1.58H42v4.68h-.6v-4.17H39.2v4.17h-.58Zm2.63-1.57a.45.45,0,1,1,.45.44A.4.4,0,0,1,41.25,119.18Z"/><path class="cls-1" d="M43.4,122.58c0-1.57.77-2.44,2.1-2.44a2,2,0,0,1,1.5.56l-.11.58a1.75,1.75,0,0,0-1.36-.6c-1,0-1.53.68-1.53,1.9s.56,1.92,1.51,1.92a1.93,1.93,0,0,0,1.48-.71l.11.57a2.09,2.09,0,0,1-1.61.67C44.17,125,43.4,124.15,43.4,122.58Z"/><path class="cls-1" d="M51.59,121.45v3.47h-.48l-.07-.58a2.69,2.69,0,0,1-1.68.69,1.24,1.24,0,0,1-1.32-1.3c0-1.11,1.07-1.73,3-1.73v.46c-1.5,0-2.33.45-2.33,1.22a.79.79,0,0,0,.84.84,2.3,2.3,0,0,0,1.5-.7v-2.35c0-.5-.32-.8-1-.8a3.5,3.5,0,0,0-1.56.42l-.17-.44a3.81,3.81,0,0,1,1.82-.51A1.33,1.33,0,0,1,51.59,121.45Z"/><path class="cls-1" d="M55.06,124.76a1.65,1.65,0,0,1-.72.17,1,1,0,0,1-1.05-1.07v-3.09h-.74l.16-.53h.58v-1.72h.58v1.72h1v.53h-1v3.08c0,.36.18.57.5.57a1.55,1.55,0,0,0,.51-.08Z"/><path class="cls-1" d="M56,119.18a.41.41,0,0,1,.46-.44.44.44,0,1,1,0,.88A.41.41,0,0,1,56,119.18Zm.15,1.06h.59v4.68h-.59Z"/><path class="cls-1" d="M58.19,122.58c0-1.57.76-2.44,2.12-2.44s2.11.87,2.11,2.44S61.66,125,60.31,125,58.19,124.15,58.19,122.58Zm3.64,0c0-1.23-.55-1.9-1.52-1.9s-1.51.67-1.51,1.9.55,1.92,1.51,1.92S61.83,123.81,61.83,122.58Z"/><path class="cls-1" d="M67.45,121.47v3.45h-.59v-3.33a.86.86,0,0,0-.94-.9,2.1,2.1,0,0,0-1.5.77v3.46h-.58v-4.68h.46l.07.68a2.34,2.34,0,0,1,1.71-.78A1.26,1.26,0,0,1,67.45,121.47Z"/><path class="cls-1" d="M68.9,124.52a.51.51,0,1,1,.51.51A.46.46,0,0,1,68.9,124.52Z"/><path class="cls-1" d="M77.69,122.88H74.52l-.76,2h-.67l2.58-6.84h.89l2.57,6.84h-.69Zm-.2-.55-1.35-3.66h-.06l-1.36,3.66Z"/><path class="cls-1" d="M83.82,120.24v4.68h-.47l-.07-.68a2.35,2.35,0,0,1-1.71.79,1.25,1.25,0,0,1-1.36-1.34v-3.45h.58v3.33a.88.88,0,0,0,.95.92,2.09,2.09,0,0,0,1.49-.79v-3.46Z"/><path class="cls-1" d="M89.26,117.68v7.24h-.47l-.08-.6a1.81,1.81,0,0,1-1.53.71c-1.25,0-2-.92-2-2.41s.73-2.48,2-2.48a2,2,0,0,1,1.49.65v-3.11Zm-.59,6.07v-2.33a1.68,1.68,0,0,0-1.41-.74c-.88,0-1.41.72-1.41,1.89s.59,1.93,1.45,1.93A1.63,1.63,0,0,0,88.67,123.75Z"/><path class="cls-1" d="M90.9,119.18a.41.41,0,0,1,.46-.44.44.44,0,0,1,0,.88A.41.41,0,0,1,90.9,119.18Zm.15,1.06h.59v4.68h-.59Z"/><path class="cls-1" d="M95.32,124.76a1.65,1.65,0,0,1-.72.17,1,1,0,0,1-1-1.07v-3.09H92.8l.17-.53h.58v-1.72h.58v1.72h1v.53h-1v3.08c0,.36.18.57.5.57a1.55,1.55,0,0,0,.51-.08Z"/><path class="cls-1" d="M96.22,124.52a.45.45,0,0,1,.5-.51.51.51,0,1,1-.5.51Z"/><path class="cls-1" d="M102.68,118.64h-2.22v-.56h5.1v.56h-2.23v6.28h-.65Z"/><path class="cls-1" d="M108,120.68a2.31,2.31,0,0,0-1.5.74v3.5h-.59v-4.68h.47l.07.67a2.37,2.37,0,0,1,1.51-.77Z"/><path class="cls-1" d="M112.3,121.45v3.47h-.48l-.07-.58a2.69,2.69,0,0,1-1.67.69,1.24,1.24,0,0,1-1.32-1.3c0-1.11,1.06-1.73,2.94-1.73v.46c-1.5,0-2.33.45-2.33,1.22a.79.79,0,0,0,.84.84,2.3,2.3,0,0,0,1.5-.7v-2.35c0-.5-.32-.8-1-.8a3.5,3.5,0,0,0-1.56.42l-.17-.44a3.81,3.81,0,0,1,1.82-.51A1.33,1.33,0,0,1,112.3,121.45Z"/><path class="cls-1" d="M113.83,119.18a.41.41,0,0,1,.46-.44.44.44,0,1,1,0,.88A.41.41,0,0,1,113.83,119.18Zm.15,1.06h.59v4.68H114Z"/><path class="cls-1" d="M120,121.47v3.45h-.58v-3.33a.87.87,0,0,0-.95-.9,2.09,2.09,0,0,0-1.49.77v3.46h-.59v-4.68h.47l.07.68a2.32,2.32,0,0,1,1.7-.78A1.26,1.26,0,0,1,120,121.47Z"/><path class="cls-1" d="M121.51,119.18a.45.45,0,1,1,.45.44A.4.4,0,0,1,121.51,119.18Zm.14,1.06h.59v4.68h-.59Z"/><path class="cls-1" d="M127.63,121.47v3.45h-.58v-3.33a.87.87,0,0,0-.94-.9,2.09,2.09,0,0,0-1.5.77v3.46H124v-4.68h.47l.07.68a2.34,2.34,0,0,1,1.7-.78A1.26,1.26,0,0,1,127.63,121.47Z"/><path class="cls-1" d="M133,125.47c0,1-.75,1.44-2.18,1.44s-2.17-.46-2.17-1.34a1.4,1.4,0,0,1,1.31-1.35.56.56,0,0,1-.45-.53.52.52,0,0,1,.41-.53,1.47,1.47,0,0,1-.85-1.42,1.56,1.56,0,0,1,1.76-1.6,1.87,1.87,0,0,1,1.25.4l.77-.41.16.52-.66.2a1.66,1.66,0,0,1,.23.89,1.54,1.54,0,0,1-1.75,1.59h-.44a.29.29,0,0,0-.33.28c0,.21.28.29.92.38C131.87,124.13,133,124.36,133,125.47Zm-.57,0c0-.62-.59-.85-1.8-1-.93.05-1.43.46-1.43,1s.6,1,1.64,1S132.39,126.09,132.39,125.49Zm-2.8-3.75a1.2,1.2,0,0,0,2.39,0,1.2,1.2,0,0,0-2.39,0Z"/><path class="cls-1" d="M134,124.52a.51.51,0,1,1,1,0,.51.51,0,1,1-1,0Z"/><path class="cls-3" d="M16.88,112.13a21.33,21.33,0,0,1-6.4,1.08c-3.49,0-6-.88-7.78-2.55a9.62,9.62,0,0,1-2.7-7c0-6.37,4.66-10,10.94-10a13.75,13.75,0,0,1,5.31.91l-.91,3.49a10.08,10.08,0,0,0-4.43-.82c-3.61,0-6.36,2-6.36,6.19,0,4,2.5,6.28,6.05,6.28a6.38,6.38,0,0,0,2.1-.26v-4H9.75v-3.38h7.13Z"/><path class="cls-3" d="M20.26,94.12a37.39,37.39,0,0,1,5.77-.4c2.84,0,4.83.43,6.19,1.51a4.87,4.87,0,0,1,1.79,4A5.06,5.06,0,0,1,30.63,104V104c1.33.54,2.07,1.79,2.56,3.55A56.3,56.3,0,0,0,34.72,113H30.29A25.23,25.23,0,0,1,29,108.55c-.54-2.41-1.36-3-3.15-3.06H24.55V113H20.26Zm4.29,8.24h1.7c2.16,0,3.44-1.08,3.44-2.75S28.5,97,26.51,97a9,9,0,0,0-2,.14Z"/><path class="cls-3" d="M48.5,104.92h-7v4.54h7.87V113H37.14V93.87H48.93v3.55H41.45v4h7Z"/><path class="cls-3" d="M63.67,104.92h-7v4.54H64.5V113H52.31V93.87H64.1v3.55H56.63v4h7Z"/><path class="cls-3" d="M67.45,113V93.87h5.06l4,7a61.73,61.73,0,0,1,3.12,6.57h.06a77.94,77.94,0,0,1-.34-8V93.87h4V113H78.76l-4.09-7.39a65.26,65.26,0,0,1-3.33-6.76h-.11c.14,2.55.2,5.25.2,8.38V113Z"/><path class="cls-6" d="M101.09,112.5a12.6,12.6,0,0,1-4.88.83c-6.62,0-10-4.15-10-9.61,0-6.53,4.66-10.14,10.45-10.14a11,11,0,0,1,4.72.85l-.91,3.41a9.14,9.14,0,0,0-3.64-.71c-3.41,0-6.08,2.08-6.08,6.34,0,3.83,2.28,6.25,6.11,6.25a10.29,10.29,0,0,0,3.64-.63Z"/><path class="cls-6" d="M115.36,104.92h-7v4.54h7.87V113H104V93.87h11.79v3.55h-7.47v4h7Z"/><path class="cls-6" d="M119.13,94.12a37.48,37.48,0,0,1,5.77-.4c2.84,0,4.83.43,6.2,1.51a4.87,4.87,0,0,1,1.79,4A5.07,5.07,0,0,1,129.5,104V104c1.34.54,2.08,1.79,2.56,3.55.6,2.19,1.17,4.69,1.54,5.43h-4.44a26.52,26.52,0,0,1-1.3-4.47c-.54-2.41-1.37-3-3.16-3.06h-1.28V113h-4.29Zm4.29,8.24h1.71c2.16,0,3.44-1.08,3.44-2.75S127.37,97,125.39,97a9.1,9.1,0,0,0-2,.14Z"/><path class="cls-6" d="M139.71,97.5h-5.18V93.87h14.72V97.5H144V113h-4.31Z"/></g></g></svg>