<svg xmlns="http://www.w3.org/2000/svg" viewBox="0 0 511 511"><defs><style>.cls-1{fill:none;}</style></defs><g id="Layer_2" data-name="Layer 2"><g id="Layer_1-2" data-name="Layer 1"><path class="cls-1" d="M185.79,41.58c28-12.85,54-26.33,76.49-41.44C260,.07,257.77,0,255.5,0H0V121.66C25.79,109.22,52.41,97.8,78.91,86.8Q110.19,42,185.79,41.58Z"/><path class="cls-1" d="M252.16,497.42H187q-7.78,0-15.1-.48A255.21,255.21,0,0,0,255.5,511H511V319.61c-39,20.07-83.54,37.86-128.87,56.57Q377.63,497.29,252.16,497.42Z"/><path class="cls-1" d="M56.77,171.77c0-35.7,7.48-64,22.14-85C52.41,97.8,25.79,109.22,0,121.66V255.5c0,7.16.34,14.23.92,21.23a496,496,0,0,1,55.85-36Z"/><path class="cls-1" d="M187,41.53h208A254.18,254.18,0,0,0,262.28.14c-22.54,15.11-48.52,28.59-76.49,41.44C186.22,41.58,186.61,41.53,187,41.53Z"/><path class="cls-1" d="M187,139.21q-32.57,0-32.56,32.56V194c44.29-18.86,89-36.14,129.51-54.77Z"/><path class="cls-1" d="M154.47,367.16q0,32.58,32.56,32.57h65.13q32.55,0,32.57-32.57V318.31H219.6V306.1c-22.31,10.1-44.21,20.82-65.13,32.54Z"/><path class="cls-1" d="M494.89,166.19C466.5,194,427,216.24,382.43,236.75V367.16c0,3.12-.19,6-.3,9C427.46,357.47,472,339.68,511,319.61V255.5A254.37,254.37,0,0,0,494.89,166.19Z"/><path class="cls-1" d="M60.74,407.56a198,198,0,0,1-4-40.4V240.74a496,496,0,0,0-55.85,36A254.23,254.23,0,0,0,55,413.71c3.52,4.46,7.14,8.85,11,13.08A145.88,145.88,0,0,1,60.74,407.56Z"/><path class="cls-1" d="M494.89,166.19a255,255,0,0,0-11.91-27H284c-40.54,18.63-85.22,35.91-129.51,54.77V338.64c20.92-11.72,42.82-22.44,65.13-32.54V220.63H382.43v16.12C427,216.24,466.5,194,494.89,166.19Z"/></g></g></svg>