<svg xmlns="http://www.w3.org/2000/svg" xmlns:xlink="http://www.w3.org/1999/xlink" viewBox="0 0 3021.26 1573.57"><defs><style>.cls-1{isolation:isolate;}.cls-2{fill:url(#linear-gradient);}.cls-3{opacity:0.04;fill:url(#White_Black);}.cls-3,.cls-8{mix-blend-mode:multiply;}.cls-4{opacity:0.05;}.cls-5{fill:url(#White_Black-2);}.cls-6{fill:url(#White_Black-3);}.cls-7{fill:url(#White_Black-4);}.cls-8{opacity:0.06;}.cls-9{opacity:0.6;fill:url(#linear-gradient-2);}.cls-10{fill:url(#White_Black-5);}.cls-11{fill:url(#White_Black-6);}.cls-12{fill:url(#White_Black-7);}.cls-13{fill:url(#White_Black-8);}.cls-14{fill:url(#White_Black-9);}.cls-15{fill:url(#White_Black-10);}.cls-16{fill:url(#White_Black-11);}.cls-17{fill:url(#White_Black-12);}.cls-18{fill:url(#White_Black-13);}.cls-19{fill:url(#White_Black-14);}.cls-20{fill:url(#White_Black-15);}.cls-21{fill:url(#White_Black-16);}.cls-22{fill:url(#White_Black-17);}.cls-23{fill:url(#White_Black-18);}.cls-24{fill:url(#White_Black-19);}.cls-25{fill:url(#White_Black-20);}.cls-26{fill:url(#White_Black-21);}.cls-27{fill:url(#White_Black-22);}.cls-28{fill:url(#White_Black-23);}.cls-29{fill:url(#White_Black-24);}.cls-30{fill:url(#White_Black-25);}.cls-31{fill:url(#White_Black-26);}.cls-32{fill:url(#White_Black-27);}.cls-33{fill:url(#White_Black-28);}.cls-34{fill:url(#White_Black-29);}.cls-35{fill:url(#White_Black-30);}.cls-36{fill:url(#White_Black-31);}.cls-37{fill:url(#White_Black-32);}.cls-38{fill:url(#White_Black-33);}.cls-39{fill:url(#White_Black-34);}.cls-40{fill:url(#White_Black-35);}.cls-41{fill:url(#White_Black-36);}.cls-42{fill:url(#White_Black-37);}.cls-43{fill:url(#White_Black-38);}.cls-44{fill:url(#White_Black-39);}.cls-45{fill:url(#White_Black-40);}.cls-46{fill:url(#White_Black-41);}.cls-47{fill:url(#White_Black-42);}.cls-48{fill:url(#White_Black-43);}.cls-49{fill:url(#White_Black-44);}.cls-50{fill:url(#White_Black-45);}.cls-51{fill:url(#White_Black-46);}.cls-52{fill:url(#White_Black-47);}.cls-53{fill:url(#White_Black-48);}.cls-54{fill:url(#White_Black-50);}.cls-55{fill:url(#White_Black-51);}.cls-56{fill:url(#White_Black-52);}.cls-57{fill:url(#White_Black-53);}.cls-58{fill:url(#White_Black-54);}.cls-59{fill:url(#White_Black-55);}.cls-60{fill:url(#White_Black-56);}.cls-61{fill:url(#White_Black-57);}.cls-62{fill:url(#White_Black-58);}.cls-63{fill:url(#White_Black-59);}.cls-64{fill:url(#White_Black-60);}.cls-65{fill:url(#White_Black-61);}.cls-66{fill:none;}</style><linearGradient id="linear-gradient" x1="1510.63" y1="1573.57" x2="1510.63" gradientUnits="userSpaceOnUse"><stop offset="0" stop-color="#f9f9f2"/><stop offset="1" stop-color="#fff"/></linearGradient><linearGradient id="White_Black" x1="1510.63" y1="1104.78" x2="1510.63" y2="1564.7" gradientUnits="userSpaceOnUse"><stop offset="0" stop-color="#fff"/><stop offset="1"/></linearGradient><linearGradient id="White_Black-2" x1="2945.29" y1="849.98" x2="3385.65" y2="1189.63" gradientTransform="translate(714.77 3713.48) rotate(-82.64)" xlink:href="#White_Black"/><linearGradient id="White_Black-3" x1="3104.08" y1="930.26" x2="3807.83" y2="1473.06" gradientTransform="translate(714.77 3713.48) rotate(-82.64)" xlink:href="#White_Black"/><linearGradient id="White_Black-4" x1="2565.39" y1="964.78" x2="3562.06" y2="1733.51" gradientTransform="translate(714.77 3713.48) rotate(-82.64)" xlink:href="#White_Black"/><linearGradient id="linear-gradient-2" x1="2429.7" y1="-1326.76" x2="3056.62" y2="-1326.76" gradientTransform="matrix(0, 1, 1, 0, 1576.83, -1589.18)" gradientUnits="userSpaceOnUse"><stop offset="0" stop-color="#fff"/><stop offset="0.03" stop-color="#f7f7f7"/><stop offset="0.52" stop-color="#747474"/><stop offset="0.85" stop-color="#212121"/><stop offset="1"/></linearGradient><linearGradient id="White_Black-5" x1="2930.37" y1="-1283.57" x2="2979.44" y2="-1234.49" gradientTransform="matrix(0, 1, 1, 0, 1576.83, -1589.18)" xlink:href="#White_Black"/><linearGradient id="White_Black-6" x1="2756.81" y1="-1410.16" x2="2925.87" y2="-1241.1" gradientTransform="matrix(0, 1, 1, 0, 1576.83, -1589.18)" xlink:href="#White_Black"/><linearGradient id="White_Black-7" x1="2863.98" y1="-1605.17" x2="3042.15" y2="-1427" gradientTransform="matrix(0, 1, 1, 0, 1576.83, -1589.18)" xlink:href="#White_Black"/><linearGradient id="White_Black-8" x1="2824.48" y1="-1507.1" x2="2992.55" y2="-1339.03" gradientTransform="matrix(0, 1, 1, 0, 1576.83, -1589.18)" xlink:href="#White_Black"/><linearGradient id="White_Black-9" x1="2898.27" y1="-1580.41" x2="3036.58" y2="-1442.1" gradientTransform="matrix(0, 1, 1, 0, 1576.83, -1589.18)" xlink:href="#White_Black"/><linearGradient id="White_Black-10" x1="2891.03" y1="-1692.37" x2="3091.12" y2="-1492.28" gradientTransform="matrix(0, 1, 1, 0, 1576.83, -1589.18)" xlink:href="#White_Black"/><linearGradient id="White_Black-11" x1="2760.91" y1="-1399.86" x2="2765.15" y2="-1395.61" gradientTransform="matrix(0, 1, 1, 0, 1576.83, -1589.18)" xlink:href="#White_Black"/><linearGradient id="White_Black-12" x1="2821.12" y1="-1615.82" x2="3043.15" y2="-1393.79" gradientTransform="matrix(0, 1, 1, 0, 1576.83, -1589.18)" xlink:href="#White_Black"/><linearGradient id="White_Black-13" x1="2777.06" y1="-1485.74" x2="2978.9" y2="-1283.89" gradientTransform="matrix(0, 1, 1, 0, 1576.83, -1589.18)" xlink:href="#White_Black"/><linearGradient id="White_Black-14" x1="2755.22" y1="-1495.95" x2="2967.4" y2="-1283.77" gradientTransform="matrix(0, 1, 1, 0, 1576.83, -1589.18)" xlink:href="#White_Black"/><linearGradient id="White_Black-15" x1="2814.7" y1="-1566.89" x2="3002.04" y2="-1379.55" gradientTransform="matrix(0, 1, 1, 0, 1576.83, -1589.18)" xlink:href="#White_Black"/><linearGradient id="White_Black-16" x1="2829.88" y1="-1548.8" x2="2996.83" y2="-1381.85" gradientTransform="matrix(0, 1, 1, 0, 1576.83, -1589.18)" xlink:href="#White_Black"/><linearGradient id="White_Black-17" x1="2811.07" y1="-1541.48" x2="2999.64" y2="-1352.91" gradientTransform="matrix(0, 1, 1, 0, 1576.83, -1589.18)" xlink:href="#White_Black"/><linearGradient id="White_Black-18" x1="2825.28" y1="-1576.65" x2="3021.42" y2="-1380.51" gradientTransform="matrix(0, 1, 1, 0, 1576.83, -1589.18)" xlink:href="#White_Black"/><linearGradient id="White_Black-19" x1="2832.7" y1="-1513.17" x2="2923.18" y2="-1422.69" gradientTransform="matrix(0, 1, 1, 0, 1576.83, -1589.18)" xlink:href="#White_Black"/><linearGradient id="White_Black-20" x1="2806.89" y1="-1540.68" x2="3002.78" y2="-1344.78" gradientTransform="matrix(0, 1, 1, 0, 1576.83, -1589.18)" xlink:href="#White_Black"/><linearGradient id="White_Black-21" x1="2867.14" y1="-1328.15" x2="2901.52" y2="-1293.76" gradientTransform="matrix(0, 1, 1, 0, 1576.83, -1589.18)" xlink:href="#White_Black"/><linearGradient id="White_Black-22" x1="2673.34" y1="-1324.48" x2="2861.9" y2="-1135.91" gradientTransform="matrix(0, 1, 1, 0, 1576.83, -1589.18)" xlink:href="#White_Black"/><linearGradient id="White_Black-23" x1="2709.84" y1="-1394.56" x2="2883.1" y2="-1221.29" gradientTransform="matrix(0, 1, 1, 0, 1576.83, -1589.18)" xlink:href="#White_Black"/><linearGradient id="White_Black-24" x1="2609.98" y1="-1478.42" x2="2610" y2="-1478.4" gradientTransform="matrix(0, 1, 1, 0, 1576.83, -1589.18)" xlink:href="#White_Black"/><linearGradient id="White_Black-25" x1="2612.64" y1="-1410.71" x2="2612.66" y2="-1410.69" gradientTransform="matrix(0, 1, 1, 0, 1576.83, -1589.18)" xlink:href="#White_Black"/><linearGradient id="White_Black-26" x1="2657.6" y1="-1330.7" x2="2657.6" y2="-1330.7" gradientTransform="matrix(0, 1, 1, 0, 1576.83, -1589.18)" xlink:href="#White_Black"/><linearGradient id="White_Black-27" x1="2668.91" y1="-1312.2" x2="2865.61" y2="-1115.5" gradientTransform="matrix(0, 1, 1, 0, 1576.83, -1589.18)" xlink:href="#White_Black"/><linearGradient id="White_Black-28" x1="2655.19" y1="-1309.76" x2="2832.81" y2="-1132.14" gradientTransform="matrix(0, 1, 1, 0, 1576.83, -1589.18)" xlink:href="#White_Black"/><linearGradient id="White_Black-29" x1="2869.28" y1="-1660.92" x2="3019.4" y2="-1510.79" gradientTransform="matrix(0, 1, 1, 0, 1576.83, -1589.18)" xlink:href="#White_Black"/><linearGradient id="White_Black-30" x1="2824.46" y1="-1529.86" x2="2986.6" y2="-1367.72" gradientTransform="matrix(0, 1, 1, 0, 1576.83, -1589.18)" xlink:href="#White_Black"/><linearGradient id="White_Black-31" x1="2766.71" y1="-1467.08" x2="2948.82" y2="-1284.97" gradientTransform="matrix(0, 1, 1, 0, 1576.83, -1589.18)" xlink:href="#White_Black"/><linearGradient id="White_Black-32" x1="2951.83" y1="-1594.5" x2="3157.86" y2="-1388.47" gradientTransform="matrix(0, 1, 1, 0, 1576.83, -1589.18)" xlink:href="#White_Black"/><linearGradient id="White_Black-33" x1="3031.05" y1="-1515.42" x2="3078.77" y2="-1467.7" gradientTransform="matrix(0, 1, 1, 0, 1576.83, -1589.18)" xlink:href="#White_Black"/><linearGradient id="White_Black-34" x1="2890.28" y1="-1615.32" x2="3054.14" y2="-1451.45" gradientTransform="matrix(0, 1, 1, 0, 1576.83, -1589.18)" xlink:href="#White_Black"/><linearGradient id="White_Black-35" x1="3046.65" y1="-1437.13" x2="3063.75" y2="-1420.03" gradientTransform="matrix(0, 1, 1, 0, 1576.83, -1589.18)" xlink:href="#White_Black"/><linearGradient id="White_Black-36" x1="2889.88" y1="-1604.4" x2="3048.16" y2="-1446.12" gradientTransform="matrix(0, 1, 1, 0, 1576.83, -1589.18)" xlink:href="#White_Black"/><linearGradient id="White_Black-37" x1="2765.53" y1="-1468.26" x2="2949.19" y2="-1284.6" gradientTransform="matrix(0, 1, 1, 0, 1576.83, -1589.18)" xlink:href="#White_Black"/><linearGradient id="White_Black-38" x1="2765.48" y1="-1468.31" x2="2949.21" y2="-1284.59" gradientTransform="matrix(0, 1, 1, 0, 1576.83, -1589.18)" xlink:href="#White_Black"/><linearGradient id="White_Black-39" x1="2816.55" y1="-1539.73" x2="2998.5" y2="-1357.78" gradientTransform="matrix(0, 1, 1, 0, 1576.83, -1589.18)" xlink:href="#White_Black"/><linearGradient id="White_Black-40" x1="2765.68" y1="-1468.1" x2="2949.14" y2="-1284.64" gradientTransform="matrix(0, 1, 1, 0, 1576.83, -1589.18)" xlink:href="#White_Black"/><linearGradient id="White_Black-41" x1="2873.32" y1="-1593.26" x2="3037.61" y2="-1428.97" gradientTransform="matrix(0, 1, 1, 0, 1576.83, -1589.18)" xlink:href="#White_Black"/><linearGradient id="White_Black-42" x1="2889.8" y1="-1604.44" x2="2973.96" y2="-1520.28" gradientTransform="matrix(0, 1, 1, 0, 1576.83, -1589.18)" xlink:href="#White_Black"/><linearGradient id="White_Black-43" x1="2823.49" y1="-1500.22" x2="2953.39" y2="-1370.31" gradientTransform="matrix(0, 1, 1, 0, 1576.83, -1589.18)" xlink:href="#White_Black"/><linearGradient id="White_Black-44" x1="2864.28" y1="-1362.19" x2="2938.89" y2="-1287.59" gradientTransform="matrix(0, 1, 1, 0, 1576.83, -1589.18)" xlink:href="#White_Black"/><linearGradient id="White_Black-45" x1="2847.27" y1="-1518.93" x2="2940.39" y2="-1425.8" gradientTransform="matrix(0, 1, 1, 0, 1576.83, -1589.18)" xlink:href="#White_Black"/><linearGradient id="White_Black-46" x1="2875.88" y1="-1590.84" x2="2968.96" y2="-1497.76" gradientTransform="matrix(0, 1, 1, 0, 1576.83, -1589.18)" xlink:href="#White_Black"/><linearGradient id="White_Black-47" x1="2889.38" y1="-1604.89" x2="3048.29" y2="-1445.98" gradientTransform="matrix(0, 1, 1, 0, 1576.83, -1589.18)" xlink:href="#White_Black"/><linearGradient id="White_Black-48" x1="2766.72" y1="-1467.07" x2="2906.29" y2="-1327.5" gradientTransform="matrix(0, 1, 1, 0, 1576.83, -1589.18)" xlink:href="#White_Black"/><linearGradient id="White_Black-50" x1="3025.96" y1="-1520.03" x2="3083.49" y2="-1462.5" gradientTransform="matrix(0, 1, 1, 0, 1576.83, -1589.18)" xlink:href="#White_Black"/><linearGradient id="White_Black-51" x1="3045.18" y1="-1500.67" x2="3064.16" y2="-1481.69" gradientTransform="matrix(0, 1, 1, 0, 1576.83, -1589.18)" xlink:href="#White_Black"/><linearGradient id="White_Black-52" x1="2967.04" y1="-1579.07" x2="3142.48" y2="-1403.63" gradientTransform="matrix(0, 1, 1, 0, 1576.83, -1589.18)" xlink:href="#White_Black"/><linearGradient id="White_Black-53" x1="3010.01" y1="-1535.89" x2="3099.36" y2="-1446.55" gradientTransform="matrix(0, 1, 1, 0, 1576.83, -1589.18)" xlink:href="#White_Black"/><linearGradient id="White_Black-54" x1="2885.72" y1="-1352.29" x2="2951.44" y2="-1286.57" gradientTransform="matrix(0, 1, 1, 0, 1576.83, -1589.18)" xlink:href="#White_Black"/><linearGradient id="White_Black-55" x1="2782.68" y1="-1499.58" x2="2969.54" y2="-1312.72" gradientTransform="matrix(0, 1, 1, 0, 1576.83, -1589.18)" xlink:href="#White_Black"/><linearGradient id="White_Black-56" x1="3078.79" y1="-1136.68" x2="3078.82" y2="-1136.65" gradientTransform="matrix(0, 1, 1, 0, 1576.83, -1589.18)" xlink:href="#White_Black"/><linearGradient id="White_Black-57" x1="2729.05" y1="-1679.47" x2="3021.56" y2="-1386.95" gradientTransform="matrix(0, 1, 1, 0, 1576.83, -1589.18)" xlink:href="#White_Black"/><linearGradient id="White_Black-58" x1="2811.63" y1="-1661.33" x2="3045.09" y2="-1427.88" gradientTransform="matrix(0, 1, 1, 0, 1576.83, -1589.18)" xlink:href="#White_Black"/><linearGradient id="White_Black-59" x1="2832.22" y1="-1496.59" x2="2984.11" y2="-1344.7" gradientTransform="matrix(0, 1, 1, 0, 1576.83, -1589.18)" xlink:href="#White_Black"/><linearGradient id="White_Black-60" x1="3076.29" y1="-1144.03" x2="3098.26" y2="-1122.06" gradientTransform="matrix(0, 1, 1, 0, 1576.83, -1589.18)" xlink:href="#White_Black"/><linearGradient id="White_Black-61" x1="2677.12" y1="-1327.58" x2="2866.31" y2="-1138.39" gradientTransform="matrix(0, 1, 1, 0, 1576.83, -1589.18)" xlink:href="#White_Black"/></defs><g class="cls-1"><g id="Layer_2" data-name="Layer 2"><g id="object"><rect class="cls-2" width="3021.26" height="1573.57"/><rect class="cls-3" y="1101.5" width="3021.26" height="472.07"/><g class="cls-4"><path class="cls-5" d="M2364.21,472.15c0-.08-.05-.1,0,0S2364.22,472.23,2364.21,472.15Z"/><path class="cls-6" d="M2975.08,244.94c-18.53-7.53-39.09,3.4-55.52,14.81a562.47,562.47,0,0,0-92,80.09c-21.82,23.61-44.65,68.31-79,74.84-12.25,2.32-24.85,1.66-37.29,2.43-9.77.61-19.45,2.11-29.13,3.61-27.83,4.32-55.68,8.63-83.31,14.09-17.46,3.46-36.75,7.66-53.28,14.31-20.69,8.33-37.46,26.33-58.67,33.63,15.39-5.3,26.82-7.9,43.64-12.93,13.78-4.12,33.05-10.86,47-18.25,4.05-2.14,8.59-4.57,12.61-6.71-3.34,4.08-8.35,6.22-10.85,11-2.22.91-6.17,1.91-5.69,4.9-5.06,4.26-11.18,6.17-17,9.17-2.1.61-4.17,1.28-6.28,1.86s-4.17.79-6.24,1.26c-2.37-.18-4.86-.19-7.22-.2-.94,0-3.22-.22-3.75-.22-1.57,0-8.25,1.87-3.36.43,5.37-1.58,16.91-4.2,21.88-4.26,18.83-.21,3.75,7.89-5,2.88-5.28-3-9.86-13.06-12.68-19.45-.37-.82-1.12-3.08-1.55-4.43-1-3.06-3.59-5.48-4.84-8.68s-.75-7.36-2-10.69c.73-1.61.25-2.22-.4-3.71a6.18,6.18,0,0,0,1.25-3.23c.38-11.33.85-22.17-.86-32.89-2.43-15.28,2.93-30.15-9.37-41.37-7-6.37-13.67-12.81-19.19-20.53-3.65-5.1-7-10.3-10.78-15.28a152,152,0,0,0-12-14.22c-3.1-3.18-7.34-6.38-10.1-9.87a54.73,54.73,0,0,0-10.4-9.62,29.7,29.7,0,0,0-12-9.48l-.72-1.43a50.81,50.81,0,0,0,4-3.65,10.58,10.58,0,0,0,1.27-1.93c2.86-5,10.82-9.54,14.17-13.18,13.86-15,17.64-25.93,38.46-30.36,1.18-.25,1.49-.06,2.47-.69-2-1.64-4.32-2.61-6.46-4-.29-.18-.52-.47-.81-.66a43.17,43.17,0,0,0-9.25-4.73,27,27,0,0,0-7.64-3.05c-10.84-2.51-19.45.73-28.75,6.12a70.94,70.94,0,0,0-10.14,7c-6.27,5.18-13.25,7.12-20.15,11.93-4.87,3.38-8.88,7.89-12.77,13.35-2.87,4-6.07,10.66-10.45,14-.31-.11-.5-.31-.85-.28a9.11,9.11,0,0,0-7.22-2.09c-1.24.54-2,.18-2.87-.76-1.08-2.72-2.79-4.43-4.94-6.4-.28-.26-.53-.41-.5-1,.07-1.39-.09-2.87,0-4.37a225.21,225.21,0,0,1,3.68-22.76s-.19-.12-.18-.15.2.13.18.15c.77-3.84,2.52-6.36,1.17-10.12,9.65-14.66,18.18-26.65,29.61-42.34,8-14.86,19.93-28,30.66-40.9,4.57-5.48,9.29-13.25,14.9-17.65,8.8-6.89,20.41-9,29-16.93,9-8.31,14.9-19.81,25.11-26.51,5.59-3.66,12.37-5.83,16.58-11,1.31-1.61,2.33-3.92,1.27-5.7-.76-1.28-2.33-1.82-3.79-2.11-8-1.59-16.37,1.36-23.16,5.92s-12.38,10.66-18.32,16.29a171.87,171.87,0,0,1-33.71,25c-3.63,2.06-7.42,4-10.14,7.21-2,2.26-3.27,5-5.21,7.31-7.06,8.26-17.19,4.09-26.42,6.23a13.17,13.17,0,0,0-4.3,1.62,12.37,12.37,0,0,0-4,4.72c-2.11,3.91-4.41,8.3-6.05,12.23s-1.11,5.51,1.65,8.34c-12.65,14.72-23.64,29.84-31.88,47.46-6.42,2.8-11.8,4.82-18.35,8.18-8.84,4.52-22.13,12.18-28.24,19.1-4.89,5.55-1,2.25.55,5.32.45-.11.47.23.81.17a2.61,2.61,0,0,0,2.43,1.16c2.58,1.54,4.71,3.77,7.39,5.11,3.94,2,5.92,5.47,9.63,7.67-1.06,2.12-1.52,2-3.69,3.23-14.89,8.59-24.75,20.69-34.11,35.19-1.9,2.95-3.08,6.86-5.62,9.56a11.55,11.55,0,0,1-1.91,1.55,8.59,8.59,0,0,0-2.65,2.75A114.43,114.43,0,0,0,2273.23,307a117.58,117.58,0,0,0-16,27.1c-5.86,12.81-9.6,24.74-8.39,38.95,0,1.1,0,2.32,0,3.41A42.64,42.64,0,0,0,2250.6,391c.63,2,1.71,3,2.43,4.83-1.68.32-3.32.32-4.85,1.18-7.21,1.19-14.47,2.27-21.59,3.87-10.36-.53-19.52.51-30.08-2.29-2.26-.6-6-6.91-5.3-9.93,1.37-6.18,4.54-11.55,6.12-17.6.66-1.8,1.38-3.41,2-5.26a221,221,0,0,0,6.48-21.8c1-1.61,1.82-3,1.7-5,.56-1.86,1.1-3.77,1.69-5.62.07-.24.39-.41.44-.61a1.13,1.13,0,0,0,0-.56c1.31-2.7,1.28-4.14,2.3-7.07,6.24-17.88,8.72-31.47,15.49-50.69,10.05-28.58,26.91-58.91,43.18-85.24,2.07-3.36,3.5-5.42,5.36-8.24.85-1.29,1.7-1.87,2.43-2.91,1.23-1.76,2.12-3.25,3.28-5,4-4.26,7.25-9.15,11-13.64,1.62-1.95,3.19-4,4.93-5.79a77.36,77.36,0,0,0,8.94-10.38c-4.23-.25-6.05,2.57-8.65,5.45,0,.05,0-.06-.11,0s.1.09-.14.07-.56-.27-.9-.25c-2.11.13-3.37,1.89-5.12,2.87a125.24,125.24,0,0,0-26,19.66c-.29.28-.52.69-.77.95-2.47.35-3.1,1-4.84,2.77-8.7,9.08-13.68,13.27-22.72,24.11-13.5,16.19-28.49,36-40.14,55.44-10.24,17.1-19.64,37.94-29.11,55.35-4.59,8.45-6.81,15-9.63,23.67-.76,2.63-3.36,2.33-5,2-8-1.55-14.47.78-22,1.47-1.77.17-2.72-.6-4.39-.75s-3.48-.57-5.18-.85c-.42-.07-.85-.15-1.25-.25a40.58,40.58,0,0,0-8.36-1.59,1.85,1.85,0,0,0-1-.25c-2.39-.4-4.74-.82-7.13-1.27a14.38,14.38,0,0,1-2.05-.38c-.71-.23-1.25-.08-2-.59-2-1.38-3-2-4.45.57a5.2,5.2,0,0,0-.49.83c-3,8.58-3,16.05,1.78,23.87,5.18,8.42,11.42,15.2,18.22,22.19,1.15,2.1,3,3,5,4.27a13.59,13.59,0,0,0,4.55,2.23,59.55,59.55,0,0,0,9.52,3.65c-.27.51-.54,1-.8,1.51-1.87,1.1-3.55,2.15-5.77,2.32a5,5,0,0,1-2-.2c-4.85-1.66-9.6-3.62-14.57-4.83-5.89-1.8-10.86-4.07-17.06-4.93-12.24-1.72-21.55-2-35.29-2.54-4.33-.18-20.4-.71-24.39-6.27-.37-.53.16-.9.43-1.31a21.33,21.33,0,0,0,3.17-6.88,5.05,5.05,0,0,0,3.6-3.73c0-.07-.15,0,0-.24a8.27,8.27,0,0,1,.71-.92c1.4-1.69,2.67-3.75,4.13-5.4,4.63-5.22,8.89-10.61,13.06-16.11,2.09-2.76,3.43-3.67,5.8-6.66,19.17-24.11,34.07-52,49.57-78.64,5.2-4.45,7.12-7.57,10.91-13.9,6.48-10.81,15.94-25.47,23.32-35.26a73.76,73.76,0,0,0,7.39-11.26,151.56,151.56,0,0,0,9.14-13.2c.68-1.12,1.15-1.86,1.8-2.92a13,13,0,0,0,3.93-5,2,2,0,0,0,.23-.9c0-.28-.28-.23-.43-.15a38.83,38.83,0,0,0-8.5,5.74,1.62,1.62,0,0,0-.9.54,40.75,40.75,0,0,0-7,4.53,120.38,120.38,0,0,0-18.29,16.63,60.56,60.56,0,0,0-8.88,9.23,110.12,110.12,0,0,0-11.68,11.38,20.28,20.28,0,0,0-2.37,2c-6.31,6-32,27.21-35.3,29.92-14.51,11.75-23,18.95-32.51,28.4-9.94,9.88-14.47,15.22-24.13,23.66a12.11,12.11,0,0,0-3.71,3.73c-.7,1-1.93,1.94-2,3.31-3.08,2.2-4.58,4.62-7.08,7.61a25.79,25.79,0,0,0-4.33,7.05c-4.61,11.1-8.09,20-12.83,32.69-.91,2.42-9.48,20.95-4.76,24.8-1.15.84-2.09.76-3.18,1.23a61.91,61.91,0,0,0-11.49,2.39,24.54,24.54,0,0,0-8,1.43,7.84,7.84,0,0,0-4.06,1c-1.33.31-2.68.59-4,.92-9.69,1.16-18.64,3.94-28.25,6-3.8.8-7,1.77-11-.48s-10.45-8.06-10.87-12.94c-.5-5.92,4.6-7.46,8.06-10.64,3.85-3.55,7.74-7.46,12.19-9.65a23.23,23.23,0,0,0,5.55-3.45c1.09-.92,2.39-.59,3.2-1.91,1.69-.75,3.42-1.85,5.11-2.55,1.13-.47,3-.42,3-1.95-.12-2-2.12-1.84-3.57-2.38-2.48-.92-2.5-.86-5.59-1.1-7.88-.62-17-2.75-24.94.58l-3.93-.19-5.05-.24a2.58,2.58,0,0,1-.93-2.08,9.09,9.09,0,0,0-2-8.2c-.17-.23-.52-.51-.4-.83.37-1,1.47-1.21,1.26-2.41,0-.26-.8-.53-1.09-.39-1.26.58-1.41,1.42-1.28,2.73-.31.27-.61.57-.92.82-.31-.55-.76-1.43-1-1.92-1-1.9-1.7-1.15-3.11-.14-.66-.07-1.33,0-2-.09-1-.21-1.94-.73-2.93-.94-.18,0,.19.51-.11.42s.91-.2-.34-.52a68.76,68.76,0,0,0-6.91-1.62c-2.61-.08-2.52.73-3.6,2.22-.33.46,0,.86-.24,1.27-.73,1.06-1.8,1-2.91,1.35a8.85,8.85,0,0,0-5.32,4.29,23.82,23.82,0,0,0-2.15,6.73,6,6,0,0,0-.12,3.36,6.7,6.7,0,0,0,3.71,3.59,10.47,10.47,0,0,0,4.63,1.3,5.08,5.08,0,0,0,4.07-2c1.32.31,2.67.67,4,1,.41.1.85.29.93.69s-.18.59-.4.82c-1.71,1.73-3.42,3.42-5.13,5.14-2.08,0-3.69-1.23-5.46-2.08-5.11-2.47-10.3-4-15.53-6.26-6.45-2.75-11.78-7.76-18-10.88-11.87-5.89-23-13.23-35.55-17.7-5.32-1.88-5.3,14.51-4.39,17.91,1.27,4.76,2.12,9.87,4.12,14.4,4.88,11.07,11.17,19.94,20.43,27.69,4.56,3.83,8.33,8,12.56,12.13a30.87,30.87,0,0,0,7.21,5.61c2.22,1.17,6,1.87,7.77,3.56s3.18.94,5,1.54c2.74.89,4.44,1.46,7.14.4,1.62,1.78,4,1.86,5.89,3.25a6.5,6.5,0,0,1-.28.85c-1.72.33-2.33,1.1-2.38,2.84a17.78,17.78,0,0,0-7.29,10.64,23.06,23.06,0,0,0-1.89,6.84c-.28,2.38-1.17,4.48-1,6.88,4.84-2.49,9.23-5.83,14.24-8s10.13-3.8,15.08-6.16a11.85,11.85,0,0,0,4.16-2.8,9.8,9.8,0,0,0,3.43-4.77,2.06,2.06,0,0,0,.77-.18c1.17,4.72.37,9.22.1,14,0,.67-.07,1.31-.16,2a26.06,26.06,0,0,0,1.22,13.13,6.84,6.84,0,0,0,2.85,4.14,8.65,8.65,0,0,0,2.89,3.06c.63.38,1.21.79,1.88,1.15,11,5.83,22.76,10.4,34.15,15.09,3.06,1.26,6,3,9,3.54,15.89,2.75,30.25-1,45.9-3a45.41,45.41,0,0,0,13.6-4.25c.27.08.56-.06.82-.05,1.67,0,2.7-1,4.1-1.67a4.56,4.56,0,0,0,2.24-1.7,7.07,7.07,0,0,0,4.07-2.94,4.22,4.22,0,0,1,1.26-1.16,11.36,11.36,0,0,0,4-3.69c.57-.85,2.26-1.36,1.46-2.52s-2.35-.29-3.18.49c-.67,0-1.32,0-2,0-4.13-.27-8.26-.59-12.39-.86-.87-.06-1.74-.08-2.6-.12-4.71-1.55-9.42-1.27-14.3-1.51a7.85,7.85,0,0,1-1.79-.46,133.67,133.67,0,0,1-25.59-9.8c-2.3-1.21-4.46-2.67-6.74-3.93a63.32,63.32,0,0,1-4.15-7.91,39.38,39.38,0,0,0,14.9-8.18,13,13,0,0,1,1-.95,13.71,13.71,0,0,0,4.19-4c1.38.1,2.33-.75,3.38-1.43a25.79,25.79,0,0,1,3.11-1.78,37.6,37.6,0,0,0,7.33-4.76,8.25,8.25,0,0,0,3.19-2.76,10.21,10.21,0,0,0,4.06-3.87c.67-1,1.5-1.91,2.22-2.9l3.49-4.76c1.3-.93,1.93-2.29,3.61-2.53-.14.91-.12,1.62.84,2,3,1.32,5.68.73,8.83.06a11.3,11.3,0,0,0,6.31-3.38c.37-.39,1-.68,1.38-1,1.78.69,2.64-.11,3.68-1.53,1.55-.67,3.12-1.31,4.67-2a70.85,70.85,0,0,1,9.07-.78,9.38,9.38,0,0,0,5.68.8c1.18,5.38,3.66,7,9,7.43-.07,0-.12-.27-.11-.31s.26.1.26,0-.05-.57,0-.56,0,.48,0,.57-.11.27-.18.27a12.37,12.37,0,0,0,7.88-.41l1.78.44c-2.28,2.3-5,3.92-7,6.58-.38.53-.89,1.26-1.29,1.72a11.16,11.16,0,0,1-1.18,1.06,39.65,39.65,0,0,0-7.79,9.38,74.81,74.81,0,0,0-7.21,11.51,4.13,4.13,0,0,0-1.35,2.79c-1.33,1.7-1.54,3.51-1.88,5.58a21.61,21.61,0,0,0-2.07,8.13c-.18,1.65-.6,3.2-.78,4.84-1.57,14.63,1,27.42,5.75,41.29,3.87,11.44,7.63,22.87,15.62,32,2.9,3.32,8.28,3.94,11.5,1.9,6.78-4.26-4.41-6.36-7.63-8.08-2.45-1.3-5.42-3.5-5.23-6.69.35-5.85,5.47-9.11,7.68-14.36,2.79-6.63,7-12.75,10-19.38a195.55,195.55,0,0,0,11.39-32.77c.09-.38.12-.72.21-1.1,1.13-4.68,4.44-9.4,5.53-13.88,1.84-7.56,1-14.54,1.42-22.05a14.56,14.56,0,0,1,.08-2.81s-.33,0-.31-.1.3.12.31.1c.38-1.6,1.16-3,1.6-4.54,1.3-1.2,2.58-2.43,3.86-3.64,0,.09-.3,0-.32,0s-.13-.18-.06-.19.34.06.38.15.32.34.44.26c4.43,2.13,9.22,2.63,13.86,4.14.89.29,1.32-.35,1.67-1.07.9.62,1.67,1.49,2.59,2.08a9.09,9.09,0,0,0,4,1.23,6.25,6.25,0,0,1,1.69.53,59.73,59.73,0,0,0,10.24,4c-1.62,4.45-3.25,8.86-4.87,13.33a9.57,9.57,0,0,0-.34,1c-3.12,11.8-4.17,22.31,1.43,33.46.51,1,1,1.54,1.5,2.4a13.59,13.59,0,0,0,3.18,3.83c.78.7,1.48,1.4,2.23,2.11.39,1.35.64,2.77,1.08,4.1a19.1,19.1,0,0,0,1.18,2.54c8-5.93,11-19.89,14.72-27.87,1.28-2.72.5-.53,1.31-2.55,3.39-6.27,6.74-12.92,10.89-18.91a47.31,47.31,0,0,0,3.13-4.52c1.32-2.51,2.67-4.09,5.64-4a8.84,8.84,0,0,1,1.9.6c2.77.68,4.59,1.45,7.72.76,2.73-.6,8,.64,10.47,1,8.89,1.42,16.62,2.12,25.24,2.7.64.05,1.25,0,1.85,0,1,0,2.15.14,3,.16s1.48.09,2.21.05c14.07-.71,27.87-3.27,41.9-4.36.57-.05,1.25-.21,1.65.34,1.05,1.44-.09,2.81-.9,4.09a76.62,76.62,0,0,0-12.55,39.83c-7.87-7.58-13.75-16.24-19.33-25.56-1.83-3.06-3.55-6.13-5.43-9.09.79,2.66-.77,7-.92,9.24a64.34,64.34,0,0,0,.27,11.28,45.4,45.4,0,0,0,4.94,17.35,7.78,7.78,0,0,0,1.63,4c7.67,8.66,16.35,15.5,25.14,23,3.24,2.78,5,6.9,8.26,10s7,5,11.08,8c.47.35,4.79,4.36,6.35,3.66.78,1.39.84,2.24,2,.31.66-1.15-.76-2.94.93-4.2s8.67,1.32,8.92,3.31c1.21,9.49-7,15.83-11.53,22.12s-7.3,10.72-11.41,16.56c-1,1.38-1.64,2.54-2.62,3.82s-1.76,2.81-3.25,3.47c-6.9,3.08-12.78-1.14-17.67-5.23-7.65-6.39-14.89-10.6-23.28-15.23-5.66-3.12-10.86-5.67-16.61-8.91-4.56-2.57-9.4-6-14.71-7.34-.73-.35-1.42-.67-2.15-1-1.29-1.46-3.1-2.2-4.68-3.24a32.12,32.12,0,0,1-3.22-2.7,21.72,21.72,0,0,1-2.56-2.4,18.61,18.61,0,0,1-2.21-3.06,85.14,85.14,0,0,1-5.87-12.72c.18-5.41.37-10.82.52-16.24a13.29,13.29,0,0,0-.18-1.88l-.73.14a1.18,1.18,0,0,0-.36.11,4.57,4.57,0,0,0-2.09,2.82,3.34,3.34,0,0,0-.79,3.11,14.6,14.6,0,0,0-1.25,6.69c.05.6,0,2.33,0,2.33s.35.32.3.34-.3-.34-.3-.34-1.12,2.86-1.58,3.8a20,20,0,0,0-2.08,8.72c.05.91-.09,2-.14,3a27.6,27.6,0,0,0,.6,7.95c.08.33-.11.67,0,1,2.15,9.74,6.43,17.43,12.52,25.27.41.53.57,1.23,1,1.74,1.21,1.44,2.79,2.58,3.95,4a23.38,23.38,0,0,0,5,5,110.38,110.38,0,0,0,22,16.26l3.86,1.38a4.42,4.42,0,0,0,3.19,1.76,10.8,10.8,0,0,0,5,1.29s0-.07,0-.08c4.31,1.51,8,2.46,12.51,1.31a1.94,1.94,0,0,0,.72,0c2,1.43,3.91,1.06,6.21,1a4.89,4.89,0,0,0,3.15-.64c1.87,0,3.49.12,5.15-.86,3.31-.46,6.21-1.82,9.29-3l1,1.09-2.26,3.63c-5.14,1.72-9.17,4.87-13.57,7.91a1.89,1.89,0,0,0-1,0c-2.63-1-4.63-1.42-7.2,0a5,5,0,0,0-3.14,1.73c-3.93,4-6,8.31-7.66,13.58-1.06,1.49-1.23,3.1-1.53,4.86s-2.86,3.85-1,5.44c1.44,1.2,4-1.11,5.49-1.76.23-.1.47-.47.88-.48a15.45,15.45,0,0,1,1.76.3c-.23,2.06-.94,4.12-.88,6.2,0,1.35,1,1.33,2,.54s2.15-2,3.22-2.8c2.81-2.18,5.13-4.76,8.32-6.42,0,.19,0-.33,0-.3s0-.26,0-.26.07-.15.06,0-.06.36-.08.55a13,13,0,0,1,0,1.65c-.8,3.43-1.28,6.61-.49,10.12a28.63,28.63,0,0,0,2.8,12.47c-1.37,3.17-2.68,5.58-1.48,9a4.45,4.45,0,0,0,2,3.08c1.24.89,2.63,2,3.89,2.94,0,.66,0,1.32-.09,2-3,1.76-4.68,3.18-3.83,6.94,1,4.57,1.5,8.23,6.39,10,0,.1,0-.17.05-.11s0,0,0,0-.07,0-.08.09a8.76,8.76,0,0,0,0,.88c2.39.1,4.78.14,7.16.19.15-.26-.15-.71.13-.89s.62,0,1,0c1.53-.05,2.78.16,4.14-.85.93-.7,2.12-1.19,3.1-2,2.16-1.69,3.11-2.88,3.36-5.94.13-1.61-.46-5.2,1.39-6.38,1-.64,1.81-.35,2.87-.18,3.62.61,6.72,1.6,10.19-.14a13.53,13.53,0,0,0,5.32-1.45,12.67,12.67,0,0,0,5.39-1.86,13.15,13.15,0,0,1,2-.94,52.09,52.09,0,0,0,11.35-5.72c1.18-.83,2.61-1.51,2.52-3.11-.07-1.2-1.62-.78-2.42-.85-1.36-1.24-2.34-1-3.89-.21-6.7-7.2-16.5-9.78-25.05-13.4a12,12,0,0,1-2.43-1.37,15.51,15.51,0,0,1-2.31-1.9c-6.88-5.91-14.07-11.26-21.25-16.74a7.05,7.05,0,0,1-2.52-2.57,7.31,7.31,0,0,1,.07-6.23c5.5-12,13.3-22.46,20.72-33.36,1.76,4.38,2.32,8.82,5,12.81-3.58-1.17-8.52,4.45-9.5,6.64-2.51,5.6-1.5,8.82.68,13.67,1,2.27,2.7,2.77,4.48,4.65.48.5.17.19,1.74,1.39s8.74,7.29,11.83,4.43c0,.61-.22,1.57.56,1.63,13.55,1.1,25.62-1.7,37.72-7.43,10-4.74,17.28-10.75,24.95-18.43a9.1,9.1,0,0,0,2.25-3.83c1.3-1.39,1.62-3,2.33-4.72a30.1,30.1,0,0,0,2.06-7.08,14.2,14.2,0,0,1,.35-2.79c.54-1.5,1.61-2.79.38-4.28-.59-.72-1.39.31-1.82.93s-1.25,1.48-1.74,2.16c-1-.11-1.4.63-2.08,1.11-2.39,1.65-4.89,3-7.26,4.6-6.58,2.17-12.08,4.53-19.11,5.62-8.33,1.29-15.39,1.49-24.74,2.39-4.28.41-15,2.66-19.32-.78-3.11-2.5-2.49-5.24-4.52-8.08.18-.92-.15-1.85,0-2.77.29-1.69.83-3.31,1.19-5l2.34-3.8s-.08,0-.08,0,0-.05,0,0,0,.06.05.08a19.68,19.68,0,0,1,1.82,1.07c7.71.62,13.85,4,21.78,1.45,5-1.61,9.5-5.75,12.89-10.25,4-5.36,6.21-11.3,5.41-18.14a31.26,31.26,0,0,0-6.27-15.38c-.72-1-2-1.82-1.86-3.36.3-3.12,4.65-4.37,6.39-6.16,2.84-2.92,3.58-5.52,4.71-9.19,1.29-4.18,1.46-7.83-.75-11.75-.15-.63-.25-1.25-.39-1.88.62-2,1-4.09,1.69-6.1.52-1.51,1.31-2.85,1.94-4.35.32-.77.58-1.41,1-2.27a32.05,32.05,0,0,1,1.52-3c.26-.42.83-.75,1.16-1.14,1.3.24,2.53.67,3.82.93.92.19,1.88.19,2.81.33.23,3.24,2,4,4.82,5.11a15.1,15.1,0,0,0,6,3.51c.26.3.61.5.92.84,4.37,4.66,12.58,7.14,18.13,8.16,9.92,1.83,18.82,1.49,28,.78,24.39-1.89,47-5.67,68.74-16.93a2.92,2.92,0,0,0,1.51-2.45c-1.21-.35-1.88.12-3.12.29-1.7.24-3.59.15-5.38.24-4.41.2-8.9.39-13.29.66-5-1.52-9.55-2-14.7-3.78-7.61-2.63-13.67-9.05-19.75-14.11-7.57-6.31-13.74-10.55-21.72-17.11-4.81-3.95-11.21-11.18-18.1-13a7.34,7.34,0,0,0-4.56-5s0,0,0,0,0,0,0,0c3.29-7.26,8.28-14.16,15.25-17.51a26.58,26.58,0,0,1,12.12-2.72c12.89.29,24.78,3.66,37.16,4.56,3.71.27,6.21.52,9.42,1.93,24.28,10.64,45.26,26.55,66.63,42.06a12.55,12.55,0,0,1,3.63,4.72c.9,1.82,1.14,4.23,1.94,6.1,1.85,4.3,4.86,6.73,9.47,6.29,1.39-.14,2.33-.89,3.41-.85a4.34,4.34,0,0,1,2.71,1.25c7.07,7.63,12.24,20.61,18.47,27.5s8.61,6.33,16,3.8c3.36-1.15,1.76-5.25,5.63-6.89,3.13-1.32,3.87.61,10.29-.14,8.87-1.05,26.8-2.89,37.2,1.25,1.92.77,3.5.93,5.24,1.57.16,1.07,0,1.82,1.11,2.33l1.1,2.06c-.37,1.95.25,3.32,1.08,5.05,2.58,22.47,4.24,45.2-1.89,67.35-1.4,5.07-2.87,11-4.63,16.11-1.61-4.56-3.37-9-5.37-13.43a23.7,23.7,0,0,1-2.08-5.5c-.54-3,0-5.76.24-8.77.73-9.91.26-19.8,1.51-29.74a22.3,22.3,0,0,1,2.37-6.84c.57-1.18.27-2.33-1.44-1.86a12.74,12.74,0,0,0-6.61,1.32,18.37,18.37,0,0,0-7.17,4.47c-2.6,2.4-4.46,4.87-6.84,7.4a1.94,1.94,0,0,1-2.48.35,2.1,2.1,0,0,1-.66-.94c-2-4.23-4.11-8.56-6-12.79-1.16-2.61-2.77-5.36-3.61-7.9-2.51-7.56-2-14.8-3-22.6-.13-1,.29-2.8-1.58-2.32a4.62,4.62,0,0,0-2.51,2.35c-6.1,10.55-12,17.79-13.77,30.76-2.07,15.42-.55,32,5.65,46.94a12.35,12.35,0,0,1,1.29,3.19,11.15,11.15,0,0,1-.56,3.31c-2.73,13.88-1.11,27.45-1.15,41.48,0,5.5-1.11,10.93,0,16.42a6.7,6.7,0,0,0,.86,3.51c-.29,1.71.29,2.91,1,4.42,1.91,4.3,3.76,7.85,7.59,10.72-3.58,1.56-7.2,3-10.76,4.6a64.94,64.94,0,0,0-8.42,4.12,78.06,78.06,0,0,0-10.94,8.84c-4.43,4.08-8.77,8.23-13.2,12.29-.28-2.47-1-4.62-3.19-6a6.94,6.94,0,0,0-6.79-.35,10.47,10.47,0,0,0-3.41,2.79,14.89,14.89,0,0,0-3.48,4.63c-.73,1.86-1.22,3.78.25,5.51,2.83,3.33,9,4.31,12.66,5.06,6.69,1.37,11.14.45,17.43-.7a18.36,18.36,0,0,0,7.22-2.82,40.06,40.06,0,0,0,12.39-7.06c8.29-5.55,15.49-12.38,23.22-18.65,1.2-1,2.4-2,3.59-2.94a3,3,0,0,1,.26.21c.39.31.63.6,1,.92,1,.82,1.66,1.36,2.25-.34s1.13-3.86,1.73-5.64c.39-.34.76-.55,1.17-.89a4.68,4.68,0,0,0,1.78-2.82c.76-2.75,3.32-6.2,4.42-8.58,2.28-4.92,4-9.41,6.18-14.06,4.07-8.91,8.18-17.47,12.56-26.19a14.5,14.5,0,0,0,1.05-2.42,22.53,22.53,0,0,0,.45-2.65c1.86-13.29,7.32-27.2,9.69-40,2.77-15,1.49-27.89.2-42.65a2.52,2.52,0,0,1,.72-2.42c2.84,1.29,7.51,4.91,8.73,7.31,2.14,4.22,6.79,6.21,9.19,8.63,4.29,4.32,6.6,7.22,10.66,11.05,8.06,7.59,15.77,14.2,26,19.16,4.81,2.33,10.52,3.24,15,7.17,2.77,2.45,5.22,6,8.08,8.87,11.13,11.07,22.57,20,38,24.36,9,2.56,17.85-1,26.83-2.82,13-2.65,25.59-5.39,38.61-8.89s24.74-9.24,34.79-18.48c-9,2.72-18.29,5.5-27.61,3.43-11.74-2.6-19.34-8.29-29-15.24-12.12-8.68-23.25-17-35.4-27s-26.52-19.22-42.64-22.77c-7.17-1.57-15.3-1.48-22.49-2.65a308.26,308.26,0,0,0-40.91-3.33c-6-.09-2.52,3-6.75,2.52s-3.58,1.82-5.89-4c-4.08-10.22-15.5-11.56-26.2-10.82-13.15.9-26.48,1.75-39.51,2.94-1.2.11-2.07,0-3,.06s-1.18,0-2,.09a59.31,59.31,0,0,0,9.41-2.51c2.31.18,4.29.6,6.68.7,11.15.44,23,.72,34.11,1.52a179,179,0,0,1,36.38,6.65c.45.14-16.79-7.86-18.37-9.15-5.77-4.72-9.72-7-10.85-14,46.88-8.12,98.35-15.58,145.05-16.08,31.24-.34,63-.73,90.1,1.62,43.69,3.79,77,16.45,117.47,26.13,4.31,1,6.15,1.21,10.3.22,1.83-.43,3-1.4,2.72-3.31-.84-5.7-9.64-7.45-13.6-8.34-17.65-4-28.36-6.18-46.64-11.39-36-10.24-80.48-22.12-114.72-34.07-7.48-2.61-16.24-2.11-21.51-8.09,17.38-23.51,29.95-47.78,53.12-67,23.53-19.53,51.36-33,78.41-47.27C2942.37,277.59,2963.64,265.19,2975.08,244.94ZM2248.43,654.47Zm20-23.3,0,0v0Zm-2.74,2.84Zm0,0h0Zm15.6-9.34h0Zm-19.74,9h0s.09,0,.09,0-.08.06-.1.05S2261.54,633.67,2261.54,633.67Zm19.74-9Zm-41.45-19.73a.29.29,0,0,1,0,.2s-.14-.07-.14-.1S2239.81,604.92,2239.83,604.94Zm44.25-24.75h0s0-.05,0-.05S2284.07,580.18,2284.08,580.19Zm19.51,14.24v0a.14.14,0,0,1,0,0S2303.59,594.44,2303.59,594.43Zm320.27-94.21h-.06l.06-.06s0,.05,0,.05Zm-458-8.74Zm-42-40.63h0Zm573.26-50.72s0,0,0,0h0s0-.06,0-.08.2,0,.2,0Zm105.33,29.25c-.77-.06-2.23.59-2.87,0-.4-.39-.08-.09,0,0-2.73-2.67-9.54-1.35-11.46-.07s-.45.69-.79.57c-.82.52-3.09,0-3.74,0s0,0-.25.06.08,0-.22,0c-5.16-.53-14.17.56-18.35.48-3.16-.06-1.1-.16-1.26-.05-7.7-.91-15.86-.13-23.66.32-2.11.12-4.72.09-6.7.24h0c-4.21-3.65-13,.82-16.41,2.08-2.28.84-.77.28-.79.28a2.52,2.52,0,0,0-1.34.18,39.26,39.26,0,0,0-9.49,1c-1.21.29-.38.12-.65.2-5-.4-15,.22-18.74,1.5-3.19,1.09-1,.7-1.26.5-6.85,2.82-14.51,2.22-21.76,4a11.91,11.91,0,0,0-7,1.43c-1.74-.94-3.41-.24-5.2.17s-3.52.76-5.3,1.16a12.36,12.36,0,0,0-4.39.62,3.23,3.23,0,0,1-1.6-.89,50.21,50.21,0,0,0-13.15,2.31c-.52.15-.83.71-1.31.77s-1.12-.39-1.78-.47c2.31-1.28,3.82-6.24,1.82-7.34-1.6-.89-1,0-.71-.3-1.54-1.67,1.2-4.27,2.24-5.81a27.68,27.68,0,0,1,3.2-2.36c.66-.38.2-.09.25-.14a47.25,47.25,0,0,0,7.23-1.07c3.21.88,6.29-.44,9.09-1.72a52,52,0,0,1,6.82-2.39c1.42-.36.4-.06.64-.17,2.84,0,7.65-1.79,9.74-2.8,1.59-.76.56-.31.61-.3a38.48,38.48,0,0,1,12.11-2.42c.11.1.07.23.22.29a5.09,5.09,0,0,0,1.91.3,3.48,3.48,0,0,0,1.34-.21c3.38,1.68,8.52-1.3,10.08-3.26,1-1.31,0,0,.37-.54s0-.07.09-.12c3.15-1.69,5.06-4.36,7.46-7,1.39-.19,3.73-.43,4.85-.66.62-.14,0,0,.22-.06s0,0,.16-.07c3.53,2.74,10.7.78,13.28-.77,1.72-1,0,0,.63-.43s0-.07.17-.1a13.28,13.28,0,0,0,3.29-.36l.14,0c.14,0,0,0,.13,0,1.83,2,6.94.21,8.35-.3s.26-.23.82-.13c7.84-3.7,21.52.87,27.54,3.11,4.64,1.73,1.61.64,1.79.68,3.15,1.13,7,1.93,10.45,2.91,3.43,1.7,7,2.46,10.72,3.35,2,.28,3.9,1.08,6,1.15.2.3.78.25,1.11.26h0c1.21,1.37,4.23,2.08,5.54,2.19l.33,0c.32,0,0,0,.08,0,1.35,1.73,3.42,2.15,5.27,3.15.57.31.59.77,1,1.3a4.78,4.78,0,0,0,1.68,1.37,5.09,5.09,0,0,1,3,2.93,5.39,5.39,0,0,0,.65,1.29C2803.92,429.25,2803.25,429.44,2802.47,429.38ZM2617.7,471.19l.17,0h-.17Zm136.12-38.6h0Zm40.66-15.19h0l0,0Zm21.66,9.35h0ZM2625.9,473.56h0Zm0,0Zm-.49-.58-.07,0,.17,0Zm-10.54-15.7c-.05,0-.21.08-.24.05s.14-.15.17-.16.06.09.07.1,0,0,0,0Zm16.13-36.1,0-.05s0,0,0,.05ZM2546.25,471h0Zm79.69,2.57h0l.12,0ZM2814.7,371.38h0Zm85.35-94.07.08,0h0s-.12.17-.15.17S2900,277.33,2900.05,277.31ZM2789.31,392.57a.4.4,0,0,1,.13-.07s0,.05,0,.05Zm-241.07,80.56h-.1s0,0,0,0Zm-236.65,47.55h0s0,0,0,0S2311.59,520.67,2311.59,520.68Zm-29.73,10.25s.13,0,.14,0,0,.16,0,.15S2281.85,531,2281.86,530.93Zm167.89-144.78s-.09.07-.11.08-.06-.14,0-.14h0S2449.76,386.12,2449.75,386.15Zm-27.7-4.66h0s0-.11,0-.1,0,.17,0,.19,0-.08,0-.09Zm-27.24-7.7h0s0,0,0,0S2394.81,373.78,2394.81,373.79Zm63.34-78.4c1.9,1,.64.33.74.39.52.91.16,2.21,1.35,2.93,2.33,1.42,6.49,5.75,7.31,7.63s.14.73.29.77c1.34,3.15,3.86,4,7.11,4.79.06.11.05.25.14.34a3.92,3.92,0,0,0,2.6,1.4c.18,0,.31-.12.47-.15a2.8,2.8,0,0,0,1.73,2.43c.19.1.45,0,.6.05s0,0,0,.09a10.39,10.39,0,0,0,4.1,5.05,24.25,24.25,0,0,0,4,6.63c.76.77,0,0,.31.28s0,0,.12.12c-.3,1.74,2.59,3.6,3.3,4.34s.15.22.29.41c1.58,1.72,5,6,5.45,7.7s-.1.65.13.7c.3,7.59,5.62,9.88,11.72,13.31,1.13,1.15,3.59,3.19,3.77,4.55.15,1-.14.55.05.45-.48.17-.32,1.43-.08,1.57s-.24-.14,0,0,0-.07.06.07c-1.26,1.31.39,3.54.8,4.4s.11.31.19.41c-1.26,2.69-.58,6.48.24,8.83.41,1.17.23.51.2.52h0c-.67.5-1.68,3-1.33,3.46s.27-.05.15.21c2.68.73-.54,5.85-1.15,7-.29.51,0,.3,0,0-.74,1.33-1,2-1.57,3a21.57,21.57,0,0,0-3.32,10.54c-1.83.57-1.66,5.66-1.14,6.48h0c.52.82,0-.21.09.22-.73,2.14-.74,6.94-.53,8.6.17,1.31,0,.07.09.53s0,.05,0,.17c-.74.68-.58,2.63-.5,3.27s0,.22,0,.27c-.13.25-.39.34-.62.53-1.63-2.1-3-3.57-5.74-3.84-1.56-1.48-1.87-3.13-4.35-3.06-.13-2.39-3-4.64-5.07-4.47-1.49.13-.09.14,0,0-.25,0-1.2-.22-1.19-.4s0,0,0-.06,0,0,0,0a9.71,9.71,0,0,0-5.55-2.38c-.61,0,0,0-.21,0s0,0-.06,0c-2-4.26-6-4.82-10.29-5.92a.76.76,0,0,1-.42.08c0-.05.42-.13.42-.08a8.43,8.43,0,0,0-4.83-3.11c-.49-.63-1.09-1.63-2-1.5h0s-.05,0-.22,0c-.6-3.07-7.58-4.63-9.78-5.19-.38-.1,0,0-.2,0-1.21-.32,1.68.42.2,0-.65-3.32-3.52-3.64-6.42-4.27a1.54,1.54,0,0,1-.53-.14,2,2,0,0,0-.73-.27,2.73,2.73,0,0,1-.34.08,2.73,2.73,0,0,1,.34-.08,22.53,22.53,0,0,0-7.27-3.74,1.27,1.27,0,0,1-.79-.44c-.19-.29-1.56-.52-1.67-.93-1-3.67-11.8-6.86-13.81-7h0c-17-3.64-33.3-3.7-50.44-3.31a3.1,3.1,0,0,0-1.13-.86,5.18,5.18,0,0,0-2.91.07c-.54.16-.24.08-.25.08-1.78-.42-2.32.76-3,2.19a2.1,2.1,0,0,1-.7-.52,64.48,64.48,0,0,0-23.86,4.7c-.79.31-1.41,1-2.22,1.38a12.32,12.32,0,0,0-3.63,1.66c-1.77-2.55-12.68,3.89-13,4.1h0c-2.5-.51-4.06.91-5.94,2.14a63.64,63.64,0,0,0-8.73-.3,14.44,14.44,0,0,0-6.57.41s.46.17.37.22-.24-.2-.43-.21a4.69,4.69,0,0,0-3.47,1.22c-.78.67-1.53,1.45-2.32,2.11,0,0,0,.06-.07,0s-.62.48-.67,0-.28.26-.11-1.08a62.94,62.94,0,0,1,1.63-6.76l-.16.05.16-.05c.62-2.08,2.26-6.8,1.81-9.12,0-.22-.1.23-.16-.12s.32,1,.16.12c1.86-1.78,3.39-6.62,1.09-8.7-.07-.07,0,.09-.16,0s.47.3.16,0c1-5.55,1.64-11.11,3.77-16.4,0-.08-.06,0,0,0,2.23.14,4.73,2.77,5.77,4,.79.93.24.38.49.45,3.1,6.16,12.7,8.78,17.77,10.28,3.32,1,1.18.39,1.24.38a34.12,34.12,0,0,0,10,2.44,38.56,38.56,0,0,0,11.91,1.41c3.87-.18,8,.38,11.73-1.35.63,1.23,1.42,1.13,2.65,1a31.76,31.76,0,0,0,12-3.33c-1.24.56-3.57-.44-4.25-1s-.2-.25-.27-.23c-1.38-2.07-3.65-1.81-5.94-2a.67.67,0,0,1-.16.23s-.11,0-.08,0,.18-.15.24-.21l-9.77-4.2a15.31,15.31,0,0,0-4.71-3.17,26.4,26.4,0,0,1-7.16-5.92c-.91-1.31-.24-.59-.43-.53,0-5.9-1.78-14.25-8.49-15.14-2.65-.35-.22.47,0,0-3.38-.45-3.91-5.85-3.43-8.58.15-.84-.87-1.81-1-2.61a66.05,66.05,0,0,0-1.75-9.1c-.51-1.51-.27-.5-.23-.74-.77-2.65-.12-7.83-.11-10.36,0-1.82,0,1.32,0,0s0,0,0-.23a53.07,53.07,0,0,0,.9-6c1.87-1.27,3.13-5.87,3.6-7.87.07-.27-.11.24,0-.2.14-.6-.25,1.28,0,.2,3.5-4.51,5.43-9.57,7.84-14.92.88-1.36,3.71-5.54,4.8-7,.85-1.17-1.85,2.49,0,0s7.22-9.72,9.49-12.93c0,0,0,0,0,0a37.14,37.14,0,0,0,6.26-8.25c-1.56-1.23-5.09,2.3-5.77,2.95s.68-.65,0,0,.14-.15-.12.12c-2.18-1-4,2.3-5.19,3.35-1.86,1.64-3.52,2.42-5.36,3.82-.3,0-.6-.34-.62-.53s0,0,0,0c1.92-3,5.53-7.67,7.24-9.88,1.28-1.66.43-.55.52-.68a41.29,41.29,0,0,0,4.2-3.57c.5-.56,0,0,.19-.23s0,0,0-.06c3.75-2.16,6.34-5.73,10.25-7.66-1.2,3.07,1,3.94,2,5.52.66,1,0,0,.22.44s0,.08.06.11c-2.21,5.21-6.41,12.24.41,15.34,0,4.55,2.36,4.09,5.8,6-1.29.75-2.44,1.66-3.77,2.35-3.9,2-7.13,4.77-10.5,7.52a11,11,0,0,0,8.51,1.07c2.37.46,4.09-.48,6.08-1.69h0c.54.18,1.22.38,1.72.5.12,0,0,0,0,0s.18-.08,0,0a2.62,2.62,0,0,0-.57,1.45c.06.29,0,.13,0,.12-.42,1.09-1.33,1.54-2.21,2.23a13.79,13.79,0,0,0-5.9,6.23,5.66,5.66,0,0,1-.53,1c-.18.18,0,0-.15.15-2.6,1.31-4.25,6.83-5.42,8.41s-.55.35-.5.62c-2.15,1.57-2.4,4.61-2.83,6.86-.56,2.87,1.42,2.39,2.57,1.71.72-.42,0-.05.26-.19s0,0,.11-.09c2.13.17,4.67-2,5.83-3.15.81-.78.26-.27.31-.3,4-2.94,8.85-4.45,13.22-6.94,2.82-1.45,5.37-3.83,7.82-5.68a24.22,24.22,0,0,0,4.77-4.71c.05-.07,0-.09,0,0a17,17,0,0,1,2.41-2.49c.4-.34.08-.12.14-.1s.31-.51-.05.11a1.53,1.53,0,0,0,1.6,2.13c.53,1.6,2.71,2.16,3.87,2.52.74.23.28.09.31.09,1.37,1,3.36,1.14,5,1.19,3.26.11,8-1.06,10.56-1.14,1.8-.06.62.07.67,0,3.63.55,6-1.14,9-3.12.15.24.31.3.51.5a18.09,18.09,0,0,0,8.77,5.24c1.88,3.6,7.54,9.56,10.66,10.41,2.27.61,1.07-.23,1.13.16h0C2450.65,291.83,2456.25,294.43,2458.15,295.39Zm-341.9,59.45h0s-.09,0-.1,0,0-.05.06-.05S2116.25,354.83,2116.25,354.84Zm-4.52.54s0,0,0,0h0s-.1-.05-.1-.08.05-.09.07-.08S2111.74,355.37,2111.73,355.38Zm33.59,62.06s.06,0,.07,0,0,0,0,0S2145.31,417.45,2145.32,417.44Zm8.4-10h0ZM2268.93,180.3h0s-.07,0-.06-.07a.25.25,0,0,1,.14-.06S2268.94,180.29,2268.93,180.3Zm140.39,93.82a.14.14,0,0,1,.09,0s0,.05,0,.05S2409.31,274.13,2409.32,274.12Zm11.38-1h0v0l0,0Zm-.76-2.6s-.09,0-.11,0h0s0,0,0,0l.08,0S2420,270.53,2419.94,270.54ZM2255.13,462.91s0-.06,0-.07,0,.05,0,.06Zm40.32-103,0,0s0-.05,0-.06h0Zm-37.79,87.91a.1.1,0,0,1,0,0h0s0,0,0,0Zm52.59-45.67h0s0,0,0,0,.07.06.06.07Zm9-7.15h0s-.07,0-.07,0,.06-.16.09-.16,0,.15,0,.16Zm-42.07,53.66v0h0Zm47.4-54h0a.08.08,0,0,1,0,0h0S2324.56,394.65,2324.56,394.66Zm-60,59.21Zm19.15,8.29s0,.06,0,.07h0S2283.67,462.15,2283.68,462.16Zm8.78-87h0v0ZM2374.33,465h0s0,0,0,0l-.1.08s0,.08-.06.07-.06-.11-.07-.11l.13,0Zm-61.24-122.44s.09.06.09.08-.08.05-.09,0A.17.17,0,0,1,2313.09,342.53ZM2296.39,377s0-.05,0-.05,0,.05,0,.06Zm.93-8.29s0,0,0,0,0,0,0,0Zm60.94-6.13h0c.09,0,.29-.08.34-.05s-.14.17-.18.18S2358.27,362.57,2358.26,362.55Zm-33.48-51s-.13.08-.16.08,0-.08,0-.09h0S2324.78,311.55,2324.78,311.57ZM2518.64,49l.06,0s0,0,0,0ZM2319.28,460.51Zm-3.29-5.22c0,.13.23.2.14.31a3,3,0,0,0-.77,2.09c-.49,1.09-2.19,4.89-2.58,5.78s.39-.89,0,0,.07-.13-.11.17a14.07,14.07,0,0,1-4.47,3.05c-.82.33-.31.09-.35.14a68.35,68.35,0,0,0-13.19,6.12c-1.54.94-4.25,2.36-5.25,2.93h0c-1,.57.18-.09-.17.09a14.73,14.73,0,0,0-3.6.86c-.57.21,0,0-.23.08s0,.1,0,0a13.52,13.52,0,0,1-.06-1.64c.12-.28.13-.05,0-.15,2.17-.64.78-3.4.28-4.26s-.14-.21-.19-.32.1-.14.11-.25-.13-.11-.11-.25c1.34,0,1.74-2,2.1-2.63s.17-.18.14-.24c2.09-2.78,2.2-5.77,2.62-9.19.84-.5.94-2.4,1-3s0,0,0-.22,0,0,0-.05c4.39-2.11,2.66-7.32,1.57-11.21,2.27-1.3,3.95-6.15,2.82-7.79-.73-1.06-.06,0-.35-.36s-.1,0-.08-.1a2.27,2.27,0,0,0,.17-1c0-.16,0,0,0-.07s0,0,0,0c1.16-.18.2-2.14.23-3.11.06-2.54.23-5.39.5-8,.34.25,1.11.3,1.24.78h0c.51,1.91.8,3.93,2.49,5.35-.11,2.49,3.38,6.26,4.78,6.94s.75.09.73.27h0a7.32,7.32,0,0,0,4,3.7c.62,1.47,3.41,2.58,4.39,3l.38.16a5,5,0,0,0,2.61,1.24,2.79,2.79,0,0,0,2.94,2.55h0A13.05,13.05,0,0,0,2316,455.29Zm58.43-35.4s0,0,0,0a.08.08,0,0,1,0,0S2374.42,419.9,2374.42,419.89Zm72.75-144s-.12,0-.13-.06,0-.1,0-.09A.33.33,0,0,1,2447.17,275.89Zm36.68-61.57s.07,0,.08,0,0,0,0,0S2483.85,214.33,2483.85,214.32ZM2409.45,251h0ZM2530.54,50.65a.87.87,0,0,0-.21.17s.14,0,.15-.06S2530.57,50.64,2530.54,50.65Zm-118.05,70.48s0,0,0,0h0ZM2114.65,367.29s-.07,0-.07,0,0,0,0,0S2114.66,367.28,2114.65,367.29Zm106,41.51s0,.06,0,.05,0,0,0-.05,0,0,0,0,0,0,0,0,0,0,0,0Zm101,43.52ZM2348.26,397a.17.17,0,0,1,.1,0s0,.07,0,.07S2348.26,397,2348.26,397Zm14.26-11.28s0,0,0,0,0,0,0,0S2362.52,385.72,2362.52,385.71ZM2523.08,427h0s0-.08,0-.1,0,0,0,0,0,0,0,.05ZM2436,270.61h0Zm53.91-55.94h0s0,0,0,0-.07,0-.07,0,0-.25,0-.27S2489.92,214.64,2489.91,214.67Zm-153.61,11h0ZM2190.48,388.89s-.07-.06,0-.1.47-.26.52-.19-.43.35-.49.31S2190.45,388.89,2190.48,388.89Zm-55.86,4.69s0,0,0,0,0,0,0,0h0Zm-195.3,53.57h.06s0,0,0,0Zm-36.84-8Zm24.4-2.67s.06,0,.06,0,0,.18-.07.18S1926.87,436.52,1926.88,436.5Zm.46-11.79h0v0Zm49.38,39.37h0Zm-112.61-94.72s0-.11,0-.11.1.09.09.11S1864.12,369.37,1864.11,369.36Zm36.9,24.95h0Zm-67.8-12.65h0Zm45,40.25h0v0Zm-54-75.64-.06,0,0,0h0l0,0s0,0,0,0Zm285.27-100.9Zm-141.9,151.46s-.08.14-.11.14,0-.14,0-.15S1967.66,396.8,1967.66,396.83Zm81.81-113.29s-.1,0-.11,0,0-.09.07-.1S2049.48,283.52,2049.47,283.54ZM2030.8,317s0,0,0,0h0a.31.31,0,0,0,0-.09s0,0,0,0S2030.81,317,2030.8,317Zm16.83,70.6h0s0,0,0,0Zm17-62.2,0,0h0v0ZM2098,271a.59.59,0,0,1,0,.08s-.08,0-.08,0l.11-.09ZM1905,395.53h.1s0,0,0,0Zm28.46-40.32s.15-.12.17-.1-.06.16-.09.17S1933.49,355.24,1933.5,355.21Zm-56.62,7.85h0Zm-6.12,47.39h0s.09,0,.09.06-.08.07-.1.06S1870.76,410.47,1870.76,410.45Zm75.66,17.86c-.85-.6-2.78-1.37-3.3-1.9s-.11-.25-.19-.22c-.6-1.44-1.57-1.78-3.11-2.06-1.07-2.15-4.76-3.47-6.32-4.16-1-.44-.08,0-.39-.18s0,0-.08,0h0s0,.07,0,.09h0c-1.65-2-3.63-2.21-6.08-2,0,0,0,.08,0,.1s0,0,0,0-.09-.09-.09-.11c0-1.62-4-1.47-4.62-1.56s.17,0-.23-.05.8.14.23.05,0-.05-.17,0,.11,0-.22.06c-4.32-2.93-13.45-3.67-17.43-3.09-3.09.45-1.14.41-1.28.19-1.36.87-4.55.15-5.61-.36s-.34-.18-.4-.2,0,0,0-.1,0-.22,0-.3c.8-1.3,2.13-1.35,3.38-2.08a2.65,2.65,0,0,1,.63-.08c.13,0,0,.07.15-.11,5.55,2.32,14-1.54,17.31-4.25,2.08-1.72,0-.06.78-.71s0-.1.23-.19c1,.86,3.25-.11,3.9-.54s.22-.18.28-.2h0c2.79-.7,5.32-1.6,8.19-2.25,0,0,0,0,0,0,2.87-.65,6.09-1.06,9-1.67a2,2,0,0,0,.56.49c5-.39,9.57-.76,14.11-3.06,0-.14-.07-.46-.08-.56s.05.06.08.06a7,7,0,0,0,1.73-.14c.28-.08,0,0,.11,0s0,0,0,0c0,.3.71.33.84.35h0s0,0,0,0c-.59,1.38,1.92,2.38,2.64,2.84.35.22,0,0,.13.09s.11,0,0,0c-.55.16-.93,1.4-1.15,1.73s0,0-.17.2c-2.19,2.37-4.2,7.81-5.85,9.74-1.31,1.53-.69.4-.6.66-2.6,1.46-2.7,6.2-3.44,8.23-.54,1.5-.34.44-.23.56a9.82,9.82,0,0,0-2,5.15c-.23,0-1.32,1.61-1.32,1.61ZM2062,393.08h0a0,0,0,0,0,0,0s0,0,0,0Zm49.71,3.05s0,0,0,0-.24.05-.28,0,.16-.19.21-.18S2111.68,396.1,2111.67,396.13Zm50.36,6.58s0,.05,0,.06l-.07,0S2162,402.72,2162,402.71Zm159.6,49.74s0-.11,0-.12,0,0,0,0l0,.05S2321.66,452.46,2321.63,452.45Zm61.65,17.27h0a.62.62,0,0,1-.27.11c-.06,0,0-.11,0-.12A1.85,1.85,0,0,1,2383.28,469.72Zm23.79.39h0s.1-.14.15-.14.06.13,0,.16S2407.1,470.12,2407.07,470.11Zm288,69.72s.21,0,.22,0-.16.16-.19.15S2695,539.85,2695,539.83Zm34.17-42.89,0,0h0Zm-111.67-39.86s.08,0,.08,0a.26.26,0,0,1-.1.07S2617.53,457.09,2617.54,457.08Zm60.22-14.5h0ZM2709.4,440Zm264.37,19.63s0,0,0,0h0s-.13,0-.16,0,0-.11,0-.1S2973.75,459.63,2973.77,459.64Zm-17.55-4.57a.08.08,0,0,1,0,0s0,0,0,.05S2956.22,455.08,2956.22,455.07ZM2945,229.24l.16,0s-.11.1-.12.12,0,0,0,0h0s0-.08,0-.09,0,0,0,0,0,0,0-.05S2945,229.24,2945,229.24ZM2779.71,393.51s.29-.07.27,0a1,1,0,0,1-.42.26C2779.5,393.75,2779.68,393.53,2779.71,393.51Zm-272.54-50.26ZM2394.85,257Zm12-83.31Zm132.36-126Zm-8.45,3.61,0,0h0ZM2367.51,187.07s-.16.28-.17.3-.23.17-.2.11A1.85,1.85,0,0,1,2367.51,187.07ZM2215,312.41Zm-78.46,75.17s.08,0,.09,0h0s-.1.06-.13.05S2136.51,387.58,2136.53,387.58ZM2063.2,268.4h0l0,0S2063.2,268.4,2063.2,268.4ZM1909.51,373s-.24,0-.24,0,.22-.14.25-.17l0,0h0C1909.51,372.86,1909.55,373,1909.51,373Zm114.72,12.51c0-.05,0-.16.06-.09a1.2,1.2,0,0,1,.13.44S2024.22,385.56,2024.23,385.51Zm20,6a3.1,3.1,0,0,1,.73-.14c.12,0,.24.08.11.13s-.56.1-.74.17C2044.43,392.23,2044.09,391.64,2044.26,391.55ZM2046.59,504s.26-.5.32-.56,0-.07,0,0A1,1,0,0,1,2046.59,504Zm70.86-80.26c-.44-.16-.15-.52.11-.14,0,0,0,.11-.06.14S2117.47,423.71,2117.45,423.71Zm128.76,31.13h0Zm144.05-27.18s-.09-.08-.08-.1.1,0,.12,0S2390.28,427.66,2390.26,427.66Zm163.53,51.63h0v0Zm17.22.36a.69.69,0,0,1-.28.05.08.08,0,0,1,0-.13.8.8,0,0,1,.27,0c.05,0,0,0,0,.05S2571.05,479.63,2571,479.65Zm13.13,39.89s-.07-.08-.06-.09.1,0,.11,0S2584.15,519.54,2584.14,519.54Zm-40.07,135.34v0h0Zm14.21-3.63h0l0,0s0,0,0,0Zm46.36-59.09s-.21.12-.24.09,0-.19.06-.2S2604.65,592.12,2604.64,592.16Zm-32.87-107.42a1.12,1.12,0,0,1,.17.2A1.63,1.63,0,0,1,2571.77,484.74ZM2791,572.66a2.71,2.71,0,0,1-.41,0Zm140-119.07s.1,0,.1,0a.17.17,0,0,1-.12,0S2931,453.6,2931,453.59Zm40.92,11.81s.06,0,0,0,0,0-.06,0S2971.89,465.41,2971.9,465.4Z"/><path class="cls-7" d="M2672.35,645.31c-.46,0-.21-.1-.28,0-2-1.36-5.41,2.37-6.62,2.92s-.41,0-.52.23c-2.16-1.11-5.32,1.1-6.31,2.26-.73.85,0,0-.28.35s0,0-.15.13c-3.27-.43-7.7,2.6-9.94,3.68-1.67.8-.61.21-.65.29a21.13,21.13,0,0,0-9.36,3.69c-.56-.19-1.34-.16-1.88-.35-1-.33-3,.23-3.24.76s0,0-.07.22.08.07,0,0c-.46-.16-.81.42-1.23.73-2.7-.39-7.39.63-9.32,1.47-1.24.54,0,0-.48.23s0,0-.12.06-.36.38-.45.45,0,.1-.06,0c-.41-1.13-2.4-1-3.22-1-.41,0-.13,0-.36-.06-5-2.41-10.79-3.08-16.17-4.17h0c-.84-.78-1.93-.74-3-.89h0c.17-1.57-2-2.93-3.13-3s.08.09,0,0c-.57,0-1.67-1.31-1.53-1.74s.09-.12,0-.2c.21-2-2.17-6.58-4.29-5.68-3.31,1.42.49,4.1.92,6.28.3,1.54,3,3,3.77,3.74s.24.27.3.3a4.11,4.11,0,0,1,.71.41c.08.12,0,.08,0,.06-1,2.21-.41,4,.31,6.26a5.22,5.22,0,0,0-.26,1.72c0,.33,0,.12,0,.13a14.82,14.82,0,0,0,.65,4.39c.51,3.56,2.48,6.17,5,8.48,1,1,2.4,2.31,3.12,2.81s.29.14.33.22h0a8.77,8.77,0,0,1-2,3.57s.06.06,0,.08a.06.06,0,0,1-.08,0s0-.06,0-.06c-.74,0-1.32,1.07-1.47,1.5s0,.14,0,.16c-1.19,3.44-.81,6.32.24,9.7.75,2.43,3.27,4,5.09,3.48,1.09-.33,0,0,.41-.17s0,0,.23-.14c-.31,2.33,3.14,1.47,3.68,1.09.28-.14-.54.38,0,0s-.27.13,0,0c.73.29,1.55-.31,2.09-.37a1.78,1.78,0,0,1,1.12.33c.19.09-.25.66-.34.71s-.11-.05.05.2c-9.11,2.06-4.5,13.59-2.73,17.53,1.35,3,0,.09.54,1.19s0,.08.28.23c-3.06,3.54,3.8,3.88,4.9,3.65h0c1.1-.22-.14-.06.2,0,2.71,1.75,5.27.15,8.37.1a42.19,42.19,0,0,1,6.77-5.05c1.48-.69.65-.1.59-.3,2.26-.49,2.7-3.83,1.93-5.13-.51-.85,0,0-.22-.3s0,0,0-.07c.24-1.24-.38-1.87-1.28-2.71-.2-1.23-2.2-2.15-2.82-2.63s-.17-.19-.23-.19a1.78,1.78,0,0,0-.41.12c.24-1.44-1.64-1.88-2.26-1.69s0,0-.25.09,0,.12-.05,0c-.07-.3-.54-.41-.84-.5l1.71-7.61c.85-.57,1.39-.78,2.3-.14-.84.43-.5,2.26.43,1.89,1.7-.68,4,2.46,4.39,3.16s-.38-.7,0,0-.38-.7,0,0-.08-.13,0,.06,0,0,0,0c1.11.83,4,1.95,4.17.51.12-.81,0-.05,0-.36s0-.08,0-.16c2-.19,5.21-3,4.84-4.52-.25-1-.06,0-.18-.42s-.09,0,0-.1a28.4,28.4,0,0,0,1.56-2.41c3.19-1.41,3.14-3.42,2.94-6.65.54-1.14-.38-3.24-.75-4s-.13-.25-.14-.29c-.58-1.14-1.44-2-1.32-3.37,1.36-.39,3.44-1.48,3.85-2.7.19-.59,0-.29.05-.26h0a20.9,20.9,0,0,0,1.56-1.78c1.61.33,4.79-1.62,4.42-2.85-.26-.87-.08,0-.18-.34s-.19-.07,0-.07.57-.41.83-.38c1.48.17,3.61-1.67,3.84-2.62s-.08-.4.06-.39c.48-4.4,4.58-6.18,6.83-9.78,1.32-.73,3.12-3.62,3.37-4.61s0-.48.08-.51h0a29.42,29.42,0,0,1,.85-2.87s-.09,0,0,0c1.07-1.92,2.56-3.94,2.54-6.09C2674,643.52,2672.82,645.28,2672.35,645.31Zm-41.87,42.33s.12.12.09.13a.33.33,0,0,1-.22-.06S2630.46,687.63,2630.48,687.64ZM2614.8,669h0s.07,0,.09,0,0,0,0,0A.13.13,0,0,1,2614.8,669Zm-8.32-3.26h0l.09,0s0,0,0,0S2606.48,665.74,2606.48,665.72Zm-4.05,18.53Zm27.64,12.63c0-.06.07-.26.08-.3s0,0,0,0,0,0,0,0,.16.14.19.19,0,0,0,0a4.74,4.74,0,0,1-.37.39S2630.06,696.94,2630.07,696.88Z"/></g><g class="cls-8"><path class="cls-9" d="M68.79,1512.06l.09,20.82c2.61-.44,5.46-.44,7.87-1.37,1.61.76,2.21.25,3.7-.44a6,6,0,0,0,3.23,1.3c11.3.35,22.11.8,32.8-1,15.24-2.63,30.1,2.94,41.23-10,6.33-7.38,12.72-14.44,20.39-20.27,5.08-3.87,10.25-7.38,15.2-11.41a154.31,154.31,0,0,0,14.13-12.69c3.16-3.27,6.33-7.75,9.8-10.67,3.93-3.31,6.59-6.86,9.55-11a31,31,0,0,0,9.4-12.7l1.42-.76a51.78,51.78,0,0,0,3.67,4.2,10.33,10.33,0,0,0,1.93,1.33c5,3,9.56,11.33,13.21,14.84,15.07,14.5,25.95,18.44,30.47,40.3.25,1.25.06,1.57.7,2.6,1.63-2.1,2.58-4.56,4-6.81.19-.3.47-.55.66-.85a46.8,46.8,0,0,0,4.68-9.75,29.31,29.31,0,0,0,3-8c2.46-11.4-.81-20.45-6.23-30.21a75.15,75.15,0,0,0-7.08-10.62c-5.19-6.58-7.16-13.91-12-21.15-3.4-5.09-7.91-9.29-13.37-13.36-4-3-10.67-6.33-14-10.93.1-.32.3-.53.27-.89a9.9,9.9,0,0,0,2.05-7.6,2.4,2.4,0,0,1,.75-3c2.71-1.15,4.41-3,6.36-5.23.26-.29.4-.56,1-.53,1.38.07,2.86-.11,4.35,0a209.17,209.17,0,0,1,22.73,3.77s.12-.2.15-.2-.13.21-.15.2c3.83.79,6.36,2.62,10.1,1.18,14.67,10.08,26.67,19,42.38,31,14.86,8.31,28,20.84,40.94,32.06,5.49,4.78,13.27,9.71,17.68,15.59,6.91,9.22,9,21.42,17,30.41,8.34,9.37,19.84,15.58,26.56,26.29,3.68,5.85,5.89,13,11.07,17.38,1.62,1.38,3.92,2.43,5.7,1.31,1.28-.8,1.81-2.45,2.09-4,1.55-8.45-1.43-17.21-6-24.34s-10.7-13-16.34-19.18a180.87,180.87,0,0,1-25-35.34c-2.07-3.8-4.07-7.78-7.24-10.63-2.27-2-5-3.41-7.31-5.45-8.27-7.38-4.16-18.05-6.34-27.75a14.59,14.59,0,0,0-1.63-4.52,12.8,12.8,0,0,0-4.73-4.22c-3.92-2.19-8.31-4.6-12.23-6.3s-5.5-1.14-8.32,1.77c-14.74-13.23-29.88-24.72-47.5-33.31-2.82-6.74-4.86-12.39-8.24-19.26-4.55-9.27-12.25-23.22-19.18-29.61-5.56-5.12-2.25-1-5.31.6.11.47-.23.49-.17.85a2.82,2.82,0,0,0-1.14,2.57c-1.53,2.72-3.74,5-5.06,7.79-2,4.15-5.43,6.25-7.61,10.16-2.12-1.11-2-1.59-3.24-3.87-8.64-15.61-20.76-25.93-35.26-35.71-3-2-6.86-3.21-9.57-5.86a12,12,0,0,1-1.55-2,8.87,8.87,0,0,0-2.76-2.76,116.16,116.16,0,0,0-19.7-19,115.77,115.77,0,0,0-27.11-16.7c-12.81-6.1-24.72-10-38.9-8.65-1.1,0-2.31,0-3.4,0a40.32,40.32,0,0,0-14.52,1.92c-2,.67-3,1.81-4.81,2.58-.33-1.77-.34-3.49-1.2-5.1-1.22-7.58-2.33-15.21-4-22.69.48-10.89-.6-20.52,2.14-31.63.59-2.38,6.87-6.31,9.89-5.62,6.16,1.41,11.54,4.72,17.58,6.36,1.8.68,3.41,1.43,5.26,2.08a209.73,209.73,0,0,0,21.77,6.72c1.62,1.06,3,1.91,5,1.77,1.87.59,3.77,1.14,5.61,1.75.25.08.41.41.62.47a1,1,0,0,0,.55,0c2.7,1.36,4.15,1.32,7.07,2.39,17.87,6.48,31.43,9,50.64,16.06,28.56,10.44,58.9,28,85.24,45,3.36,2.16,5.42,3.65,8.25,5.6,1.29.89,1.86,1.78,2.91,2.54,1.76,1.29,3.25,2.22,5,3.43,4.26,4.2,9.15,7.59,13.65,11.51,1.95,1.69,4,3.33,5.8,5.16a77.91,77.91,0,0,0,10.4,9.35c.23-4.45-2.6-6.35-5.48-9.07-.05,0,.06,0,0-.12s-.09.11-.07-.14.27-.59.24-.95c-.13-2.22-1.89-3.54-2.88-5.38A131,131,0,0,0,332.31,1257c-.28-.3-.68-.54-.95-.8-.35-2.6-1-3.26-2.79-5.07-9.09-9.12-13.3-14.34-24.15-23.79-16.22-14.13-36-29.81-55.49-42-17.12-10.69-38-20.48-55.36-30.36-8.45-4.79-15-7.1-23.65-10-2.64-.79-2.35-3.52-2-5.29,1.51-8.43-.84-15.22-1.57-23.18-.17-1.85.59-2.85.74-4.62s.54-3.65.81-5.44c.07-.44.15-.9.25-1.32a45.33,45.33,0,0,0,1.55-8.8,2.08,2.08,0,0,0,.24-1c.39-2.52.8-5,1.23-7.5a16.69,16.69,0,0,1,.37-2.15c.24-.75.08-1.32.59-2.11,1.36-2.12,1.95-3.21-.59-4.68a5.68,5.68,0,0,0-.83-.51c-8.58-3.09-16-3.11-23.81,2-8.38,5.47-15.11,12.07-22.05,19.25-2.09,1.22-3,3.19-4.24,5.26a14.3,14.3,0,0,0-2.2,4.79,65.8,65.8,0,0,0-3.61,10l-1.5-.84c-1.11-2-2.16-3.72-2.35-6.05a5.71,5.71,0,0,1,.2-2.13c1.63-5.11,3.57-10.11,4.75-15.35,1.77-6.19,4-11.43,4.84-17.95,1.65-12.88,1.86-22.67,2.36-37.12.16-4.55.63-21.45,6.15-25.67.52-.4.9.15,1.31.44a20.66,20.66,0,0,0,6.88,3.31,5.15,5.15,0,0,0,3.74,3.76c.06,0,0-.15.23,0a7.26,7.26,0,0,1,.92.74c1.7,1.47,3.76,2.79,5.41,4.32,5.23,4.85,10.63,9.3,16.14,13.66,2.76,2.19,3.68,3.59,6.67,6.08,24.14,20,52,35.59,78.68,51.77,4.47,5.45,7.59,7.45,13.92,11.41,10.81,6.77,25.48,16.65,35.28,24.37a73.58,73.58,0,0,0,11.27,7.72,151.49,151.49,0,0,0,13.21,9.55c1.12.71,1.86,1.2,2.92,1.88a13.22,13.22,0,0,0,5,4.12,2,2,0,0,0,.9.23c.28,0,.22-.29.15-.45a41.17,41.17,0,0,0-5.77-8.92,1.74,1.74,0,0,0-.55-.94c-1.39-3-2.52-4.35-4.55-7.3a123.9,123.9,0,0,0-16.67-19.17,62,62,0,0,0-9.25-9.29,112.12,112.12,0,0,0-11.41-12.23,20.61,20.61,0,0,0-2-2.49c-6-6.61-27.3-33.48-30-37-11.78-15.21-19-24.1-28.48-34.06-9.9-10.42-15.25-15.15-23.72-25.28A12.36,12.36,0,0,0,195.7,997c-1-.73-1.95-2-3.31-2.1-2.21-3.23-4.64-4.79-7.63-7.41a25.64,25.64,0,0,0-7-4.52c-11.1-4.79-20-8.42-32.67-13.35-2.43-1-20.95-9.87-24.77-4.89-.84-1.21-.77-2.2-1.24-3.34a68.07,68.07,0,0,0-2.44-12.08,27,27,0,0,0-1.46-8.36,8.55,8.55,0,0,0-1-4.26c-.31-1.4-.6-2.82-.94-4.21a149.39,149.39,0,0,0-3.06-16.36l-8.35-1.1c.1.59.2,1.17.32,1.74a2,2,0,0,0-.49.6c.42,5.24.81,10,3.12,14.81.14,0,.46-.07.56-.08s0,.05-.06.08a7.69,7.69,0,0,0,.15,1.82c0,.18,0,.15,0,.12s0,0,0,0c-.3,0-.33.75-.34.88s0,0,0,.06,0,0,0,0c-1.37-.6-2.36,2-2.82,2.8a.64.64,0,0,0-.06.11l0,0,0,.06v0c-.17-.59-1.41-1-1.73-1.2s0,0-.2-.19c-2.38-2.29-7.82-4.37-9.75-6.11a9.1,9.1,0,0,1-.66-.63h0c-.14-.15-.17-.21-.14-.22-1.6-2.49-6.11-2.6-8.08-3.34-1-.38-.86-.41-.69-.36a9.72,9.72,0,0,0-5-2c0-.24-1.6-1.38-1.6-1.38.58-.89,1.35-2.92,1.88-3.48.33-.35.34-.3.29-.24,1.36-.63,1.7-1.64,2-3.24a7.44,7.44,0,0,0,2.7-3.31l-14.9-2,.08,17.76a63.13,63.13,0,0,1,6.66-3.63,42.24,42.24,0,0,0,8.24,15.64,10.69,10.69,0,0,1,.94,1.08,14.33,14.33,0,0,0,4,4.38c-.09,1.45.76,2.44,1.44,3.54a27.59,27.59,0,0,1,1.78,3.27A40.07,40.07,0,0,0,94.09,960a8.62,8.62,0,0,0,2.77,3.35,10.48,10.48,0,0,0,3.88,4.25c1,.71,1.92,1.57,2.9,2.32,1.6,1.21,3.18,2.43,4.77,3.65.93,1.37,2.29,2,2.54,3.79-.91-.15-1.62-.12-2,.89-1.3,3.19-.71,6,0,9.29a12.15,12.15,0,0,0,3.4,6.62c.39.38.68,1,1,1.44-.68,1.88.12,2.77,1.54,3.87.68,1.62,1.32,3.26,2,4.9a76.11,76.11,0,0,1,.82,9.53,10.41,10.41,0,0,0-.76,6c-5.37,1.26-7,3.87-7.38,9.54,0-.08.28-.14.31-.12s-.09.27,0,.27.56,0,.55,0-.47,0-.56,0-.27-.11-.28-.18a13.63,13.63,0,0,0,.45,8.28c-.14.63-.29,1.25-.43,1.88-2.3-2.39-3.93-5.3-6.6-7.3-.53-.4-1.26-.93-1.72-1.35a11.44,11.44,0,0,1-1.06-1.23,40,40,0,0,0-9.39-8.15,73.65,73.65,0,0,0-11.53-7.53,4,4,0,0,0-2.79-1.41c-1.69-1.39-3.5-1.61-5.57-2a16.06,16.06,0,0,0-4.34-1.56L66.8,1060c4.18,1.42,8.39,4.28,12.39,5.29,7.55,1.91,14.51,1,22,1.4a14.46,14.46,0,0,1,2.8.07s0-.34.09-.32-.11.32-.09.32c1.6.4,3,1.22,4.54,1.67,1.19,1.34,2.4,2.67,3.6,4a.85.85,0,0,1,0-.29s.18-.13.19-.06-.06.35-.15.4-.34.34-.26.46c-2.11,4.68-2.58,9.71-4.07,14.6-.28.93.36,1.38,1.08,1.74-.62,1-1.48,1.78-2.07,2.74a9.94,9.94,0,0,0-1.2,4.22,6.85,6.85,0,0,1-.53,1.78,65.8,65.8,0,0,0-3.9,10.79c-4.45-1.69-8.85-3.38-13.32-5.06a9.32,9.32,0,0,0-1-.36c-7-1.91-13.46-3-19.91-2.44l.13,29.46c1.72.89.09.3,1.93,1.06,6.27,3.54,12.92,7,18.92,11.37a47.54,47.54,0,0,0,4.52,3.27c2.51,1.37,4.1,2.79,4,5.91a9.52,9.52,0,0,1-.58,2c-.67,2.92-1.43,4.84-.73,8.12.61,2.87-.6,8.45-1,11-1.37,9.35-2,17.49-2.58,26.55,0,.67,0,1.32,0,1.94,0,1-.12,2.27-.14,3.17s-.08,1.56,0,2.32c.78,14.8,3.39,29.3,4.55,44,0,.6.21,1.32-.34,1.75-1.43,1.11-2.8-.08-4.09-.94a76.08,76.08,0,0,0-24-10.85l.22,49a1.71,1.71,0,0,0,.58-.26c1-.77,0-.06.36-.37l.1-.09h0a2.13,2.13,0,0,0,1,.18c.17,0,0,0,.08,0s0,0,0,0c.19,1.22,2.15.21,3.11.23,2.53,0,5.38.22,8,.5-.25.35-.29,1.17-.77,1.3-1.91.55-3.92.86-5.33,2.64-2.48-.1-6.23,3.58-6.9,5.06-.07.15-.11.26-.16.37l.47,106.25c6-7.72,10.18-14.12,16.52-22.34,3.92-5.07,11.11-11.83,12.92-19.09,2.7-.92,3.85-2.23,5-4.82,0,0,0,0,0,0s0,0,0,0c7.26,3.42,14.16,8.64,17.54,16a29.11,29.11,0,0,1,2.77,12.72c-.23,13.56-3.54,26.08-4.38,39.1-.25,3.9-.49,6.53-1.88,9.91-10.51,25.58-26.28,47.71-41.65,70.25a12.49,12.49,0,0,1-4.7,3.83A11,11,0,0,1,68.79,1512.06ZM77,1389.16s0,.11,0,.12-.1,0-.1,0S77,1389.15,77,1389.16Zm7.58-16.6s0,0,0,0l0,0S84.57,1372.55,84.58,1372.56Zm-4.87-270.08s-.11,0-.13-.06,0,0,0-.05C79.74,1101.9,80.09,1102.2,79.71,1102.48Zm26-157.74s-.15-.09-.14-.12.13,0,.15,0S105.73,944.74,105.7,944.74Zm11.21,59.63s.29-.21.34-.2.16,0,.1.07A1.26,1.26,0,0,1,116.91,1004.37Zm68.81,6.46s-.06,0-.07-.05h.08S185.73,1010.83,185.72,1010.83Zm71.73,82.45Zm-80-46.92,0,0h0Zm56.82-1.77h0a.09.09,0,0,1,0,.05h0s0,0,0,0ZM115.3,1028.78s0,0,0,0h0S115.31,1028.78,115.3,1028.78Zm-5.42,15.1h0v0Zm-2.82,52.29s0,0,0,0,0-.25,0-.29.19.17.18.22S107.09,1096.17,107.06,1096.17Zm28.79,3s0-.07,0-.08a.08.08,0,0,1,0,0S135.86,1099.18,135.85,1099.17Zm-49.91,32.54s0-.08,0-.07a.1.1,0,0,1,0,.08Zm10,8.72h0Zm4.71,8.74s0-.07,0-.08a.19.19,0,0,1,.07.06S100.68,1149.18,100.67,1149.17Zm90.39,55.27Zm-76.12-24.89c-.07.06-.35-.45-.31-.52s0-.06,0,0,.06-.07.1,0S115,1179.49,114.94,1179.55Zm-20,31.27v0h-.06l.06,0s0,0,0,0,0,0,0,0S94.94,1210.81,94.93,1210.82ZM144,1289.25s0,0,0,0l.06,0h0S144,1289.25,144,1289.25Zm134.21,42.37Zm104.58,79.61s0,0,0,0h0Zm-52.46-5.63h0ZM78.25,1528.9s0,0,0,0l0,0h0S78.23,1528.89,78.25,1528.9ZM115.1,1458s0,0,0,0C115.24,1457.46,115.18,1457.7,115.1,1458Zm3.55-6.59s0,.18-.06.17-.08-.09-.08-.12S118.64,1451.44,118.65,1451.45Zm4.46-29h0s.11,0,.1.06a.31.31,0,0,1-.19,0s.08,0,.09,0Zm-4.49-62.58h0l0,0S118.61,1359.9,118.62,1359.89ZM109.51,1320l0,0s0,0,0,0h0S109.51,1320,109.51,1320Zm-.41-5.65s.16.06.17.1-.15,0-.16,0h0S109.07,1314.33,109.1,1314.33Zm-7.17-9.32h0s-.06.08-.07.07S101.92,1305,101.93,1305Zm33.4-13.72,0,0h0S135.34,1291.29,135.33,1291.29Zm-2.34,1.77s0,0,.13-.08S133.16,1293,133,1293.06Zm8.68,1.13s0,0,0-.1S141.72,1294.1,141.67,1294.19Zm78.8,35.73s0,0,.18,0S220.7,1330,220.47,1329.92Zm96.35,34.35s-.29-.17-.31-.19-.16-.23-.1-.21A2.23,2.23,0,0,1,316.82,1364.27Zm-86.66,44.44s-.06,0-.06-.06.05-.05.06,0A.17.17,0,0,1,230.16,1408.71Zm23-.06h0Zm-19.4,11.11s0-.09,0-.11h0s.05.07.05.1S233.8,1419.78,233.79,1419.76Zm-2.59.84v0h0l0,0Zm2.6,16.06h0Zm-5.22,11.76s0-.12,0-.13.11,0,.1,0A.42.42,0,0,1,228.58,1448.42Zm-66.93,63.39Zm-16.29,7c-.35,0-.09-.14,0,0ZM99,1511.67l-.13.1h0l0,0,0,0h-.08c-2.14-.76-6.92-.75-8.58-.52-1.31.18-.07,0-.53.09l-.17,0h0c-.68-.77-2.62-.6-3.27-.51l-.26,0c-.25-.14-.34-.4-.53-.65,2.09-1.73,3.54-3.15,3.8-6.06,1.47-1.64,3.12-2,3-4.58,2.38-.15,4.62-3.21,4.44-5.35,0-.27.21-1.27.39-1.25s.09,0,.07,0,0,0,0,0a10.52,10.52,0,0,0,2.35-5.86c0-.63,0,0,0-.22v-.06h0c4.24-2.17,4.78-6.36,5.86-10.84,0,0-.13-.43-.08-.44s.13.44.08.44a8.94,8.94,0,0,0,3.07-5.1c.64-.52,1.63-1.15,1.49-2.08a.13.13,0,0,0,0-.07h0s0,0,0-.06,0,0,0,0a.61.61,0,0,1,0-.15c3-.65,4.57-8,5.13-10.32,3.31-.69,3.61-3.71,4.22-6.77a2,2,0,0,1,.14-.55,2,2,0,0,0,.27-.77,1.82,1.82,0,0,1-.08-.36,2,2,0,0,1,.08.36,24.06,24.06,0,0,0,3.7-7.66,1.3,1.3,0,0,1,.43-.83c.29-.21.51-1.65.92-1.77,3.66-1.08,6.79-12.44,6.9-14.55,3.55-17.85,3.53-35,3.06-53a3.31,3.31,0,0,0,.86-1.19,5.69,5.69,0,0,0-.09-3.06c0-.14-.06-.23-.08-.28.4-1.86-.78-2.42-2.2-3.18a2,2,0,0,1,.52-.74,70.94,70.94,0,0,0-4.81-25.06c-.31-.83-1-1.49-1.38-2.34a13.54,13.54,0,0,0-1.67-3.8c2.53-1.88-3.94-13.32-4.16-13.65.5-2.63-.92-4.26-2.16-6.24a70.18,70.18,0,0,0,.26-9.17,16.31,16.31,0,0,0-.43-6.92c-.05,0-.17.5-.22.39s.19-.24.2-.44a5.14,5.14,0,0,0-1.23-3.65c-.68-.81-1.46-1.6-2.12-2.43,0,0-.06,0,0-.07s-.48-.65,0-.71-.27-.29,1.07-.11a57.84,57.84,0,0,1,6.76,1.68l-.06-.17.06.17c2,.61,6.46,2.22,8.85,1.9a1.19,1.19,0,0,0,.26,0c1.75,1.92,6.48,3.49,8.59,1.19,0,0,0,0,.08-.08,5.55,1.06,11.1,1.67,16.39,3.89-.14,2.35-2.74,5-4,6.09-.92.83-.37.25-.44.51-6.13,3.29-8.71,13.4-10.18,18.74-.79,2.89-.53,1.84-.41,1.43a37.32,37.32,0,0,0-2.35,10.37,42.83,42.83,0,0,0-1.35,12.52c.2,4.07-.35,8.4,1.41,12.33-1.23.67-1.12,1.5-1,2.79a35,35,0,0,0,3.38,12.59c-.56-1.31.43-3.76,1-4.48.35-.46.36-.42.32-.35,1.95-1.47,1.71-3.82,1.84-6.19a.62.62,0,0,1-.22-.17s0-.11,0-.08a1.69,1.69,0,0,1,.2.25c1.39-3.43,2.78-6.87,4.15-10.29a15.82,15.82,0,0,0,3.14-5,27.35,27.35,0,0,1,5.88-7.56c.29-.22.48-.34.59-.42s-.05,0-.06,0h.12c.17-.1.13,0,0,0,5.87-.1,14-2,14.89-9,.43-3.55,5.81-4.14,8.54-3.65.84.16,1.8-.91,2.6-1a63.3,63.3,0,0,0,9.07-1.88l.7-.26,0,0c2.64-.82,7.81-.16,10.33-.17h.24a50.24,50.24,0,0,0,6,.91c1.23,1.9,5.56,3.18,7.65,3.7l.22.06c4.52,3.66,9.58,5.66,14.92,8.18,1.36.92,5.54,3.87,7,5,2.49,1.93,9.72,7.55,12.94,9.92a37,37,0,0,0,8.26,6.55c1.22-1.65-2.32-5.35-3-6.06h0l-.1-.11h0l0,0h0c-.24-.27-.09-.11,0,0,1-2.3-2.32-4.19-3.36-5.43-1.65-2-2.43-3.69-3.84-5.63a.74.74,0,0,1,.53-.65c3,2,7.67,5.78,9.88,7.57l.68.55a43.46,43.46,0,0,0,3.59,4.4c.56.52,0,0,.22.19l.06,0c2.18,3.93,5.76,6.64,7.7,10.74-3.07-1.24-3.93,1.11-5.51,2.17-1,.7,0,0-.43.24s-.17.07-.12.05c-5.21-2.3-12.23-6.67-15.29.5-4.54,0-4.07,2.51-5.92,6.13-.75-1.35-1.67-2.55-2.36-4-2-4.09-4.8-7.47-7.56-11a12.26,12.26,0,0,0-1,9c-.44,2.49.51,4.29,1.72,6.38-.18.57-.37,1.28-.49,1.81v0h0s0,0,0,.06a.29.29,0,0,0-.05-.1,2.58,2.58,0,0,0-1.45-.6c-.28.07-.13,0-.12,0-1.08-.43-1.54-1.39-2.23-2.32a14.15,14.15,0,0,0-6.24-6.17,5.73,5.73,0,0,1-1-.55c-.18-.2,0,0-.14-.16-1.32-2.73-6.84-4.44-8.42-5.66-.75-.59-.87-.74-.81-.74-1.62-2-4.5-2.31-6.67-2.74-2.86-.56-2.38,1.51-1.7,2.71.43.76.06,0,.2.28s0,0,.09.11c-.16,2.25,2.06,4.9,3.17,6.12l.3.33c3,4.23,4.49,9.28,7,13.87,1.47,3,3.85,5.62,5.71,8.19a24.83,24.83,0,0,0,4.72,5,17.82,17.82,0,0,1,2.5,2.53l.11.13h0s0,0,0,0l-.12-.07a1.54,1.54,0,0,0-2.12,1.68c-1.6.58-2.15,2.86-2.5,4.09l-.1.34c-1,1.44-1.11,3.53-1.16,5.24-.09,3.43,1.1,8.37,1.2,11.1,0,1.17,0,1.14,0,1-.42,3.67,1.23,6.16,3.17,9.21-.24.16-.29.33-.5.54a19.29,19.29,0,0,0-5.18,9.25c-3.59,2-9.5,8-10.34,11.26a7.25,7.25,0,0,0-.22,1.2c-3.37.57-5.92,6.39-6.86,8.38s-.33.68-.39.78c-.9.56-2.2.18-2.91,1.43-1.41,2.46-5.71,6.85-7.58,7.72l-.87.38c-3,1.43-3.89,4.06-4.64,7.42-.11.08-.25.07-.34.16a4.18,4.18,0,0,0-1.38,2.74c0,.19.12.32.15.5a2.77,2.77,0,0,0-2.42,1.82c-.1.2,0,.47,0,.63s-.06,0-.09,0a10.48,10.48,0,0,0-5,4.32,24.49,24.49,0,0,0-6.6,4.24c-.75.81,0,0-.27.33l-.1.11h0c-1.74-.3-3.57,2.74-4.31,3.5s-.22.15-.41.3c-1.71,1.67-5.93,5.31-7.65,5.77-.82.22-1,.21-1,.16-7.34.48-9.6,6-12.95,12.36-1.14,1.19-3.17,3.79-4.52,4a3.51,3.51,0,0,1-.46,0c-.18-.49-1.42-.32-1.55-.07l0,.06h0s0,0,0,0c-1.32-1.32-3.53.42-4.39.86-.67.34-.48.22-.42.19-2.69-1.31-6.46-.57-8.8.3l-.52.2c-.52-.7-3-1.74-3.45-1.37a.87.87,0,0,0-.19.17h0c-.71,2.82-5.84-.54-7-1.19-1.33-.77-2-1-3-1.63a20.71,20.71,0,0,0-10.53-3.44C104.86,1510.93,99.79,1511.12,99,1511.67ZM260.5,1353.43h0l0,0S260.58,1353.51,260.5,1353.43Zm-53.61-28.16Zm-.23,0h0Zm-64.94,30c0,.09.08.31.05.36s-.17-.15-.18-.19.09-.14.11-.16h0ZM97.13,1493h0S97.1,1493,97.13,1493Z"/><polygon class="cls-10" points="330.8 1371.27 330.8 1371.27 330.81 1371.27 330.8 1371.27"/><path class="cls-11" d="M383.38,1376.64h0v0a.08.08,0,0,1,0,0Z"/><path class="cls-12" d="M118.55,1415.08s-.08-.08-.08-.11.13-.06.14,0S118.58,1415.09,118.55,1415.08Z"/><path class="cls-13" d="M290.49,1448.49s0-.07,0-.06,0,.06,0,.08S290.49,1448.5,290.49,1448.49Z"/><path class="cls-14" d="M115.05,1421.16c.14-.52.08-.29,0,0C115,1421.21,115,1421.24,115.05,1421.16Z"/><path class="cls-15" d="M78.06,1488.63l0,0h0s.08,0,.1,0S78.07,1488.63,78.06,1488.63Z"/><polygon class="cls-16" points="191.25 1180 191.25 1180 191.25 1180 191.25 1180"/><path class="cls-17" d="M123.18,1387.41s-.17,0-.19,0,.09,0,.09-.05h0S123.2,1387.39,123.18,1387.41Z"/><path class="cls-18" d="M94.83,1186.06l.06,0s0,0,0,0,0,0,0,0,0,0,0,0h-.06Z"/><path class="cls-19" d="M220.88,1299.35c.26.06.05,0-.18,0C220.67,1299.31,220.68,1299.3,220.88,1299.35Z"/><path class="cls-20" d="M118.6,1327.88s0,0,0,0h0Z"/><path class="cls-21" d="M107.27,1313.74s-.07,0-.07,0,0-.07,0-.07S107.28,1313.73,107.27,1313.74Z"/><path class="cls-22" d="M109.52,1289.93h0s0,0,0,0l0,0S109.52,1289.93,109.52,1289.93Z"/><path class="cls-23" d="M130.67,1360.09s0,0,0,0l0,0Z"/><path class="cls-24" d="M101.89,1275.66l-.07.07s.05-.06.06-.07h0Z"/><path class="cls-25" d="M109.07,1284.61s0,0,0,0h0s0-.08,0-.07.16,0,.16.08S109.08,1284.62,109.07,1284.61Z"/><polygon class="cls-26" points="278.57 1300.92 278.57 1300.92 278.57 1300.92 278.57 1300.92"/><path class="cls-27" d="M105.6,932.93s.13,0,.15,0,0,.11,0,.12S105.6,933,105.6,932.93Z"/><path class="cls-28" d="M148.4,1081.34s0,.05,0,.07l-.07,0s0,0,0,0S148.38,1081.36,148.4,1081.34Z"/><path class="cls-29" d="M109.9,1027.31v0h0l0,0Z"/><polygon class="cls-30" points="177.62 1029.68 177.62 1029.67 177.64 1029.68 177.62 1029.68"/><polygon class="cls-31" points="257.82 1074.28 257.82 1074.27 257.82 1074.27 257.82 1074.28"/><path class="cls-32" d="M185.86,995.83H186s0,0,0,0l-.08,0Z"/><path class="cls-33" d="M234.61,1028h0l0,0h0A.1.1,0,0,1,234.61,1028Z"/><path class="cls-34" d="M97,1454.42h0S97,1454.41,97,1454.42Z"/><path class="cls-35" d="M141.8,1323.82s-.17-.14-.18-.18.1-.14.12-.15h0C141.74,1323.56,141.84,1323.77,141.8,1323.82Z"/><path class="cls-36" d="M260.82,1321.66l0,0s.05.06,0,0Z"/><path class="cls-37" d="M98.73,1472.29h0a1.16,1.16,0,0,1,.14-.09Z"/><path class="cls-38" d="M98.7,1472.31l0,0h0Z"/><path class="cls-39" d="M105.18,1437.84s.13.42.08.42S105.13,1437.85,105.18,1437.84Z"/><polygon class="cls-40" points="161.69 1472.31 161.7 1472.31 161.7 1472.31 161.7 1472.32 161.7 1472.31 161.69 1472.31"/><path class="cls-41" d="M109.82,1431.38a.06.06,0,0,1,0-.06v0S109.83,1431.38,109.82,1431.38Z"/><path class="cls-42" d="M260.84,1321.69l0,0h0v0Z"/><path class="cls-43" d="M260.94,1321.79Z"/><path class="cls-44" d="M229,1411.91s-.13.11-.15.1,0-.11,0-.12S229,1411.88,229,1411.91Z"/><path class="cls-45" d="M260.82,1321.66Z"/><path class="cls-46" d="M119.58,1413.32a1.61,1.61,0,0,1,.08.33h0A1.81,1.81,0,0,1,119.58,1413.32Z"/><path class="cls-47" d="M109.82,1431.31h0Z"/><path class="cls-48" d="M143.1,1294.59l.05-.13S143.12,1294.55,143.1,1294.59Z"/><path class="cls-49" d="M264.72,1318.25Z"/><path class="cls-50" d="M144.41,1338.18l.08-.07S144.42,1338.2,144.41,1338.18Z"/><path class="cls-51" d="M119.66,1413.66h0S119.67,1413.68,119.66,1413.66Z"/><path class="cls-52" d="M109.83,1431.36v0h0A.43.43,0,0,0,109.83,1431.36Z"/><path class="cls-53" d="M260.82,1321.66h0v0Z"/><path class="cls-37" d="M98.73,1472.29h0l.14-.09A1.16,1.16,0,0,0,98.73,1472.29Z"/><path class="cls-54" d="M99,1472.12l0,0Z"/><path class="cls-55" d="M99.09,1472.06Z"/><path class="cls-56" d="M98.87,1472.2l.12-.08Z"/><path class="cls-57" d="M99,1472.1l.06,0Z"/><path class="cls-58" d="M270.24,1335.22h0S270.25,1335.21,270.24,1335.22Z"/><path class="cls-59" d="M218.9,1328.43c-.05-.08-.12-.13-.18-.21S219.05,1328.4,218.9,1328.43Z"/><path class="cls-60" d="M453.71,1494.65v0s0,0,0,0Z"/><path class="cls-61" d="M197.67,1432.83l-.11.05C197,1433.07,197.69,1432.71,197.67,1432.83Z"/><path class="cls-62" d="M163.62,1463.32l-.28,0S163.64,1463.2,163.62,1463.32Z"/><path class="cls-63" d="M229.34,1384.94c0,.09,0,.16,0,.25C229.32,1385.08,229.31,1384.92,229.34,1384.94Z"/><polygon class="cls-64" points="457.37 1503.09 457.37 1503.08 457.37 1503.08 457.37 1503.08 457.37 1503.09"/><path class="cls-65" d="M80.94,915.28l-.13-.1C80.89,915.2,81,915.25,80.94,915.28Z"/></g><rect class="cls-66" x="1045.11" y="286.79" width="1000" height="1000"/></g></g></g></svg>