<svg xmlns="http://www.w3.org/2000/svg" xmlns:xlink="http://www.w3.org/1999/xlink" viewBox="0 0 3021.26 1573.57"><defs><style>.cls-1{isolation:isolate;}.cls-2{fill:#f9f9f2;}.cls-3{opacity:0.04;fill:url(#White_Black);}.cls-3,.cls-8{mix-blend-mode:multiply;}.cls-4{opacity:0.05;}.cls-5{fill:url(#White_Black-2);}.cls-6{fill:url(#White_Black-3);}.cls-7{fill:url(#White_Black-4);}.cls-8{opacity:0.06;}.cls-9{opacity:0.6;fill:url(#linear-gradient);}.cls-10{fill:url(#White_Black-5);}.cls-11{fill:url(#White_Black-6);}.cls-12{fill:url(#White_Black-7);}.cls-13{fill:url(#White_Black-8);}.cls-14{fill:url(#White_Black-9);}.cls-15{fill:url(#White_Black-10);}.cls-16{fill:url(#White_Black-11);}.cls-17{fill:url(#White_Black-12);}.cls-18{fill:url(#White_Black-13);}.cls-19{fill:url(#White_Black-14);}.cls-20{fill:url(#White_Black-15);}.cls-21{fill:url(#White_Black-16);}.cls-22{fill:url(#White_Black-17);}.cls-23{fill:url(#White_Black-18);}.cls-24{fill:url(#White_Black-19);}.cls-25{fill:url(#White_Black-20);}.cls-26{fill:url(#White_Black-21);}.cls-27{fill:url(#White_Black-22);}.cls-28{fill:url(#White_Black-23);}.cls-29{fill:url(#White_Black-24);}.cls-30{fill:url(#White_Black-25);}.cls-31{fill:url(#White_Black-26);}.cls-32{fill:url(#White_Black-27);}.cls-33{fill:url(#White_Black-28);}.cls-34{fill:url(#White_Black-29);}.cls-35{fill:url(#White_Black-30);}.cls-36{fill:url(#White_Black-31);}.cls-37{fill:url(#White_Black-32);}.cls-38{fill:url(#White_Black-33);}.cls-39{fill:url(#White_Black-34);}.cls-40{fill:url(#White_Black-35);}.cls-41{fill:url(#White_Black-36);}.cls-42{fill:url(#White_Black-37);}.cls-43{fill:url(#White_Black-38);}.cls-44{fill:url(#White_Black-39);}.cls-45{fill:url(#White_Black-40);}.cls-46{fill:url(#White_Black-41);}.cls-47{fill:url(#White_Black-42);}.cls-48{fill:url(#White_Black-43);}.cls-49{fill:url(#White_Black-44);}.cls-50{fill:url(#White_Black-45);}.cls-51{fill:url(#White_Black-46);}.cls-52{fill:url(#White_Black-47);}.cls-53{fill:url(#White_Black-48);}.cls-54{fill:url(#White_Black-50);}.cls-55{fill:url(#White_Black-51);}.cls-56{fill:url(#White_Black-52);}.cls-57{fill:url(#White_Black-53);}.cls-58{fill:url(#White_Black-54);}.cls-59{fill:url(#White_Black-55);}.cls-60{fill:url(#White_Black-56);}.cls-61{fill:url(#White_Black-57);}.cls-62{fill:url(#White_Black-58);}.cls-63{fill:url(#White_Black-59);}.cls-64{fill:url(#White_Black-60);}.cls-65{fill:url(#White_Black-61);}.cls-66{fill:none;}</style><linearGradient id="White_Black" x1="1510.63" y1="988.87" x2="1510.63" y2="1281.15" gradientUnits="userSpaceOnUse"><stop offset="0" stop-color="#fff"/><stop offset="1"/></linearGradient><linearGradient id="White_Black-2" x1="2910.81" y1="849.98" x2="3351.17" y2="1189.63" gradientTransform="translate(684.71 3679.28) rotate(-82.64)" xlink:href="#White_Black"/><linearGradient id="White_Black-3" x1="3069.61" y1="930.26" x2="3773.35" y2="1473.06" gradientTransform="translate(684.71 3679.28) rotate(-82.64)" xlink:href="#White_Black"/><linearGradient id="White_Black-4" x1="2530.92" y1="964.78" x2="3527.58" y2="1733.51" gradientTransform="translate(684.71 3679.28) rotate(-82.64)" xlink:href="#White_Black"/><linearGradient id="linear-gradient" x1="2395.22" y1="-1326.76" x2="3022.14" y2="-1326.76" gradientTransform="matrix(0, 1, 1, 0, 1542.5, -1554.7)" gradientUnits="userSpaceOnUse"><stop offset="0" stop-color="#fff"/><stop offset="0.03" stop-color="#f7f7f7"/><stop offset="0.52" stop-color="#747474"/><stop offset="0.85" stop-color="#212121"/><stop offset="1"/></linearGradient><linearGradient id="White_Black-5" x1="2895.89" y1="-1283.57" x2="2944.96" y2="-1234.49" gradientTransform="matrix(0, 1, 1, 0, 1542.5, -1554.7)" xlink:href="#White_Black"/><linearGradient id="White_Black-6" x1="2722.33" y1="-1410.16" x2="2891.39" y2="-1241.1" gradientTransform="matrix(0, 1, 1, 0, 1542.5, -1554.7)" xlink:href="#White_Black"/><linearGradient id="White_Black-7" x1="2829.5" y1="-1605.17" x2="3007.67" y2="-1427" gradientTransform="matrix(0, 1, 1, 0, 1542.5, -1554.7)" xlink:href="#White_Black"/><linearGradient id="White_Black-8" x1="2790" y1="-1507.1" x2="2958.07" y2="-1339.03" gradientTransform="matrix(0, 1, 1, 0, 1542.5, -1554.7)" xlink:href="#White_Black"/><linearGradient id="White_Black-9" x1="2863.8" y1="-1580.41" x2="3002.1" y2="-1442.1" gradientTransform="matrix(0, 1, 1, 0, 1542.5, -1554.7)" xlink:href="#White_Black"/><linearGradient id="White_Black-10" x1="2856.56" y1="-1692.37" x2="3056.65" y2="-1492.28" gradientTransform="matrix(0, 1, 1, 0, 1542.5, -1554.7)" xlink:href="#White_Black"/><linearGradient id="White_Black-11" x1="2726.43" y1="-1399.86" x2="2730.67" y2="-1395.61" gradientTransform="matrix(0, 1, 1, 0, 1542.5, -1554.7)" xlink:href="#White_Black"/><linearGradient id="White_Black-12" x1="2786.64" y1="-1615.82" x2="3008.67" y2="-1393.79" gradientTransform="matrix(0, 1, 1, 0, 1542.5, -1554.7)" xlink:href="#White_Black"/><linearGradient id="White_Black-13" x1="2742.58" y1="-1485.74" x2="2944.42" y2="-1283.89" gradientTransform="matrix(0, 1, 1, 0, 1542.5, -1554.7)" xlink:href="#White_Black"/><linearGradient id="White_Black-14" x1="2720.74" y1="-1495.95" x2="2932.92" y2="-1283.77" gradientTransform="matrix(0, 1, 1, 0, 1542.5, -1554.7)" xlink:href="#White_Black"/><linearGradient id="White_Black-15" x1="2780.22" y1="-1566.89" x2="2967.56" y2="-1379.55" gradientTransform="matrix(0, 1, 1, 0, 1542.5, -1554.7)" xlink:href="#White_Black"/><linearGradient id="White_Black-16" x1="2795.4" y1="-1548.8" x2="2962.35" y2="-1381.85" gradientTransform="matrix(0, 1, 1, 0, 1542.5, -1554.7)" xlink:href="#White_Black"/><linearGradient id="White_Black-17" x1="2776.59" y1="-1541.48" x2="2965.17" y2="-1352.91" gradientTransform="matrix(0, 1, 1, 0, 1542.5, -1554.7)" xlink:href="#White_Black"/><linearGradient id="White_Black-18" x1="2790.8" y1="-1576.65" x2="2986.94" y2="-1380.51" gradientTransform="matrix(0, 1, 1, 0, 1542.5, -1554.7)" xlink:href="#White_Black"/><linearGradient id="White_Black-19" x1="2798.22" y1="-1513.17" x2="2888.7" y2="-1422.69" gradientTransform="matrix(0, 1, 1, 0, 1542.5, -1554.7)" xlink:href="#White_Black"/><linearGradient id="White_Black-20" x1="2772.41" y1="-1540.68" x2="2968.3" y2="-1344.78" gradientTransform="matrix(0, 1, 1, 0, 1542.5, -1554.7)" xlink:href="#White_Black"/><linearGradient id="White_Black-21" x1="2832.66" y1="-1328.15" x2="2867.05" y2="-1293.76" gradientTransform="matrix(0, 1, 1, 0, 1542.5, -1554.7)" xlink:href="#White_Black"/><linearGradient id="White_Black-22" x1="2638.86" y1="-1324.48" x2="2827.43" y2="-1135.91" gradientTransform="matrix(0, 1, 1, 0, 1542.5, -1554.7)" xlink:href="#White_Black"/><linearGradient id="White_Black-23" x1="2675.36" y1="-1394.56" x2="2848.62" y2="-1221.29" gradientTransform="matrix(0, 1, 1, 0, 1542.5, -1554.7)" xlink:href="#White_Black"/><linearGradient id="White_Black-24" x1="2575.5" y1="-1478.42" x2="2575.52" y2="-1478.4" gradientTransform="matrix(0, 1, 1, 0, 1542.5, -1554.7)" xlink:href="#White_Black"/><linearGradient id="White_Black-25" x1="2578.17" y1="-1410.71" x2="2578.18" y2="-1410.69" gradientTransform="matrix(0, 1, 1, 0, 1542.5, -1554.7)" xlink:href="#White_Black"/><linearGradient id="White_Black-26" x1="2623.12" y1="-1330.7" x2="2623.12" y2="-1330.7" gradientTransform="matrix(0, 1, 1, 0, 1542.5, -1554.7)" xlink:href="#White_Black"/><linearGradient id="White_Black-27" x1="2634.44" y1="-1312.2" x2="2831.14" y2="-1115.5" gradientTransform="matrix(0, 1, 1, 0, 1542.5, -1554.7)" xlink:href="#White_Black"/><linearGradient id="White_Black-28" x1="2620.72" y1="-1309.76" x2="2798.33" y2="-1132.14" gradientTransform="matrix(0, 1, 1, 0, 1542.5, -1554.7)" xlink:href="#White_Black"/><linearGradient id="White_Black-29" x1="2834.8" y1="-1660.92" x2="2984.93" y2="-1510.79" gradientTransform="matrix(0, 1, 1, 0, 1542.5, -1554.7)" xlink:href="#White_Black"/><linearGradient id="White_Black-30" x1="2789.98" y1="-1529.86" x2="2952.12" y2="-1367.72" gradientTransform="matrix(0, 1, 1, 0, 1542.5, -1554.7)" xlink:href="#White_Black"/><linearGradient id="White_Black-31" x1="2732.23" y1="-1467.08" x2="2914.34" y2="-1284.97" gradientTransform="matrix(0, 1, 1, 0, 1542.5, -1554.7)" xlink:href="#White_Black"/><linearGradient id="White_Black-32" x1="2917.35" y1="-1594.5" x2="3123.38" y2="-1388.47" gradientTransform="matrix(0, 1, 1, 0, 1542.5, -1554.7)" xlink:href="#White_Black"/><linearGradient id="White_Black-33" x1="2996.57" y1="-1515.42" x2="3044.29" y2="-1467.7" gradientTransform="matrix(0, 1, 1, 0, 1542.5, -1554.7)" xlink:href="#White_Black"/><linearGradient id="White_Black-34" x1="2855.8" y1="-1615.32" x2="3019.67" y2="-1451.45" gradientTransform="matrix(0, 1, 1, 0, 1542.5, -1554.7)" xlink:href="#White_Black"/><linearGradient id="White_Black-35" x1="3012.18" y1="-1437.13" x2="3029.28" y2="-1420.03" gradientTransform="matrix(0, 1, 1, 0, 1542.5, -1554.7)" xlink:href="#White_Black"/><linearGradient id="White_Black-36" x1="2855.4" y1="-1604.4" x2="3013.68" y2="-1446.12" gradientTransform="matrix(0, 1, 1, 0, 1542.5, -1554.7)" xlink:href="#White_Black"/><linearGradient id="White_Black-37" x1="2731.05" y1="-1468.26" x2="2914.71" y2="-1284.6" gradientTransform="matrix(0, 1, 1, 0, 1542.5, -1554.7)" xlink:href="#White_Black"/><linearGradient id="White_Black-38" x1="2731.01" y1="-1468.31" x2="2914.73" y2="-1284.59" gradientTransform="matrix(0, 1, 1, 0, 1542.5, -1554.7)" xlink:href="#White_Black"/><linearGradient id="White_Black-39" x1="2782.07" y1="-1539.73" x2="2964.02" y2="-1357.78" gradientTransform="matrix(0, 1, 1, 0, 1542.5, -1554.7)" xlink:href="#White_Black"/><linearGradient id="White_Black-40" x1="2731.2" y1="-1468.1" x2="2914.66" y2="-1284.64" gradientTransform="matrix(0, 1, 1, 0, 1542.5, -1554.7)" xlink:href="#White_Black"/><linearGradient id="White_Black-41" x1="2838.84" y1="-1593.26" x2="3003.13" y2="-1428.97" gradientTransform="matrix(0, 1, 1, 0, 1542.5, -1554.7)" xlink:href="#White_Black"/><linearGradient id="White_Black-42" x1="2855.33" y1="-1604.44" x2="2939.49" y2="-1520.28" gradientTransform="matrix(0, 1, 1, 0, 1542.5, -1554.7)" xlink:href="#White_Black"/><linearGradient id="White_Black-43" x1="2789.01" y1="-1500.22" x2="2918.92" y2="-1370.31" gradientTransform="matrix(0, 1, 1, 0, 1542.5, -1554.7)" xlink:href="#White_Black"/><linearGradient id="White_Black-44" x1="2829.81" y1="-1362.19" x2="2904.41" y2="-1287.59" gradientTransform="matrix(0, 1, 1, 0, 1542.5, -1554.7)" xlink:href="#White_Black"/><linearGradient id="White_Black-45" x1="2812.79" y1="-1518.93" x2="2905.91" y2="-1425.8" gradientTransform="matrix(0, 1, 1, 0, 1542.5, -1554.7)" xlink:href="#White_Black"/><linearGradient id="White_Black-46" x1="2841.4" y1="-1590.84" x2="2934.49" y2="-1497.76" gradientTransform="matrix(0, 1, 1, 0, 1542.5, -1554.7)" xlink:href="#White_Black"/><linearGradient id="White_Black-47" x1="2854.9" y1="-1604.89" x2="3013.81" y2="-1445.98" gradientTransform="matrix(0, 1, 1, 0, 1542.5, -1554.7)" xlink:href="#White_Black"/><linearGradient id="White_Black-48" x1="2732.24" y1="-1467.07" x2="2871.81" y2="-1327.5" gradientTransform="matrix(0, 1, 1, 0, 1542.5, -1554.7)" xlink:href="#White_Black"/><linearGradient id="White_Black-50" x1="2991.48" y1="-1520.03" x2="3049.01" y2="-1462.5" gradientTransform="matrix(0, 1, 1, 0, 1542.5, -1554.7)" xlink:href="#White_Black"/><linearGradient id="White_Black-51" x1="3010.7" y1="-1500.67" x2="3029.68" y2="-1481.69" gradientTransform="matrix(0, 1, 1, 0, 1542.5, -1554.7)" xlink:href="#White_Black"/><linearGradient id="White_Black-52" x1="2932.57" y1="-1579.07" x2="3108.01" y2="-1403.63" gradientTransform="matrix(0, 1, 1, 0, 1542.5, -1554.7)" xlink:href="#White_Black"/><linearGradient id="White_Black-53" x1="2975.54" y1="-1535.89" x2="3064.88" y2="-1446.55" gradientTransform="matrix(0, 1, 1, 0, 1542.5, -1554.7)" xlink:href="#White_Black"/><linearGradient id="White_Black-54" x1="2851.24" y1="-1352.29" x2="2916.96" y2="-1286.57" gradientTransform="matrix(0, 1, 1, 0, 1542.5, -1554.7)" xlink:href="#White_Black"/><linearGradient id="White_Black-55" x1="2748.2" y1="-1499.58" x2="2935.06" y2="-1312.72" gradientTransform="matrix(0, 1, 1, 0, 1542.5, -1554.7)" xlink:href="#White_Black"/><linearGradient id="White_Black-56" x1="3044.32" y1="-1136.68" x2="3044.34" y2="-1136.65" gradientTransform="matrix(0, 1, 1, 0, 1542.5, -1554.7)" xlink:href="#White_Black"/><linearGradient id="White_Black-57" x1="2694.57" y1="-1679.47" x2="2987.09" y2="-1386.95" gradientTransform="matrix(0, 1, 1, 0, 1542.5, -1554.7)" xlink:href="#White_Black"/><linearGradient id="White_Black-58" x1="2777.16" y1="-1661.33" x2="3010.61" y2="-1427.88" gradientTransform="matrix(0, 1, 1, 0, 1542.5, -1554.7)" xlink:href="#White_Black"/><linearGradient id="White_Black-59" x1="2797.74" y1="-1496.59" x2="2949.63" y2="-1344.7" gradientTransform="matrix(0, 1, 1, 0, 1542.5, -1554.7)" xlink:href="#White_Black"/><linearGradient id="White_Black-60" x1="3041.81" y1="-1144.03" x2="3063.78" y2="-1122.06" gradientTransform="matrix(0, 1, 1, 0, 1542.5, -1554.7)" xlink:href="#White_Black"/><linearGradient id="White_Black-61" x1="2642.64" y1="-1327.58" x2="2831.84" y2="-1138.39" gradientTransform="matrix(0, 1, 1, 0, 1542.5, -1554.7)" xlink:href="#White_Black"/></defs><g class="cls-1"><g id="Layer_2" data-name="Layer 2"><g id="object"><rect class="cls-2" width="3021.26" height="1573.57"/><rect class="cls-3" x="1010.63" y="986.79" width="1000" height="300"/><g class="cls-4"><path class="cls-5" d="M2329.73,472.15c0-.08,0-.1,0,0S2329.74,472.23,2329.73,472.15Z"/><path class="cls-6" d="M2940.61,244.94c-18.54-7.53-39.09,3.4-55.53,14.81a562.88,562.88,0,0,0-92,80.09c-21.82,23.61-44.65,68.31-79,74.84-12.25,2.32-24.84,1.66-37.29,2.43-9.76.61-19.45,2.11-29.12,3.61-27.84,4.32-55.68,8.63-83.31,14.09-17.47,3.46-36.76,7.66-53.29,14.31-20.69,8.33-37.46,26.33-58.67,33.63,15.4-5.3,26.83-7.9,43.65-12.93,13.77-4.12,33-10.86,47-18.25l12.61-6.71c-3.34,4.08-8.36,6.22-10.86,11-2.22.91-6.17,1.91-5.69,4.9-5.06,4.26-11.18,6.17-17,9.17-2.1.61-4.17,1.28-6.29,1.86s-4.17.79-6.24,1.26c-2.37-.18-4.86-.19-7.22-.2-.94,0-3.22-.22-3.75-.22-1.56,0-8.25,1.87-3.36.43,5.37-1.58,16.91-4.2,21.88-4.26,18.84-.21,3.76,7.89-5,2.88-5.27-3-9.86-13.06-12.68-19.45-.36-.82-1.11-3.08-1.55-4.43-1-3.06-3.59-5.48-4.83-8.68s-.76-7.36-2-10.69c.73-1.61.25-2.22-.4-3.71a6.18,6.18,0,0,0,1.25-3.23c.38-11.33.86-22.17-.85-32.89-2.44-15.28,2.92-30.15-9.37-41.37-7-6.37-13.68-12.81-19.2-20.53-3.65-5.1-7-10.3-10.78-15.28a153.4,153.4,0,0,0-12-14.22c-3.1-3.18-7.34-6.38-10.11-9.87a55,55,0,0,0-10.39-9.62,29.73,29.73,0,0,0-12-9.48l-.72-1.43a49.1,49.1,0,0,0,4-3.65,10.59,10.59,0,0,0,1.28-1.93c2.85-5,10.81-9.54,14.16-13.18,13.86-15,17.65-25.93,38.46-30.36,1.18-.25,1.49-.06,2.47-.69-2-1.64-4.32-2.61-6.46-4-.28-.18-.52-.47-.8-.66a43.48,43.48,0,0,0-9.26-4.73,26.86,26.86,0,0,0-7.64-3.05c-10.83-2.51-19.45.73-28.75,6.12a70.84,70.84,0,0,0-10.13,7c-6.28,5.18-13.26,7.12-20.16,11.93-4.86,3.38-8.88,7.89-12.77,13.35-2.87,4-6.06,10.66-10.45,14-.31-.11-.5-.31-.85-.28a9.11,9.11,0,0,0-7.22-2.09c-1.24.54-2,.18-2.86-.76-1.08-2.72-2.8-4.43-4.95-6.4-.28-.26-.53-.41-.5-1,.07-1.39-.09-2.87,0-4.37a222.45,222.45,0,0,1,3.69-22.76s-.2-.12-.19-.15.2.13.19.15c.76-3.84,2.51-6.36,1.17-10.12,9.64-14.66,18.17-26.65,29.6-42.34,8-14.86,19.93-28,30.66-40.9,4.58-5.48,9.29-13.25,14.91-17.65,8.79-6.89,20.4-9,29-16.93,8.94-8.31,14.89-19.81,25.11-26.51,5.58-3.66,12.36-5.83,16.58-11,1.31-1.61,2.32-3.92,1.26-5.7-.76-1.28-2.32-1.82-3.79-2.11-8-1.59-16.37,1.36-23.16,5.92s-12.38,10.66-18.31,16.29a172.23,172.23,0,0,1-33.72,25c-3.62,2.06-7.42,4-10.14,7.21-2,2.26-3.27,5-5.21,7.31-7.06,8.26-17.19,4.09-26.42,6.23a13.25,13.25,0,0,0-4.3,1.62,12.37,12.37,0,0,0-4,4.72c-2.1,3.91-4.41,8.3-6.05,12.23s-1.1,5.51,1.65,8.34c-12.64,14.72-23.64,29.84-31.88,47.46-6.42,2.8-11.8,4.82-18.35,8.18-8.83,4.52-22.13,12.18-28.23,19.1-4.9,5.55-1,2.25.54,5.32.45-.11.47.23.81.17a2.62,2.62,0,0,0,2.43,1.16c2.59,1.54,4.71,3.77,7.39,5.11,3.95,2,5.92,5.47,9.63,7.67-1.05,2.12-1.52,2-3.68,3.23-14.89,8.59-24.75,20.69-34.11,35.19-1.91,2.95-3.09,6.86-5.62,9.56a12.06,12.06,0,0,1-1.92,1.55,8.69,8.69,0,0,0-2.65,2.75A114.38,114.38,0,0,0,2238.76,307a116.87,116.87,0,0,0-16,27.1c-5.87,12.81-9.61,24.74-8.4,38.95,0,1.1,0,2.32,0,3.41a42.65,42.65,0,0,0,1.78,14.57c.62,2,1.7,3,2.42,4.83-1.68.32-3.32.32-4.85,1.18-7.21,1.19-14.47,2.27-21.59,3.87-10.36-.53-19.52.51-30.07-2.29-2.26-.6-6-6.91-5.31-9.93,1.37-6.18,4.54-11.55,6.12-17.6.66-1.8,1.38-3.41,2-5.26a221,221,0,0,0,6.48-21.8c1-1.61,1.82-3,1.7-5,.57-1.86,1.1-3.77,1.69-5.62.08-.24.39-.41.45-.61a1.12,1.12,0,0,0,0-.56c1.31-2.7,1.28-4.14,2.3-7.07,6.25-17.88,8.73-31.47,15.49-50.69,10.05-28.58,26.92-58.91,43.18-85.24,2.07-3.36,3.5-5.42,5.36-8.24.85-1.29,1.71-1.87,2.43-2.91,1.23-1.76,2.13-3.25,3.28-5,4-4.26,7.26-9.15,11-13.64,1.62-1.95,3.19-4,4.93-5.79a76.65,76.65,0,0,0,8.94-10.38c-4.23-.25-6,2.57-8.65,5.45,0,.05,0-.06-.11,0s.1.09-.14.07-.55-.27-.9-.25c-2.11.13-3.37,1.89-5.12,2.87a125.24,125.24,0,0,0-26,19.66c-.29.28-.52.69-.76.95-2.48.35-3.11,1-4.84,2.77-8.71,9.08-13.69,13.27-22.72,24.11-13.51,16.19-28.5,36-40.15,55.44-10.24,17.1-19.63,37.94-29.1,55.35-4.6,8.45-6.82,15-9.63,23.67-.77,2.63-3.36,2.33-5,2-8-1.55-14.47.78-22,1.47-1.77.17-2.71-.6-4.39-.75s-3.48-.57-5.18-.85c-.41-.07-.84-.15-1.25-.25a40.33,40.33,0,0,0-8.36-1.59c-.3-.24-.61-.19-1-.25-2.39-.4-4.74-.82-7.13-1.27a14,14,0,0,1-2-.38c-.71-.23-1.26-.08-2-.59-2-1.38-3.05-2-4.46.57a5.2,5.2,0,0,0-.49.83c-3,8.58-3,16.05,1.79,23.87,5.17,8.42,11.42,15.2,18.22,22.19,1.14,2.1,3,3,5,4.27a13.68,13.68,0,0,0,4.55,2.23,59.55,59.55,0,0,0,9.52,3.65c-.26.51-.53,1-.8,1.51-1.86,1.1-3.55,2.15-5.76,2.32a5,5,0,0,1-2-.2c-4.86-1.66-9.61-3.62-14.58-4.83-5.88-1.8-10.86-4.07-17.06-4.93-12.24-1.72-21.54-2-35.29-2.54-4.33-.18-20.39-.71-24.38-6.27-.38-.53.15-.9.42-1.31a21.15,21.15,0,0,0,3.18-6.88,5,5,0,0,0,3.59-3.73c0-.07-.15,0,0-.24a9.69,9.69,0,0,1,.71-.92c1.41-1.69,2.67-3.75,4.13-5.4,4.63-5.22,8.89-10.61,13.06-16.11,2.09-2.76,3.43-3.67,5.81-6.66,19.16-24.11,34.06-52,49.56-78.64,5.2-4.45,7.12-7.57,10.91-13.9,6.48-10.81,15.94-25.47,23.33-35.26a73.65,73.65,0,0,0,7.38-11.26,151.56,151.56,0,0,0,9.14-13.2c.68-1.12,1.15-1.86,1.8-2.92a13,13,0,0,0,3.94-5,2.12,2.12,0,0,0,.22-.9c0-.28-.27-.23-.43-.15a39.07,39.07,0,0,0-8.5,5.74,1.62,1.62,0,0,0-.9.54,40.29,40.29,0,0,0-7,4.53,120.45,120.45,0,0,0-18.3,16.63,60,60,0,0,0-8.87,9.23,109.18,109.18,0,0,0-11.68,11.38,19.38,19.38,0,0,0-2.38,2c-6.31,6-32,27.21-35.3,29.92-14.51,11.75-23,18.95-32.5,28.4-9.95,9.88-14.48,15.22-24.14,23.66a12.11,12.11,0,0,0-3.71,3.73c-.7,1-1.93,1.94-2,3.31-3.08,2.2-4.58,4.62-7.07,7.61a25.57,25.57,0,0,0-4.34,7.05c-4.6,11.1-8.08,20-12.83,32.69-.91,2.42-9.48,20.95-4.76,24.8-1.15.84-2.09.76-3.17,1.23a62,62,0,0,0-11.5,2.39,24.59,24.59,0,0,0-8,1.43,7.84,7.84,0,0,0-4.06,1c-1.33.31-2.68.59-4,.92-9.68,1.16-18.63,3.94-28.24,6-3.81.8-7,1.77-11-.48s-10.45-8.06-10.87-12.94c-.5-5.92,4.61-7.46,8.06-10.64,3.86-3.55,7.74-7.46,12.19-9.65a23,23,0,0,0,5.55-3.45c1.1-.92,2.39-.59,3.21-1.91,1.68-.75,3.42-1.85,5.1-2.55,1.14-.47,3-.42,3-1.95-.11-2-2.12-1.84-3.57-2.38-2.47-.92-2.49-.86-5.59-1.1-7.88-.62-17-2.75-24.94.58l-3.92-.19-5-.24a2.56,2.56,0,0,1-.94-2.08,9.11,9.11,0,0,0-1.94-8.2c-.18-.23-.53-.51-.4-.83.36-1,1.46-1.21,1.25-2.41,0-.26-.79-.53-1.09-.39-1.26.58-1.4,1.42-1.28,2.73-.31.27-.6.57-.92.82-.3-.55-.76-1.43-1-1.92-1-1.9-1.69-1.15-3.11-.14-.65-.07-1.33,0-2-.09-1-.21-2-.73-2.94-.94-.18,0,.19.51-.11.42s.92-.2-.33-.52a69.57,69.57,0,0,0-6.92-1.62c-2.61-.08-2.52.73-3.6,2.22-.33.46,0,.86-.24,1.27-.72,1.06-1.79,1-2.91,1.35a8.85,8.85,0,0,0-5.32,4.29,23.82,23.82,0,0,0-2.15,6.73,6.11,6.11,0,0,0-.11,3.36A6.65,6.65,0,0,0,1833,356a10.51,10.51,0,0,0,4.63,1.3,5.07,5.07,0,0,0,4.07-2c1.33.31,2.67.67,4,1,.4.1.84.29.92.69s-.18.59-.4.82c-1.71,1.73-3.42,3.42-5.13,5.14-2.08,0-3.69-1.23-5.45-2.08-5.12-2.47-10.31-4-15.53-6.26-6.46-2.75-11.78-7.76-18.06-10.88-11.87-5.89-23-13.23-35.55-17.7-5.32-1.88-5.3,14.51-4.39,17.91,1.27,4.76,2.12,9.87,4.12,14.4,4.89,11.07,11.17,19.94,20.43,27.69,4.56,3.83,8.33,8,12.57,12.13a30.61,30.61,0,0,0,7.2,5.61c2.22,1.17,6,1.87,7.77,3.56s3.18.94,5,1.54c2.74.89,4.44,1.46,7.15.4,1.62,1.78,4,1.86,5.88,3.25a5.28,5.28,0,0,1-.28.85c-1.72.33-2.33,1.1-2.38,2.84a17.76,17.76,0,0,0-7.28,10.64,22.78,22.78,0,0,0-1.9,6.84c-.28,2.38-1.17,4.48-1,6.88,4.84-2.49,9.22-5.83,14.23-8s10.13-3.8,15.08-6.16a11.85,11.85,0,0,0,4.16-2.8,9.8,9.8,0,0,0,3.43-4.77,2.06,2.06,0,0,0,.77-.18c1.17,4.72.38,9.22.1,14,0,.67-.07,1.31-.16,2a26.06,26.06,0,0,0,1.22,13.13,6.86,6.86,0,0,0,2.86,4.14,8.48,8.48,0,0,0,2.89,3.06c.62.38,1.2.79,1.87,1.15,11,5.83,22.76,10.4,34.16,15.09,3.05,1.26,6,3,9,3.54,15.88,2.75,30.24-1,45.89-3a45.41,45.41,0,0,0,13.6-4.25c.27.08.57-.06.82-.05,1.67,0,2.7-1,4.11-1.67a4.58,4.58,0,0,0,2.23-1.7,7,7,0,0,0,4.07-2.94A4.22,4.22,0,0,1,1981,460a11.4,11.4,0,0,0,4-3.69c.56-.85,2.26-1.36,1.45-2.52s-2.35-.29-3.18.49c-.67,0-1.32,0-2,0-4.14-.27-8.27-.59-12.4-.86-.87-.06-1.73-.08-2.6-.12-4.71-1.55-9.41-1.27-14.3-1.51a7.85,7.85,0,0,1-1.79-.46,133.33,133.33,0,0,1-25.58-9.8c-2.31-1.21-4.47-2.67-6.75-3.93a63.32,63.32,0,0,1-4.15-7.91,39.49,39.49,0,0,0,14.91-8.18,10.26,10.26,0,0,1,1-.95,13.79,13.79,0,0,0,4.18-4c1.38.1,2.33-.75,3.38-1.43a25.79,25.79,0,0,1,3.11-1.78,37.3,37.3,0,0,0,7.33-4.76,8.25,8.25,0,0,0,3.19-2.76,10.3,10.3,0,0,0,4.07-3.87c.67-1,1.49-1.91,2.21-2.9l3.49-4.76c1.3-.93,1.93-2.29,3.62-2.53-.15.91-.12,1.62.83,2,3,1.32,5.68.73,8.84.06a11.27,11.27,0,0,0,6.3-3.38c.37-.39,1-.68,1.38-1,1.79.69,2.64-.11,3.68-1.53,1.55-.67,3.12-1.31,4.67-2a70.85,70.85,0,0,1,9.08-.78,9.37,9.37,0,0,0,5.68.8c1.17,5.38,3.65,7,9,7.43-.07,0-.12-.27-.1-.31s.25.1.26,0-.06-.57,0-.56,0,.48,0,.57-.11.27-.18.27a12.37,12.37,0,0,0,7.88-.41l1.79.44c-2.28,2.3-5.05,3.92-7,6.58-.38.53-.89,1.26-1.29,1.72a12.19,12.19,0,0,1-1.17,1.06,39.69,39.69,0,0,0-7.8,9.38,74.81,74.81,0,0,0-7.21,11.51,4.16,4.16,0,0,0-1.34,2.79c-1.33,1.7-1.55,3.51-1.89,5.58a21.79,21.79,0,0,0-2.07,8.13c-.17,1.65-.6,3.2-.78,4.84-1.57,14.63,1,27.42,5.75,41.29,3.88,11.44,7.64,22.87,15.63,32a9.47,9.47,0,0,0,11.5,1.9c6.77-4.26-4.41-6.36-7.64-8.08-2.45-1.3-5.42-3.5-5.23-6.69.35-5.85,5.47-9.11,7.68-14.36,2.79-6.63,7-12.75,10-19.38A195.55,195.55,0,0,0,2042,438.91c.1-.38.12-.72.22-1.1,1.12-4.68,4.43-9.4,5.52-13.88,1.84-7.56,1-14.54,1.42-22.05a15.4,15.4,0,0,1,.08-2.81s-.33,0-.31-.1.3.12.31.1c.38-1.6,1.17-3,1.6-4.54,1.3-1.2,2.59-2.43,3.86-3.64,0,.09-.29,0-.32,0s-.12-.18-.06-.19.34.06.38.15.32.34.44.26c4.44,2.13,9.23,2.63,13.87,4.14.88.29,1.31-.35,1.66-1.07.91.62,1.68,1.49,2.59,2.08a9.09,9.09,0,0,0,4,1.23,6.25,6.25,0,0,1,1.69.53,59.73,59.73,0,0,0,10.24,4c-1.62,4.45-3.25,8.86-4.87,13.33-.12.33-.22.6-.34,1-3.12,11.8-4.17,22.31,1.43,33.46.51,1,1,1.54,1.51,2.4a13.42,13.42,0,0,0,3.18,3.83c.78.7,1.47,1.4,2.22,2.11.39,1.35.64,2.77,1.08,4.1a19.1,19.1,0,0,0,1.18,2.54c8-5.93,11-19.89,14.72-27.87,1.28-2.72.5-.53,1.31-2.55,3.39-6.27,6.74-12.92,10.89-18.91a47.31,47.31,0,0,0,3.13-4.52c1.32-2.51,2.67-4.09,5.64-4a8.84,8.84,0,0,1,1.9.6c2.77.68,4.59,1.45,7.72.76,2.73-.6,8,.64,10.48,1,8.88,1.42,16.61,2.12,25.23,2.7.64.05,1.26,0,1.85,0,1,0,2.16.14,3,.16s1.48.09,2.21.05c14.08-.71,27.87-3.27,41.9-4.36.57-.05,1.25-.21,1.66.34,1,1.44-.09,2.81-.91,4.09a76.62,76.62,0,0,0-12.55,39.83c-7.86-7.58-13.74-16.24-19.33-25.56-1.83-3.06-3.55-6.13-5.43-9.09.8,2.66-.77,7-.92,9.24a64.34,64.34,0,0,0,.27,11.28,45.41,45.41,0,0,0,4.95,17.35,7.68,7.68,0,0,0,1.62,4c7.67,8.66,16.35,15.5,25.14,23,3.24,2.78,5,6.9,8.26,10s7,5,11.09,8c.47.35,4.78,4.36,6.34,3.66.79,1.39.84,2.24,2,.31.66-1.15-.76-2.94.94-4.2s8.66,1.32,8.92,3.31c1.21,9.49-7,15.83-11.54,22.12s-7.29,10.72-11.41,16.56c-1,1.38-1.64,2.54-2.62,3.82s-1.76,2.81-3.24,3.47c-6.9,3.08-12.78-1.14-17.68-5.23-7.65-6.39-14.89-10.6-23.28-15.23-5.65-3.12-10.85-5.67-16.61-8.91-4.56-2.57-9.4-6-14.7-7.34l-2.16-1c-1.29-1.46-3.1-2.2-4.68-3.24a32.12,32.12,0,0,1-3.22-2.7,21.72,21.72,0,0,1-2.56-2.4,18.61,18.61,0,0,1-2.21-3.06,85.14,85.14,0,0,1-5.87-12.72c.18-5.41.37-10.82.52-16.24a14.92,14.92,0,0,0-.17-1.88l-.73.14a1.17,1.17,0,0,0-.37.11,4.57,4.57,0,0,0-2.09,2.82,3.37,3.37,0,0,0-.79,3.11,14.6,14.6,0,0,0-1.25,6.69c.05.6,0,2.33,0,2.33s.35.32.3.34-.3-.34-.3-.34-1.11,2.86-1.58,3.8a19.84,19.84,0,0,0-2.07,8.72c0,.91-.1,2-.15,3a28,28,0,0,0,.6,7.95c.08.33-.11.67,0,1,2.15,9.74,6.44,17.43,12.53,25.27.4.53.56,1.23,1,1.74,1.2,1.44,2.78,2.58,3.94,4a23.61,23.61,0,0,0,5,5,110.38,110.38,0,0,0,22,16.26l3.86,1.38a4.42,4.42,0,0,0,3.2,1.76,10.73,10.73,0,0,0,5,1.29s0-.07,0-.08c4.31,1.51,8,2.46,12.51,1.31a2,2,0,0,0,.73,0c2,1.43,3.9,1.06,6.21,1a4.86,4.86,0,0,0,3.14-.64c1.87,0,3.49.12,5.15-.86,3.31-.46,6.21-1.82,9.3-3l1,1.09c-.76,1.21-1.52,2.42-2.27,3.63-5.13,1.72-9.16,4.87-13.57,7.91a1.89,1.89,0,0,0-1,0c-2.63-1-4.63-1.42-7.2,0a5,5,0,0,0-3.14,1.73c-3.92,4-6,8.31-7.66,13.58a11,11,0,0,0-1.52,4.86c-.3,1.76-2.87,3.85-1,5.44,1.43,1.2,4-1.11,5.48-1.76.23-.1.47-.47.89-.48a15.67,15.67,0,0,1,1.75.3c-.23,2.06-.94,4.12-.88,6.2,0,1.35,1,1.33,2,.54s2.16-2,3.22-2.8c2.82-2.18,5.13-4.76,8.32-6.42,0,.19,0-.33,0-.3s0-.26,0-.26.06-.15.06,0-.07.36-.09.55a13,13,0,0,1,0,1.65c-.81,3.43-1.29,6.61-.5,10.12a28.49,28.49,0,0,0,2.81,12.47c-1.37,3.17-2.68,5.58-1.49,9a4.43,4.43,0,0,0,2.05,3.08c1.23.89,2.63,2,3.89,2.94,0,.66,0,1.32-.09,2-3,1.76-4.68,3.18-3.84,6.94,1,4.57,1.5,8.23,6.4,10,0,.1,0-.17,0-.11s0,0,0,0-.08,0-.08.09a6.54,6.54,0,0,0,0,.88c2.38.1,4.77.14,7.15.19.15-.26-.15-.71.13-.89s.62,0,1,0c1.54-.05,2.79.16,4.14-.85.93-.7,2.12-1.19,3.1-2,2.16-1.69,3.11-2.88,3.36-5.94.13-1.61-.46-5.2,1.39-6.38,1-.64,1.81-.35,2.87-.18,3.62.61,6.73,1.6,10.19-.14a13.49,13.49,0,0,0,5.32-1.45,12.76,12.76,0,0,0,5.4-1.86,12.61,12.61,0,0,1,2-.94,52.09,52.09,0,0,0,11.35-5.72c1.18-.83,2.62-1.51,2.52-3.11-.07-1.2-1.61-.78-2.42-.85-1.36-1.24-2.34-1-3.89-.21-6.69-7.2-16.5-9.78-25.05-13.4a11.88,11.88,0,0,1-2.42-1.37,15.12,15.12,0,0,1-2.32-1.9c-6.88-5.91-14.07-11.26-21.25-16.74a7.05,7.05,0,0,1-2.52-2.57,7.34,7.34,0,0,1,.07-6.23c5.5-12,13.3-22.46,20.72-33.36,1.76,4.38,2.33,8.82,5,12.81-3.58-1.17-8.52,4.45-9.5,6.64-2.51,5.6-1.5,8.82.68,13.67,1,2.27,2.7,2.77,4.49,4.65.47.5.17.19,1.74,1.39s8.74,7.29,11.82,4.43c0,.61-.22,1.57.56,1.63,13.56,1.1,25.63-1.7,37.72-7.43,10-4.74,17.28-10.75,24.95-18.43a9,9,0,0,0,2.25-3.83c1.31-1.39,1.62-3,2.33-4.72a30.1,30.1,0,0,0,2.06-7.08,14.2,14.2,0,0,1,.35-2.79c.55-1.5,1.61-2.79.38-4.28-.58-.72-1.39.31-1.81.93s-1.26,1.48-1.75,2.16c-1-.11-1.39.63-2.08,1.11-2.39,1.65-4.89,3-7.26,4.6-6.58,2.17-12.07,4.53-19.11,5.62-8.32,1.29-15.39,1.49-24.74,2.39-4.27.41-15,2.66-19.32-.78-3.11-2.5-2.49-5.24-4.52-8.08.19-.92-.14-1.85,0-2.77.29-1.69.83-3.31,1.19-5l2.34-3.8s-.08,0-.08,0,0-.05,0,0,0,.06.05.08c.6.37,1.25.63,1.83,1.07,7.7.62,13.84,4,21.77,1.45,5-1.61,9.5-5.75,12.89-10.25,4.05-5.36,6.22-11.3,5.41-18.14a31.17,31.17,0,0,0-6.27-15.38c-.72-1-2-1.82-1.86-3.36.3-3.12,4.65-4.37,6.39-6.16,2.85-2.92,3.59-5.52,4.72-9.19,1.28-4.18,1.45-7.83-.76-11.75-.14-.63-.25-1.25-.39-1.88.62-2,1-4.09,1.7-6.1.52-1.51,1.3-2.85,1.93-4.35.32-.77.58-1.41,1-2.27a31.89,31.89,0,0,1,1.51-3c.27-.42.84-.75,1.16-1.14,1.3.24,2.53.67,3.82.93.92.19,1.88.19,2.81.33.23,3.24,2,4,4.82,5.11a15.07,15.07,0,0,0,6,3.51c.25.3.6.5.92.84,4.36,4.66,12.57,7.14,18.12,8.16,9.92,1.83,18.82,1.49,28,.78,24.39-1.89,47-5.67,68.73-16.93a2.9,2.9,0,0,0,1.51-2.45c-1.21-.35-1.87.12-3.11.29-1.71.24-3.6.15-5.39.24-4.4.2-8.9.39-13.29.66-5-1.52-9.55-2-14.69-3.78-7.62-2.63-13.68-9.05-19.76-14.11-7.57-6.31-13.73-10.55-21.72-17.11-4.8-3.95-11.21-11.18-18.1-13a7.34,7.34,0,0,0-4.56-5s0,0,0,0,0,0,0,0c3.28-7.26,8.27-14.16,15.25-17.51a26.54,26.54,0,0,1,12.11-2.72c12.89.29,24.78,3.66,37.17,4.56,3.7.27,6.2.52,9.41,1.93,24.28,10.64,45.26,26.55,66.64,42.06a12.63,12.63,0,0,1,3.62,4.72c.9,1.82,1.14,4.23,1.94,6.1,1.85,4.3,4.87,6.73,9.47,6.29,1.39-.14,2.33-.89,3.41-.85a4.34,4.34,0,0,1,2.71,1.25c7.07,7.63,12.24,20.61,18.47,27.5s8.61,6.33,16,3.8c3.36-1.15,1.76-5.25,5.63-6.89,3.14-1.32,3.87.61,10.29-.14,8.87-1.05,26.8-2.89,37.21,1.25,1.92.77,3.49.93,5.23,1.57.16,1.07,0,1.82,1.11,2.33.37.69.74,1.37,1.1,2.06-.37,1.95.25,3.32,1.08,5.05,2.58,22.47,4.24,45.2-1.88,67.35-1.41,5.07-2.88,11-4.64,16.11-1.6-4.56-3.37-9-5.37-13.43a24.64,24.64,0,0,1-2.08-5.5c-.54-3,0-5.76.24-8.77.73-9.91.26-19.8,1.51-29.74a22.3,22.3,0,0,1,2.37-6.84c.57-1.18.27-2.33-1.44-1.86a12.71,12.71,0,0,0-6.6,1.32,18.4,18.4,0,0,0-7.18,4.47c-2.6,2.4-4.45,4.87-6.84,7.4a1.92,1.92,0,0,1-2.47.35,2,2,0,0,1-.66-.94c-2-4.23-4.12-8.56-6-12.79-1.17-2.61-2.77-5.36-3.62-7.9-2.5-7.56-2-14.8-3-22.6-.12-1,.3-2.8-1.57-2.32a4.6,4.6,0,0,0-2.52,2.35c-6.09,10.55-12,17.79-13.77,30.76-2.07,15.42-.54,32,5.65,46.94a12.35,12.35,0,0,1,1.29,3.19,10.84,10.84,0,0,1-.56,3.31c-2.73,13.88-1.11,27.45-1.15,41.48,0,5.5-1.11,10.93,0,16.42a6.6,6.6,0,0,0,.85,3.51c-.28,1.71.3,2.91,1,4.42,1.9,4.3,3.75,7.85,7.58,10.72-3.57,1.56-7.2,3-10.76,4.6a65.58,65.58,0,0,0-8.42,4.12,78.64,78.64,0,0,0-10.94,8.84c-4.43,4.08-8.77,8.23-13.19,12.29-.29-2.47-1-4.62-3.2-6a6.94,6.94,0,0,0-6.79-.35,10.44,10.44,0,0,0-3.4,2.79,14.77,14.77,0,0,0-3.49,4.63c-.73,1.86-1.22,3.78.25,5.51,2.83,3.33,9,4.31,12.66,5.06,6.69,1.37,11.15.45,17.43-.7a18.24,18.24,0,0,0,7.22-2.82,39.84,39.84,0,0,0,12.39-7.06c8.29-5.55,15.49-12.38,23.22-18.65,1.21-1,2.4-2,3.59-2.94a3,3,0,0,1,.26.21c.39.31.63.6,1,.92,1,.82,1.67,1.36,2.25-.34s1.14-3.86,1.73-5.64c.39-.34.77-.55,1.17-.89a4.64,4.64,0,0,0,1.78-2.82c.76-2.75,3.32-6.2,4.42-8.58,2.28-4.92,4.06-9.41,6.18-14.06,4.07-8.91,8.18-17.47,12.56-26.19a14.5,14.5,0,0,0,1.05-2.42,20.64,20.64,0,0,0,.45-2.65c1.87-13.29,7.33-27.2,9.69-40,2.77-15,1.49-27.89.2-42.65a2.52,2.52,0,0,1,.72-2.42c2.84,1.29,7.51,4.91,8.73,7.31,2.14,4.22,6.79,6.21,9.19,8.63,4.29,4.32,6.61,7.22,10.67,11.05,8.06,7.59,15.76,14.2,26,19.16,4.81,2.33,10.52,3.24,15,7.17,2.76,2.45,5.21,6,8.07,8.87,11.13,11.07,22.57,20,38,24.36,9,2.56,17.85-1,26.84-2.82,13-2.65,25.58-5.39,38.6-8.89s24.74-9.24,34.79-18.48c-9,2.72-18.29,5.5-27.61,3.43-11.74-2.6-19.34-8.29-29-15.24-12.12-8.68-23.25-17-35.39-27s-26.53-19.22-42.65-22.77c-7.17-1.57-15.29-1.48-22.49-2.65a308.26,308.26,0,0,0-40.91-3.33c-5.94-.09-2.52,3-6.75,2.52s-3.58,1.82-5.89-4c-4.07-10.22-15.5-11.56-26.19-10.82-13.16.9-26.49,1.75-39.51,2.94-1.2.11-2.07,0-3,.06s-1.18,0-2,.09a59.31,59.31,0,0,0,9.41-2.51c2.32.18,4.29.6,6.69.7,11.14.44,23,.72,34.1,1.52a179.12,179.12,0,0,1,36.39,6.65c.45.14-16.8-7.86-18.38-9.15-5.77-4.72-9.72-7-10.85-14,46.89-8.12,98.36-15.58,145.05-16.08,31.24-.34,63-.73,90.11,1.62,43.68,3.79,77,16.45,117.46,26.13,4.31,1,6.16,1.21,10.3.22,1.83-.43,3-1.4,2.73-3.31-.84-5.7-9.65-7.45-13.61-8.34-17.65-4-28.36-6.18-46.64-11.39-36-10.24-80.48-22.12-114.71-34.07-7.49-2.61-16.24-2.11-21.52-8.09,17.39-23.51,29.95-47.78,53.12-67,23.53-19.53,51.36-33,78.41-47.27C2907.89,277.59,2929.16,265.19,2940.61,244.94ZM2214,654.47Zm20-23.3v0ZM2231.2,634Zm0,0h0Zm15.6-9.34h0Zm-19.74,9h0s.09,0,.09,0-.08.06-.1.05S2227.06,633.67,2227.06,633.67Zm19.74-9h0Zm-41.44-19.73a.35.35,0,0,1,0,.2s-.14-.07-.14-.1S2205.33,604.92,2205.36,604.94Zm44.24-24.75s0,0,0,0l0-.05S2249.59,580.18,2249.6,580.19Zm19.51,14.24v0a.14.14,0,0,1,0,0S2269.11,594.44,2269.11,594.43Zm320.27-94.21h-.06l.06-.06s0,.05,0,.05Zm-458-8.74Zm-42-40.63h0Zm573.27-50.72h0s0-.06,0-.08.2,0,.2,0ZM2768,429.38c-.78-.06-2.24.59-2.88,0-.4-.39-.08-.09,0,0-2.73-2.67-9.53-1.35-11.46-.07s-.45.69-.79.57c-.82.52-3.08,0-3.74,0s0,0-.25.06.08,0-.22,0c-5.16-.53-14.17.56-18.35.48-3.15-.06-1.09-.16-1.25-.05-7.71-.91-15.87-.13-23.67.32-2.1.12-4.72.09-6.69.24h0c-4.22-3.65-13,.82-16.41,2.08-2.29.84-.78.28-.8.28a2.52,2.52,0,0,0-1.34.18,39.38,39.38,0,0,0-9.49,1c-1.21.29-.37.12-.65.2-5-.4-15,.22-18.74,1.5-3.19,1.09-1,.7-1.26.5-6.85,2.82-14.5,2.22-21.75,4a11.91,11.91,0,0,0-7,1.43c-1.75-.94-3.42-.24-5.2.17s-3.53.76-5.3,1.16a12.33,12.33,0,0,0-4.39.62,3.21,3.21,0,0,1-1.61-.89,50.21,50.21,0,0,0-13.15,2.31c-.52.15-.83.71-1.31.77s-1.12-.39-1.77-.47c2.3-1.28,3.81-6.24,1.82-7.34-1.61-.89-1,0-.71-.3-1.55-1.67,1.19-4.27,2.23-5.81a28.57,28.57,0,0,1,3.2-2.36c.66-.38.2-.09.25-.14a47.25,47.25,0,0,0,7.23-1.07c3.21.88,6.29-.44,9.09-1.72a52,52,0,0,1,6.82-2.39c1.43-.36.4-.06.64-.17,2.85,0,7.65-1.79,9.74-2.8,1.59-.76.56-.31.62-.3a38.36,38.36,0,0,1,12.1-2.42c.11.1.07.23.22.29a5.12,5.12,0,0,0,1.91.3,3.45,3.45,0,0,0,1.34-.21c3.39,1.68,8.52-1.3,10.09-3.26,1-1.31,0,0,.36-.54s0-.07.09-.12c3.15-1.69,5.07-4.36,7.46-7,1.39-.19,3.73-.43,4.85-.66.62-.14,0,0,.23-.06s0,0,.16-.07c3.52,2.74,10.69.78,13.28-.77,1.71-1,0,0,.62-.43s0-.07.18-.1a13.38,13.38,0,0,0,3.29-.36l.13,0c.15,0,0,0,.13,0,1.83,2,7,.21,8.36-.3s.25-.23.81-.13c7.84-3.7,21.52.87,27.54,3.11,4.64,1.73,1.61.64,1.79.68,3.15,1.13,7,1.93,10.45,2.91,3.44,1.7,7,2.46,10.72,3.35,2,.28,3.9,1.08,6,1.15.2.3.78.25,1.11.26h0c1.21,1.37,4.23,2.08,5.54,2.19l.34,0c.31,0,0,0,.08,0,1.34,1.73,3.41,2.15,5.26,3.15.57.31.6.77,1,1.3a4.87,4.87,0,0,0,1.68,1.37,5.09,5.09,0,0,1,3,2.93,6.24,6.24,0,0,0,.65,1.29C2769.44,429.25,2768.77,429.44,2768,429.38Zm-184.78,41.81.17,0h-.17Zm136.12-38.6h0ZM2760,417.4h0l0,0Zm21.67,9.35Zm-190.25,46.81h0Zm0,0Zm-.5-.58-.07,0,.18,0Zm-10.54-15.7c-.05,0-.21.08-.24.05s.14-.15.18-.16,0,.09.06.1h0Zm16.14-36.1,0-.05s0,0,0,.05ZM2511.77,471h0Zm79.7,2.57h0l.12,0Zm188.76-102.19h0Zm85.34-94.07.08,0h0s-.11.17-.14.17S2865.56,277.33,2865.57,277.31ZM2754.83,392.57a.46.46,0,0,1,.14-.07s0,.05,0,.05Zm-241.07,80.56h-.1s0,0,0,0Zm-236.64,47.55h0s0,0,0,0Zm-29.74,10.25s.13,0,.15,0,0,.16-.05.15S2247.37,531,2247.38,530.93Zm167.9-144.78a.36.36,0,0,1-.12.08s-.06-.14,0-.14h0S2415.28,386.12,2415.28,386.15Zm-27.71-4.66h0s0-.11.06-.1a.31.31,0,0,1,0,.19s0-.08,0-.09Zm-27.24-7.7s0,0,0,0,0,0,0,0S2360.34,373.78,2360.33,373.79Zm63.34-78.4c1.9,1,.64.33.74.39.53.91.16,2.21,1.35,2.93,2.34,1.42,6.49,5.75,7.31,7.63s.14.73.3.77c1.34,3.15,3.86,4,7.1,4.79.07.11.05.25.14.34a3.94,3.94,0,0,0,2.6,1.4c.18,0,.31-.12.48-.15a2.77,2.77,0,0,0,1.72,2.43c.19.1.45,0,.6.05s0,0,0,.09a10.37,10.37,0,0,0,4.09,5.05,24,24,0,0,0,4,6.63c.76.77,0,0,.3.28s0,0,.12.12c-.29,1.74,2.59,3.6,3.31,4.34s.14.22.28.41c1.58,1.72,5,6,5.46,7.7s-.11.65.12.7c.3,7.59,5.63,9.88,11.73,13.31,1.12,1.15,3.58,3.19,3.77,4.55.14,1-.15.55.05.45-.48.17-.33,1.43-.08,1.57h0c.24.13,0-.07.06.07-1.26,1.31.38,3.54.8,4.4s.1.31.18.41c-1.26,2.69-.58,6.48.25,8.83.4,1.17.22.51.19.52h0c-.66.5-1.68,3-1.33,3.46s.28-.05.16.21c2.67.73-.54,5.85-1.16,7-.28.51,0,.3,0,0-.74,1.33-1,2-1.57,3a21.66,21.66,0,0,0-3.31,10.54c-1.83.57-1.67,5.66-1.15,6.48h0c.52.82,0-.21.09.22-.73,2.14-.74,6.94-.53,8.6.17,1.31,0,.07.09.53s0,.05,0,.17c-.74.68-.58,2.63-.5,3.27s0,.22,0,.27c-.14.25-.39.34-.62.53-1.64-2.1-3-3.57-5.75-3.84-1.55-1.48-1.87-3.13-4.35-3.06-.13-2.39-3-4.64-5.06-4.47-1.5.13-.09.14,0,0-.26,0-1.21-.22-1.19-.4s0,0,0-.06,0,0,0,0a9.68,9.68,0,0,0-5.55-2.38c-.61,0,0,0-.21,0s0,0-.06,0c-2-4.26-6-4.82-10.28-5.92a.79.79,0,0,1-.43.08c0-.05.42-.13.43-.08a8.49,8.49,0,0,0-4.84-3.11c-.49-.63-1.08-1.63-2-1.5h-.06s0,0-.21,0c-.61-3.07-7.59-4.63-9.79-5.19-.37-.1,0,0-.19,0-1.22-.32,1.67.42.19,0-.65-3.32-3.52-3.64-6.42-4.27a1.67,1.67,0,0,1-.53-.14,2,2,0,0,0-.73-.27,2.73,2.73,0,0,1-.34.08,3.21,3.21,0,0,1,.34-.08,22.53,22.53,0,0,0-7.27-3.74,1.27,1.27,0,0,1-.79-.44c-.19-.29-1.56-.52-1.67-.93-1-3.67-11.8-6.86-13.81-7h0c-17-3.64-33.3-3.7-50.43-3.31a3.27,3.27,0,0,0-1.13-.86,5.21,5.21,0,0,0-2.92.07c-.54.16-.24.08-.25.08-1.78-.42-2.32.76-3,2.19a2,2,0,0,1-.69-.52,64.44,64.44,0,0,0-23.86,4.7c-.79.31-1.42,1-2.23,1.38a12.28,12.28,0,0,0-3.62,1.66c-1.78-2.55-12.69,3.89-13,4.1h0c-2.5-.51-4.05.91-5.94,2.14a63.5,63.5,0,0,0-8.72-.3,14.48,14.48,0,0,0-6.58.41s.47.17.37.22-.23-.2-.42-.21a4.7,4.7,0,0,0-3.48,1.22c-.78.67-1.53,1.45-2.32,2.11,0,0,0,.06-.06,0s-.63.48-.68,0-.28.26-.1-1.08a62.61,62.61,0,0,1,1.62-6.76l-.16.05.16-.05c.62-2.08,2.26-6.8,1.81-9.12,0-.22-.1.23-.16-.12s.33,1,.16.12c1.86-1.78,3.39-6.62,1.1-8.7-.08-.07,0,.09-.17,0s.47.3.17,0c1-5.55,1.63-11.11,3.76-16.4,0-.08-.06,0,0,0,2.23.14,4.74,2.77,5.78,4,.78.93.24.38.48.45,3.1,6.16,12.7,8.78,17.78,10.28,3.31,1,1.17.39,1.23.38a34.11,34.11,0,0,0,10,2.44,38.54,38.54,0,0,0,11.9,1.41c3.87-.18,8,.38,11.73-1.35.63,1.23,1.43,1.13,2.65,1a31.81,31.81,0,0,0,12-3.33c-1.25.56-3.57-.44-4.26-1s-.2-.25-.26-.23c-1.39-2.07-3.66-1.81-5.95-2a.56.56,0,0,1-.16.23s-.11,0-.08,0a2.57,2.57,0,0,1,.24-.21l-9.77-4.2a15.27,15.27,0,0,0-4.7-3.17,26.3,26.3,0,0,1-7.17-5.92c-.91-1.31-.23-.59-.43-.53,0-5.9-1.78-14.25-8.49-15.14-2.65-.35-.22.47,0,0-3.37-.45-3.91-5.85-3.43-8.58.15-.84-.86-1.81-1-2.61a66.05,66.05,0,0,0-1.75-9.1c-.5-1.51-.27-.5-.23-.74-.77-2.65-.12-7.83-.11-10.36h0c0-1.32,0,0,0-.23a53.07,53.07,0,0,0,.9-6c1.87-1.27,3.13-5.87,3.6-7.87.07-.27-.1.24,0-.2.14-.6-.25,1.28,0,.2,3.51-4.51,5.43-9.57,7.84-14.92.89-1.36,3.71-5.54,4.8-7,.85-1.17-1.85,2.49,0,0s7.23-9.72,9.49-12.93c0,0,0,0,0,0a37.14,37.14,0,0,0,6.26-8.25c-1.56-1.23-5.09,2.3-5.77,2.95s.68-.65,0,0,.14-.15-.12.12c-2.18-1-4,2.3-5.18,3.35-1.86,1.64-3.53,2.42-5.37,3.82-.29,0-.59-.34-.62-.53s0,0,0,0c1.92-3,5.53-7.67,7.24-9.88,1.28-1.66.43-.55.52-.68a40.23,40.23,0,0,0,4.2-3.57c.5-.56,0,0,.19-.23s0,0,0-.06c3.75-2.16,6.34-5.73,10.25-7.66-1.2,3.07,1,3.94,2,5.52.66,1,0,0,.23.44s0,.08,0,.11c-2.21,5.21-6.41,12.24.41,15.34,0,4.55,2.36,4.09,5.8,6-1.29.75-2.43,1.66-3.77,2.35-3.89,2-7.12,4.77-10.5,7.52a11,11,0,0,0,8.51,1.07c2.38.46,4.09-.48,6.08-1.69h0c.54.18,1.22.38,1.72.5.12,0,0,0,0,0s.17-.08,0,0a2.7,2.7,0,0,0-.57,1.45c.06.29,0,.13,0,.12-.41,1.09-1.33,1.54-2.21,2.23a13.79,13.79,0,0,0-5.9,6.23,4.59,4.59,0,0,1-.53,1c-.18.18,0,0-.15.15-2.59,1.31-4.25,6.83-5.42,8.41s-.54.35-.49.62c-2.16,1.57-2.41,4.61-2.84,6.86-.55,2.87,1.43,2.39,2.57,1.71.72-.42,0-.05.26-.19s0,0,.11-.09c2.13.17,4.67-2,5.83-3.15.82-.78.26-.27.31-.3,4-2.94,8.85-4.45,13.22-6.94,2.83-1.45,5.37-3.83,7.82-5.68a24.22,24.22,0,0,0,4.77-4.71c.05-.07,0-.09,0,0a16.54,16.54,0,0,1,2.42-2.49c.39-.34.07-.12.13-.1s.31-.51,0,.11a1.52,1.52,0,0,0,1.59,2.13c.54,1.6,2.71,2.16,3.88,2.52l.3.09c1.37,1,3.37,1.14,5,1.19,3.25.11,7.95-1.06,10.56-1.14,1.79-.06.61.07.66,0,3.63.55,6-1.14,9-3.12.15.24.31.3.51.5a18.07,18.07,0,0,0,8.78,5.24c1.87,3.6,7.53,9.56,10.66,10.41,2.26.61,1.06-.23,1.13.16h0C2416.17,291.83,2421.77,294.43,2423.67,295.39Zm-341.9,59.45h0s-.09,0-.1,0,0-.05.06-.05S2081.78,354.83,2081.77,354.84Zm-4.52.54s0,0,0,0h0s-.1-.05-.11-.08.05-.09.08-.08S2077.26,355.37,2077.25,355.38Zm33.59,62.06s.06,0,.07,0,0,0,0,0S2110.84,417.45,2110.84,417.44Zm8.4-10h0ZM2234.45,180.3s0,0,0,0-.08,0-.07-.07a.25.25,0,0,1,.14-.06S2234.46,180.29,2234.45,180.3Zm140.39,93.82a.14.14,0,0,1,.09,0s0,.05,0,.05S2374.83,274.13,2374.84,274.12Zm11.38-1h0v0l0,0Zm-.76-2.6s-.09,0-.1,0h0s0,0,0,0l.09,0S2385.47,270.53,2385.46,270.54Zm-164.8,192.37a.09.09,0,0,1,0-.07s0,.05,0,.06ZM2261,360s0,.05,0,0,0-.05,0-.06h0Zm-37.78,87.91s0,0,0,0h0v0Zm52.59-45.67h0l.07.07S2275.79,402.21,2275.78,402.2Zm9-7.15h0s-.08,0-.07,0,.05-.16.09-.16,0,.15,0,.16Zm-42.06,53.66v0h0Zm47.39-54h0a.08.08,0,0,1,0,0h0A.06.06,0,0,1,2290.08,394.66Zm-60,59.21Zm19.15,8.29s0,.06,0,.07h0S2249.19,462.15,2249.2,462.16Zm8.79-87h0v0ZM2339.85,465h0s0,0,0,0l-.1.08s0,.08-.06.07-.06-.11-.07-.11l.13,0Zm-61.23-122.44s.08.06.08.08-.08.05-.09,0A.13.13,0,0,1,2278.62,342.53ZM2261.91,377s0-.05,0-.05,0,.05,0,.06Zm.93-8.29s0,0,0,0,0,0,0,0Zm60.94-6.13h0c.08,0,.29-.08.34-.05s-.15.17-.19.18S2323.8,362.57,2323.78,362.55Zm-33.48-51s-.13.08-.15.08,0-.08,0-.09h0S2290.3,311.55,2290.3,311.57ZM2484.17,49l0,0s0,0,0,0ZM2284.8,460.51Zm-3.29-5.22c0,.13.23.2.15.31a3,3,0,0,0-.78,2.09l-2.58,5.78h0c-.4.9.07-.13-.1.17a14.11,14.11,0,0,1-4.48,3.05c-.82.33-.31.09-.35.14a68.35,68.35,0,0,0-13.19,6.12c-1.54.94-4.25,2.36-5.24,2.93h0c-1,.57.17-.09-.18.09a14.73,14.73,0,0,0-3.6.86c-.57.21,0,0-.22.08s-.05.1,0,0a11.86,11.86,0,0,1-.07-1.64c.13-.28.13-.05,0-.15,2.17-.64.78-3.4.28-4.26s-.14-.21-.19-.32.11-.14.11-.25-.13-.11-.11-.25c1.34,0,1.74-2,2.1-2.63s.17-.18.15-.24c2.09-2.78,2.19-5.77,2.61-9.19.85-.5.94-2.4,1-3s0,0,0-.22,0,0,0-.05c4.38-2.11,2.65-7.32,1.56-11.21,2.28-1.3,3.95-6.15,2.83-7.79-.73-1.06-.07,0-.36-.36s-.1,0-.08-.1a2.14,2.14,0,0,0,.17-1c0-.16,0,0,0-.07s0,0,0,0c1.16-.18.21-2.14.23-3.11.06-2.54.23-5.39.5-8,.34.25,1.12.3,1.24.78h0c.51,1.91.8,3.93,2.49,5.35-.11,2.49,3.38,6.26,4.78,6.94s.75.09.73.27h0a7.34,7.34,0,0,0,4,3.7c.61,1.47,3.4,2.58,4.38,3l.38.16a5,5,0,0,0,2.62,1.24,2.78,2.78,0,0,0,2.93,2.55h0A13,13,0,0,0,2281.51,455.29Zm58.44-35.4h0a.08.08,0,0,1,0,0S2339.94,419.9,2340,419.89Zm72.74-144s-.11,0-.12-.06,0-.1,0-.09S2412.7,275.86,2412.69,275.89Zm36.69-61.57s.06,0,.08,0,0,0,0,0S2449.37,214.33,2449.38,214.32ZM2375,251h0ZM2496.06,50.65s-.2.14-.2.17.13,0,.14-.06S2496.09,50.64,2496.06,50.65Zm-118,70.48s0,0,0,0h0ZM2080.17,367.29s-.06,0-.07,0,0,0,0,0S2080.18,367.28,2080.17,367.29Zm106,41.51s0,.06,0,.05,0,0,0-.05,0,0,0,0,0,0,0,0l0,0Zm101,43.52ZM2313.78,397a.2.2,0,0,1,.11,0s0,.07,0,.07S2313.78,397,2313.78,397ZM2328,385.71v0s0,0,0,0S2328.05,385.72,2328,385.71ZM2488.61,427h0s0-.08,0-.1.06,0,.06,0,0,0,0,.05Zm-87.09-156.41h0Zm53.91-55.94h0s0,0,0,0-.07,0-.07,0,0-.25,0-.27S2455.44,214.64,2455.43,214.67Zm-153.61,11h0ZM2156,388.89s-.07-.06,0-.1.47-.26.52-.19-.43.35-.49.31S2156,388.89,2156,388.89Zm-55.86,4.69s0,0,0,0,0,0,0,0h0Zm-195.3,53.57h.07a0,0,0,0,1,0,0Zm-36.84-8Zm24.4-2.67s.06,0,.06,0,0,.18-.06.18S1892.39,436.52,1892.4,436.5Zm.46-11.79h0v0Zm49.38,39.37h0Zm-112.61-94.72s0-.11,0-.11.1.09.09.11S1829.64,369.37,1829.63,369.36Zm36.91,24.95h0Zm-67.81-12.65h0Zm45.06,40.25h0v0Zm-54-75.64,0,0,0,0h0l0,0s0,0,0,0Zm285.27-100.9ZM1933.19,396.83s-.09.14-.12.14a.19.19,0,0,1,0-.15S1933.18,396.8,1933.19,396.83ZM2015,283.54s-.1,0-.11,0,0-.09.07-.1S2015,283.52,2015,283.54ZM1996.32,317h0s0-.07,0-.09,0,0,0,0S1996.33,317,1996.32,317Zm16.83,70.6h0v0Zm17-62.2v0h0v0ZM2063.51,271a.59.59,0,0,1,0,.08s-.08,0-.07,0a.81.81,0,0,1,.1-.09Zm-193,124.58h.11s0,0,0,0ZM1899,355.21s.14-.12.16-.1-.06.16-.08.17S1899,355.24,1899,355.21Zm-56.63,7.85h0Zm-6.11,47.39h0s.09,0,.09.06-.07.07-.1.06S1836.28,410.47,1836.29,410.45Zm75.65,17.86c-.85-.6-2.77-1.37-3.3-1.9s-.11-.25-.19-.22c-.59-1.44-1.56-1.78-3.11-2.06-1.07-2.15-4.76-3.47-6.32-4.16-1-.44-.08,0-.38-.18l-.09,0h0s0,.07,0,.09h0c-1.65-2-3.63-2.21-6.08-2,0,0,0,.08,0,.1s0,0,0,0-.09-.09-.09-.11c0-1.62-4.05-1.47-4.62-1.56s.18,0-.23-.05.8.14.23.05,0-.05-.17,0,.11,0-.22.06c-4.32-2.93-13.44-3.67-17.43-3.09-3.09.45-1.14.41-1.28.19-1.36.87-4.55.15-5.6-.36s-.34-.18-.41-.2,0,0,0-.1a1.54,1.54,0,0,1,0-.3c.8-1.3,2.13-1.35,3.38-2.08a2.65,2.65,0,0,1,.63-.08c.13,0,0,.07.16-.11,5.55,2.32,14-1.54,17.31-4.25,2.07-1.72,0-.06.77-.71s0-.1.23-.19c1,.86,3.25-.11,3.91-.54s.22-.18.28-.2h0c2.79-.7,5.31-1.6,8.18-2.25,0,0,0,0,0,0,2.87-.65,6.09-1.06,9-1.67a1.91,1.91,0,0,0,.57.49c5-.39,9.57-.76,14.1-3.06,0-.14-.07-.46-.08-.56s.05.06.08.06a7.13,7.13,0,0,0,1.74-.14c.27-.08,0,0,.1,0s0,0,0,0c0,.3.7.33.83.35h0s0,0,0,0c-.58,1.38,1.92,2.38,2.64,2.84.35.22,0,0,.13.09s.12,0,0,0c-.56.16-.94,1.4-1.15,1.73s0,0-.18.2c-2.19,2.37-4.19,7.81-5.85,9.74-1.31,1.53-.69.4-.6.66-2.6,1.46-2.7,6.2-3.43,8.23-.55,1.5-.35.44-.24.56a9.82,9.82,0,0,0-2,5.15c-.23,0-1.32,1.61-1.32,1.61Zm115.54-35.23h0a0,0,0,0,0,0,0v0Zm49.72,3.05s0,0,0,0-.24.05-.27,0,.15-.19.2-.18S2077.2,396.1,2077.2,396.13Zm50.35,6.58s0,.05,0,.06l-.07,0A.22.22,0,0,1,2127.55,402.71Zm159.61,49.74s0-.11,0-.12,0,0,0,0,0,0,0,.05S2287.18,452.46,2287.16,452.45Zm61.64,17.27h0a.73.73,0,0,1-.27.11c-.06,0,0-.11,0-.12A1.77,1.77,0,0,1,2348.8,469.72Zm23.8.39h0s.11-.14.15-.14.07.13,0,.16S2372.62,470.12,2372.6,470.11Zm288,69.72s.21,0,.22,0-.16.16-.19.15S2660.54,539.85,2660.56,539.83Zm34.18-42.89,0,0h0Zm-111.68-39.86s.09,0,.08,0-.07.06-.09.07S2583.05,457.09,2583.06,457.08Zm60.22-14.5h0Zm31.64-2.57Zm264.37,19.63h0c-.05,0-.14,0-.17,0s0-.11,0-.1S2939.27,459.63,2939.29,459.64Zm-17.55-4.57.05,0s0,0,0,.05Zm-11.25-225.83.16,0s-.1.1-.11.12,0,0,0,0h0s0-.08,0-.09,0,0,0,0,0,0,0-.05S2910.47,229.24,2910.49,229.24ZM2745.23,393.51s.3-.07.27,0a1,1,0,0,1-.42.26C2745,393.75,2745.21,393.53,2745.23,393.51ZM2472.7,343.25ZM2360.37,257Zm12-83.31Zm132.37-126Zm-8.46,3.61,0,0h0ZM2333,187.07s-.15.28-.17.3-.23.17-.2.11A2.14,2.14,0,0,1,2333,187.07ZM2180.52,312.41Zm-78.47,75.17s.08,0,.09,0h0s-.11.06-.13.05S2102,387.58,2102.05,387.58ZM2028.72,268.4h0a.1.1,0,0,1,0,0ZM1875,373s-.25,0-.25,0,.22-.14.25-.17l0,0h0C1875,372.86,1875.07,373,1875,373Zm114.71,12.51c0-.05,0-.16.07-.09a1.17,1.17,0,0,1,.12.44S1989.74,385.56,1989.75,385.51Zm20,6a3.1,3.1,0,0,1,.73-.14c.13,0,.24.08.11.13s-.56.1-.74.17C2010,392.23,2009.61,391.64,2009.78,391.55ZM2012.12,504c-.06,0,.25-.5.31-.56s0-.07,0,0A1.08,1.08,0,0,1,2012.12,504ZM2083,423.71c-.45-.16-.16-.52.1-.14,0,0,0,.11,0,.14S2083,423.71,2083,423.71Zm128.75,31.13h0Zm144.06-27.18s-.1-.08-.09-.1.11,0,.12,0A.15.15,0,0,1,2355.79,427.66Zm163.53,51.63h0v0Zm17.21.36a.62.62,0,0,1-.27.05.08.08,0,0,1,0-.13.86.86,0,0,1,.28,0s0,0,0,.05S2536.58,479.63,2536.53,479.65Zm13.13,39.89s-.07-.08-.06-.09.1,0,.11,0S2549.67,519.54,2549.66,519.54Zm-40.07,135.34v0h0Zm14.22-3.63h0s0,0,0,0,0,0,0,0S2523.8,651.25,2523.81,651.25Zm46.35-59.09s-.21.12-.24.09,0-.19.07-.2S2570.17,592.12,2570.16,592.16Zm-32.87-107.42a.82.82,0,0,1,.17.2A1.63,1.63,0,0,1,2537.29,484.74Zm219.25,87.92a3,3,0,0,1-.41,0Zm140-119.07s.1,0,.09,0a.17.17,0,0,1-.12,0S2896.49,453.6,2896.51,453.59Zm40.91,11.81.06,0s-.06,0-.07,0S2937.41,465.41,2937.42,465.4Z"/><path class="cls-7" d="M2637.88,645.31c-.46,0-.22-.1-.28,0-2-1.36-5.42,2.37-6.63,2.92s-.4,0-.52.23c-2.16-1.11-5.31,1.1-6.31,2.26-.73.85,0,0-.28.35s0,0-.15.13c-3.26-.43-7.69,2.6-9.93,3.68-1.67.8-.62.21-.65.29a21,21,0,0,0-9.36,3.69c-.57-.19-1.35-.16-1.88-.35-1-.33-3,.23-3.25.76s0,0-.07.22.08.07,0,0c-.46-.16-.81.42-1.23.73-2.69-.39-7.39.63-9.32,1.47-1.23.54,0,0-.47.23s-.05,0-.13.06-.36.38-.45.45,0,.1-.06,0c-.4-1.13-2.4-1-3.22-1-.41,0-.13,0-.36-.06-5-2.41-10.78-3.08-16.16-4.17h0c-.85-.78-1.93-.74-3-.89h0c.17-1.57-2-2.93-3.12-3s.08.09,0,0c-.58,0-1.68-1.31-1.54-1.74s.09-.12,0-.2c.22-2-2.17-6.58-4.28-5.68-3.32,1.42.48,4.1.91,6.28.3,1.54,3,3,3.78,3.74s.23.27.29.3a3.77,3.77,0,0,1,.71.41c.09.12,0,.08,0,.06-1,2.21-.41,4,.31,6.26a5.49,5.49,0,0,0-.26,1.72c0,.33,0,.12,0,.13a14.82,14.82,0,0,0,.65,4.39c.51,3.56,2.48,6.17,5,8.48,1,1,2.4,2.31,3.12,2.81s.29.14.33.22h0a8.77,8.77,0,0,1-2,3.57s.06.06,0,.08-.06,0-.08,0,0-.06,0-.06c-.74,0-1.31,1.07-1.47,1.5s0,.14,0,.16c-1.19,3.44-.81,6.32.24,9.7.75,2.43,3.28,4,5.1,3.48,1.09-.33,0,0,.41-.17s0,0,.22-.14c-.31,2.33,3.15,1.47,3.68,1.09.28-.14-.53.38,0,0s-.27.13,0,0c.73.29,1.55-.31,2.09-.37a1.76,1.76,0,0,1,1.12.33c.19.09-.24.66-.34.71s-.11-.05.05.2c-9.11,2.06-4.5,13.59-2.73,17.53,1.35,3,0,.09.55,1.19s0,.08.27.23c-3.06,3.54,3.8,3.88,4.9,3.65h0c1.1-.22-.14-.06.2,0,2.71,1.75,5.28.15,8.37.1a42.64,42.64,0,0,1,6.77-5.05c1.48-.69.65-.1.6-.3,2.26-.49,2.69-3.83,1.92-5.13-.5-.85,0,0-.22-.3s0,0,0-.07c.24-1.24-.37-1.87-1.28-2.71-.2-1.23-2.2-2.15-2.82-2.63s-.16-.19-.23-.19a1.93,1.93,0,0,0-.41.12c.24-1.44-1.64-1.88-2.26-1.69s0,0-.25.09,0,.12-.05,0c-.06-.3-.54-.41-.84-.5.57-2.54,1.15-5.07,1.72-7.61.84-.57,1.39-.78,2.3-.14-.85.43-.51,2.26.42,1.89,1.7-.68,4,2.46,4.39,3.16s-.38-.7,0,0-.38-.7,0,0-.08-.13,0,.06,0,0,0,0c1.12.83,4,1.95,4.17.51.13-.81,0-.05,0-.36s0-.08,0-.16c2-.19,5.22-3,4.84-4.52-.25-1-.06,0-.18-.42s-.09,0,0-.1a28.49,28.49,0,0,0,1.57-2.41c3.19-1.41,3.13-3.42,2.94-6.65.53-1.14-.39-3.24-.76-4s-.13-.25-.14-.29c-.58-1.14-1.43-2-1.31-3.37,1.36-.39,3.44-1.48,3.84-2.7.2-.59,0-.29.05-.26h0a19.28,19.28,0,0,0,1.56-1.78c1.61.33,4.79-1.62,4.43-2.85-.26-.87-.09,0-.19-.34s-.19-.07,0-.07.58-.41.83-.38c1.48.17,3.61-1.67,3.84-2.62s-.08-.4.06-.39c.48-4.4,4.59-6.18,6.83-9.78,1.33-.73,3.12-3.62,3.38-4.61s0-.48.07-.51h0c.38-.87.38-2,.85-2.87,0,0-.09,0,0,0,1.07-1.92,2.57-3.94,2.54-6.09C2639.52,643.52,2638.34,645.28,2637.88,645.31ZM2596,687.64s.12.12.09.13a.35.35,0,0,1-.22-.06S2596,687.63,2596,687.64ZM2580.32,669h0s.06,0,.08,0,0,0,0,0A.13.13,0,0,1,2580.32,669Zm-8.32-3.26h0l.09,0s0,0,0,0S2572,665.74,2572,665.72ZM2568,684.25Zm27.65,12.63c0-.06.06-.26.07-.3s0,0,0,0h0c0,.07.17.14.19.19s0,0,0,0-.35.38-.38.39S2595.58,696.94,2595.6,696.88Z"/></g><g class="cls-8"><path class="cls-9" d="M34.31,1512.06l.09,20.82c2.61-.44,5.46-.44,7.88-1.37,1.6.76,2.21.25,3.69-.44a6,6,0,0,0,3.23,1.3c11.31.35,22.12.8,32.81-1,15.23-2.63,30.09,2.94,41.22-10,6.33-7.38,12.72-14.44,20.39-20.27,5.08-3.87,10.25-7.38,15.2-11.41A154.42,154.42,0,0,0,173,1476.92c3.15-3.27,6.32-7.75,9.8-10.67,3.92-3.31,6.58-6.86,9.54-11a31,31,0,0,0,9.4-12.7l1.42-.76a51.78,51.78,0,0,0,3.67,4.2,10.67,10.67,0,0,0,1.93,1.33c5,3,9.57,11.33,13.21,14.84,15.07,14.5,25.95,18.44,30.47,40.3.26,1.25.07,1.57.7,2.6,1.63-2.1,2.58-4.56,4-6.81.19-.3.47-.55.66-.85a46.8,46.8,0,0,0,4.68-9.75,29,29,0,0,0,3-8c2.46-11.4-.81-20.45-6.23-30.21a73.47,73.47,0,0,0-7.08-10.62c-5.19-6.58-7.16-13.91-12-21.15-3.4-5.09-7.92-9.29-13.38-13.36-4-3-10.67-6.33-14-10.93.1-.32.31-.53.27-.89a9.94,9.94,0,0,0,2.06-7.6,2.39,2.39,0,0,1,.74-3c2.71-1.15,4.41-3,6.37-5.23.25-.29.4-.56,1-.53,1.38.07,2.87-.11,4.35,0a208.77,208.77,0,0,1,22.73,3.77s.12-.2.15-.2-.12.21-.15.2c3.83.79,6.36,2.62,10.1,1.18,14.68,10.08,26.68,19,42.38,31,14.86,8.31,28,20.84,40.94,32.06,5.5,4.78,13.27,9.71,17.68,15.59,6.91,9.22,9,21.42,17,30.41,8.33,9.37,19.83,15.58,26.56,26.29,3.67,5.85,5.88,13,11.07,17.38,1.61,1.38,3.92,2.43,5.7,1.31,1.27-.8,1.8-2.45,2.08-4,1.55-8.45-1.43-17.21-6-24.34s-10.69-13-16.34-19.18a181.3,181.3,0,0,1-25.05-35.34c-2.07-3.8-4.07-7.78-7.23-10.63-2.27-2-5-3.41-7.32-5.45-8.27-7.38-4.16-18.05-6.34-27.75a14.59,14.59,0,0,0-1.63-4.52,12.8,12.8,0,0,0-4.73-4.22c-3.91-2.19-8.3-4.6-12.23-6.3s-5.5-1.14-8.32,1.77c-14.74-13.23-29.88-24.72-47.5-33.31-2.81-6.74-4.85-12.39-8.23-19.26-4.56-9.27-12.26-23.22-19.19-29.61-5.56-5.12-2.25-1-5.3.6.1.47-.23.49-.17.85A2.82,2.82,0,0,0,247,1317c-1.52,2.72-3.73,5-5.06,7.79-1.95,4.15-5.43,6.25-7.61,10.16-2.12-1.11-2-1.59-3.24-3.87-8.64-15.61-20.76-25.93-35.26-35.71-3-2-6.86-3.21-9.57-5.86a12,12,0,0,1-1.55-2,8.76,8.76,0,0,0-2.76-2.76,115.43,115.43,0,0,0-19.7-19,115.92,115.92,0,0,0-27.1-16.7c-12.81-6.1-24.73-10-38.9-8.65-1.1,0-2.32,0-3.4,0a40.35,40.35,0,0,0-14.53,1.92c-1.95.67-3,1.81-4.81,2.58-.33-1.77-.33-3.49-1.2-5.1-1.22-7.58-2.33-15.21-4-22.69.48-10.89-.6-20.52,2.15-31.63.58-2.38,6.87-6.31,9.88-5.62,6.16,1.41,11.55,4.72,17.58,6.36,1.81.68,3.42,1.43,5.26,2.08a209.9,209.9,0,0,0,21.78,6.72c1.61,1.06,3,1.91,5,1.77,1.87.59,3.77,1.14,5.62,1.75.24.08.41.41.61.47a1,1,0,0,0,.56,0c2.7,1.36,4.14,1.32,7.07,2.39,17.86,6.48,31.42,9,50.63,16.06,28.56,10.44,58.9,28,85.24,45,3.36,2.16,5.43,3.65,8.25,5.6,1.29.89,1.87,1.78,2.91,2.54,1.77,1.29,3.25,2.22,5,3.43,4.26,4.2,9.15,7.59,13.66,11.51,1.94,1.69,4,3.33,5.79,5.16a79.17,79.17,0,0,0,10.4,9.35c.23-4.45-2.59-6.35-5.48-9.07,0,0,.06,0,0-.12s-.09.11-.07-.14.27-.59.25-.95c-.14-2.22-1.9-3.54-2.89-5.38A131,131,0,0,0,297.83,1257c-.28-.3-.68-.54-.95-.8-.35-2.6-1-3.26-2.78-5.07-9.1-9.12-13.31-14.34-24.16-23.79-16.22-14.13-36-29.81-55.49-42-17.11-10.69-37.95-20.48-55.36-30.36-8.45-4.79-15-7.1-23.65-10-2.64-.79-2.35-3.52-2-5.29,1.5-8.43-.85-15.22-1.58-23.18-.17-1.85.59-2.85.74-4.62s.55-3.65.82-5.44a11.39,11.39,0,0,1,.25-1.32,46.08,46.08,0,0,0,1.54-8.8,1.88,1.88,0,0,0,.24-1c.39-2.52.8-5,1.24-7.5a13.83,13.83,0,0,1,.37-2.15c.23-.75.07-1.32.58-2.11,1.36-2.12,2-3.21-.59-4.68a5.19,5.19,0,0,0-.83-.51c-8.58-3.09-16-3.11-23.81,2-8.38,5.47-15.11,12.07-22,19.25-2.09,1.22-3,3.19-4.24,5.26a14.5,14.5,0,0,0-2.2,4.79c-1.63,3.18-2.5,6.62-3.6,10l-1.5-.84c-1.11-2-2.16-3.72-2.35-6.05a5.5,5.5,0,0,1,.19-2.13c1.63-5.11,3.57-10.11,4.76-15.35,1.76-6.19,4-11.43,4.83-17.95,1.66-12.88,1.86-22.67,2.37-37.12.16-4.55.62-21.45,6.15-25.67.52-.4.9.15,1.3.44a20.84,20.84,0,0,0,6.88,3.31,5.15,5.15,0,0,0,3.74,3.76c.07,0,0-.15.23,0a8,8,0,0,1,.93.74c1.69,1.47,3.75,2.79,5.4,4.32,5.23,4.85,10.63,9.3,16.14,13.66,2.76,2.19,3.68,3.59,6.67,6.08,24.14,20,52,35.59,78.68,51.77,4.47,5.45,7.59,7.45,13.92,11.41,10.81,6.77,25.49,16.65,35.29,24.37a72.62,72.62,0,0,0,11.27,7.72,151.34,151.34,0,0,0,13.2,9.55c1.12.71,1.86,1.2,2.92,1.88a13.22,13.22,0,0,0,5,4.12,2,2,0,0,0,.9.23c.28,0,.23-.29.15-.45a41.17,41.17,0,0,0-5.77-8.92,1.68,1.68,0,0,0-.55-.94c-1.39-3-2.52-4.35-4.55-7.3a123.37,123.37,0,0,0-16.67-19.17,61.56,61.56,0,0,0-9.25-9.29,112.12,112.12,0,0,0-11.41-12.23,20.61,20.61,0,0,0-2-2.49c-6-6.61-27.3-33.48-30-37-11.78-15.21-19-24.1-28.48-34.06-9.9-10.42-15.25-15.15-23.71-25.28a12.4,12.4,0,0,0-3.74-3.88c-1-.73-1.95-2-3.31-2.1-2.21-3.23-4.63-4.79-7.63-7.41a25.49,25.49,0,0,0-7.05-4.52c-11.1-4.79-20-8.42-32.67-13.35-2.42-1-21-9.87-24.77-4.89-.84-1.21-.76-2.2-1.23-3.34a69,69,0,0,0-2.45-12.08,27,27,0,0,0-1.46-8.36,8.64,8.64,0,0,0-1-4.26c-.32-1.4-.61-2.82-.94-4.21a151.8,151.8,0,0,0-3.06-16.36L67.28,915c.1.59.21,1.17.32,1.74a2,2,0,0,0-.48.6c.42,5.24.81,10,3.11,14.81.15,0,.46-.07.57-.08s-.06.05-.06.08a7.73,7.73,0,0,0,.14,1.82c.05.18.05.15,0,.12s0,0,0,0c-.31,0-.33.75-.35.88s0,0,0,.06,0,0,0,0c-1.38-.6-2.37,2-2.82,2.8a.38.38,0,0,0-.07.11l0,0s0,0,0,.06a.11.11,0,0,0,0,0c-.17-.59-1.41-1-1.73-1.2s0,0-.2-.19c-2.37-2.29-7.81-4.37-9.75-6.11-.33-.3-.54-.5-.66-.63h0c-.14-.15-.16-.21-.14-.22C53.51,927.15,49,927,47,926.3c-1-.38-.87-.41-.7-.36a9.72,9.72,0,0,0-5-2c0-.24-1.61-1.38-1.61-1.38.59-.89,1.35-2.92,1.88-3.48.34-.35.34-.3.3-.24,1.36-.63,1.69-1.64,2-3.24a7.49,7.49,0,0,0,2.69-3.31l-14.89-2,.08,17.76a62,62,0,0,1,6.65-3.63,42.24,42.24,0,0,0,8.24,15.64,10.79,10.79,0,0,1,.95,1.08,14.18,14.18,0,0,0,4,4.38c-.09,1.45.76,2.44,1.45,3.54a29.11,29.11,0,0,1,1.78,3.27A39.11,39.11,0,0,0,59.62,960a8.6,8.6,0,0,0,2.76,3.35,10.55,10.55,0,0,0,3.88,4.25c1,.71,1.92,1.57,2.91,2.32l4.76,3.65c.93,1.37,2.29,2,2.55,3.79-.92-.15-1.63-.12-2,.89-1.3,3.19-.71,6,0,9.29a12.15,12.15,0,0,0,3.4,6.62c.39.38.69,1,1.05,1.44-.68,1.88.12,2.77,1.54,3.87.68,1.62,1.32,3.26,2,4.9a78,78,0,0,1,.81,9.53,10.41,10.41,0,0,0-.76,6c-5.37,1.26-7,3.87-7.38,9.54,0-.08.28-.14.32-.12s-.1.27,0,.27.56,0,.56,0-.48,0-.57,0-.27-.11-.28-.18a13.71,13.71,0,0,0,.45,8.28c-.14.63-.28,1.25-.43,1.88-2.3-2.39-3.93-5.3-6.6-7.3-.53-.4-1.26-.93-1.71-1.35a10.55,10.55,0,0,1-1.07-1.23,40,40,0,0,0-9.39-8.15,73.65,73.65,0,0,0-11.53-7.53,4,4,0,0,0-2.78-1.41c-1.7-1.39-3.51-1.61-5.58-2a15.82,15.82,0,0,0-4.34-1.56l.23,50.85c4.18,1.42,8.39,4.28,12.4,5.29,7.55,1.91,14.5,1,22,1.4a14.46,14.46,0,0,1,2.8.07s0-.34.1-.32-.12.32-.1.32c1.6.4,3,1.22,4.54,1.67,1.19,1.34,2.41,2.67,3.6,4a1.22,1.22,0,0,1,0-.29s.18-.13.19-.06a.62.62,0,0,1-.15.4c-.09,0-.34.34-.26.46-2.1,4.68-2.58,9.71-4.07,14.6-.28.93.36,1.38,1.08,1.74-.61,1-1.47,1.78-2.06,2.74a9.81,9.81,0,0,0-1.21,4.22,6.82,6.82,0,0,1-.52,1.78,64,64,0,0,0-3.9,10.79c-4.45-1.69-8.86-3.38-13.33-5.06a9.1,9.1,0,0,0-1-.36c-7-1.91-13.47-3-19.92-2.44l.13,29.46c1.73.89.1.3,1.94,1.06,6.26,3.54,12.91,7,18.91,11.37a47.67,47.67,0,0,0,4.53,3.27c2.5,1.37,4.09,2.79,4,5.91a9.52,9.52,0,0,1-.58,2c-.67,2.92-1.43,4.84-.73,8.12.62,2.87-.6,8.45-1,11-1.37,9.35-2,17.49-2.57,26.55,0,.67,0,1.32,0,1.94,0,1-.13,2.27-.14,3.17s-.09,1.56,0,2.32c.78,14.8,3.39,29.3,4.55,44,.05.6.21,1.32-.34,1.75-1.43,1.11-2.79-.08-4.08-.94a76.28,76.28,0,0,0-24-10.85l.21,49a1.71,1.71,0,0,0,.58-.26c1.06-.77,0-.06.36-.37l.1-.09h0a2.15,2.15,0,0,0,1,.18c.16,0,0,0,.07,0s0,0,0,0c.19,1.22,2.14.21,3.1.23,2.54,0,5.38.22,8,.5-.25.35-.3,1.17-.78,1.3-1.9.55-3.92.86-5.33,2.64-2.47-.1-6.22,3.58-6.9,5.06-.06.15-.11.26-.16.37l.47,106.25c6-7.72,10.18-14.12,16.53-22.34,3.91-5.07,11.1-11.83,12.92-19.09,2.69-.92,3.85-2.23,5-4.82,0,0,0,0,0,0s0,0,0,0c7.25,3.42,14.16,8.64,17.53,16a29,29,0,0,1,2.77,12.72c-.23,13.56-3.54,26.08-4.38,39.1-.25,3.9-.49,6.53-1.88,9.91-10.5,25.58-26.28,47.71-41.65,70.25a12.54,12.54,0,0,1-4.69,3.83A11.58,11.58,0,0,1,34.31,1512.06Zm8.21-122.9s0,.11,0,.12-.1,0-.1,0S42.5,1389.15,42.52,1389.16Zm7.58-16.6s0,0,0,0l-.05,0Zm-4.87-270.08s-.11,0-.13-.06,0,0,0-.05C45.26,1101.9,45.62,1102.2,45.23,1102.48Zm26-157.74s-.14-.09-.14-.12a.19.19,0,0,1,.15,0S71.25,944.74,71.22,944.74Zm11.21,59.63s.29-.21.34-.2.16,0,.1.07A1.2,1.2,0,0,1,82.43,1004.37Zm68.81,6.46s-.06,0-.07-.05h.09S151.25,1010.83,151.24,1010.83ZM223,1093.28Zm-80-46.92,0,0h0Zm56.82-1.77h0l0,.05h0s0,0,0,0Zm-119-15.81v0h0S80.83,1028.78,80.82,1028.78Zm-5.42,15.1h0v0Zm-2.81,52.29s0,0,0,0,0-.25,0-.29.18.17.18.22S72.61,1096.17,72.59,1096.17Zm28.78,3s0-.07,0-.08a.08.08,0,0,1,0,0S101.38,1099.18,101.37,1099.17Zm-49.91,32.54s0-.08,0-.07,0,.06,0,.08S51.47,1131.71,51.46,1131.71Zm10,8.72h0Zm4.7,8.74a.11.11,0,0,1,0-.08s.07,0,.07.06S66.2,1149.18,66.19,1149.17Zm90.4,55.27Zm-76.13-24.89c-.07.06-.34-.45-.31-.52s0-.06,0,0,.07-.07.1,0S80.54,1179.49,80.46,1179.55Zm-20,31.27v0H60.4l.05,0s0,0,0,0,0,0,0,0S60.46,1210.81,60.45,1210.82Zm49.08,78.43s0,0,0,0,0,0,.06,0h0Zm134.2,42.37Zm104.58,79.61,0,0h0Zm-52.46-5.63h0ZM43.77,1528.9s0,0,0,0l0,0h0S43.76,1528.89,43.77,1528.9ZM80.63,1458s0,0,0,0C80.76,1457.46,80.7,1457.7,80.63,1458Zm3.54-6.59s0,.18,0,.17-.08-.09-.09-.12S84.17,1451.44,84.17,1451.45Zm4.46-29h0s.12,0,.1.06a.31.31,0,0,1-.19,0s.08,0,.09,0Zm-4.49-62.58h0l0,0ZM75,1320l0,0v0h0S75,1320,75,1320Zm-.42-5.65s.17.06.17.1-.15,0-.16,0h0S74.59,1314.33,74.62,1314.33ZM67.45,1305h0s-.06.08-.07.07Zm33.4-13.72,0,0h0S100.86,1291.29,100.85,1291.29Zm-2.34,1.77s0,0,.13-.08S98.69,1293,98.51,1293.06Zm8.68,1.13s0,0,0-.1S107.24,1294.1,107.19,1294.19ZM186,1329.92s0,0,.18,0S186.23,1330,186,1329.92Zm96.34,34.35s-.28-.17-.31-.19-.16-.23-.1-.21A2.23,2.23,0,0,1,282.34,1364.27Zm-86.66,44.44s-.06,0-.06-.06l.06,0S195.69,1408.7,195.68,1408.71Zm23-.06h0Zm-19.4,11.11s0-.09,0-.11h0a.24.24,0,0,1,0,.1S199.32,1419.78,199.31,1419.76Zm-2.59.84v0h0l0,0S196.73,1420.61,196.72,1420.6Zm2.6,16.06h0Zm-5.22,11.76s0-.12.05-.13.11,0,.1,0A.42.42,0,0,1,194.1,1448.42Zm-66.93,63.39Zm-16.29,7c-.35,0-.09-.14,0,0Zm-46.39-7.1-.13.1h0l0,0,0,0h-.08c-2.13-.76-6.92-.75-8.57-.52-1.32.18-.07,0-.54.09l-.16,0h0c-.67-.77-2.62-.6-3.26-.51l-.27,0c-.25-.14-.34-.4-.53-.65,2.09-1.73,3.55-3.15,3.8-6.06,1.48-1.64,3.12-2,3-4.58,2.39-.15,4.62-3.21,4.44-5.35,0-.27.21-1.27.4-1.25s.08,0,.07,0,0,0,0,0a10.58,10.58,0,0,0,2.34-5.86c0-.63,0,0,0-.22v-.06h0c4.24-2.17,4.78-6.36,5.86-10.84,0,0-.13-.43-.08-.44s.13.44.08.44a9,9,0,0,0,3.08-5.1c.63-.52,1.62-1.15,1.49-2.08a.23.23,0,0,1,0-.07s0,0,0,0,0,0,0-.06h0l0-.15c3.06-.65,4.58-8,5.13-10.32,3.31-.69,3.61-3.71,4.22-6.77a2.46,2.46,0,0,1,.14-.55,2,2,0,0,0,.27-.77,3,3,0,0,1-.08-.36,2,2,0,0,1,.08.36,24.06,24.06,0,0,0,3.7-7.66,1.34,1.34,0,0,1,.43-.83c.29-.21.52-1.65.92-1.77,3.66-1.08,6.79-12.44,6.9-14.55,3.55-17.85,3.53-35,3.06-53a3.31,3.31,0,0,0,.86-1.19A5.69,5.69,0,0,0,101,1368c0-.14-.06-.23-.08-.28.4-1.86-.78-2.42-2.2-3.18a2.16,2.16,0,0,1,.52-.74,70.93,70.93,0,0,0-4.8-25.06c-.32-.83-1-1.49-1.39-2.34a13.54,13.54,0,0,0-1.67-3.8c2.54-1.88-3.94-13.32-4.16-13.65.5-2.63-.92-4.26-2.16-6.24a72,72,0,0,0,.27-9.17,16.31,16.31,0,0,0-.44-6.92s-.17.5-.22.39.19-.24.2-.44a5.09,5.09,0,0,0-1.23-3.65c-.67-.81-1.46-1.6-2.12-2.43,0,0-.06,0,0-.07s-.48-.65,0-.71-.26-.29,1.08-.11a57.73,57.73,0,0,1,6.75,1.68l0-.17,0,.17c2,.61,6.47,2.22,8.85,1.9a1.19,1.19,0,0,0,.26,0c1.75,1.92,6.49,3.49,8.59,1.19,0,0,0,0,.09-.08,5.54,1.06,11.09,1.67,16.38,3.89-.13,2.35-2.74,5-4,6.09-.92.83-.37.25-.44.51-6.13,3.29-8.7,13.4-10.18,18.74-.79,2.89-.53,1.84-.41,1.43a37.67,37.67,0,0,0-2.34,10.37,42.5,42.5,0,0,0-1.36,12.52c.2,4.07-.34,8.4,1.41,12.33-1.23.67-1.12,1.5-1,2.79a34.58,34.58,0,0,0,3.38,12.59c-.57-1.31.42-3.76,1-4.48.35-.46.36-.42.32-.35,2-1.47,1.71-3.82,1.85-6.19a.58.58,0,0,1-.23-.17s0-.11,0-.08a2.76,2.76,0,0,1,.21.25c1.38-3.43,2.77-6.87,4.14-10.29a16,16,0,0,0,3.15-5,27.14,27.14,0,0,1,5.87-7.56l.6-.42s-.06,0-.07,0h.13c.16-.1.12,0,0,0,5.87-.1,14-2,14.89-9,.43-3.55,5.82-4.14,8.55-3.65.84.16,1.79-.91,2.59-1a63.3,63.3,0,0,0,9.07-1.88l.7-.26,0,0c2.64-.82,7.81-.16,10.33-.17h.24a50.55,50.55,0,0,0,6,.91c1.24,1.9,5.56,3.18,7.65,3.7l.22.06c4.52,3.66,9.58,5.66,14.92,8.18,1.36.92,5.55,3.87,7,5,2.49,1.93,9.73,7.55,12.94,9.92a37,37,0,0,0,8.26,6.55c1.22-1.65-2.32-5.35-3-6.06h0l-.11-.11h0l0,0h0c-.24-.27-.09-.11,0,0,1-2.3-2.31-4.19-3.36-5.43-1.65-2-2.43-3.69-3.84-5.63a.74.74,0,0,1,.53-.65c3,2,7.67,5.78,9.89,7.57,1.47,1.19.77.62.67.55a43.46,43.46,0,0,0,3.59,4.4c.56.52,0,0,.23.19l.06,0c2.17,3.93,5.75,6.64,7.69,10.74-3.07-1.24-3.93,1.11-5.5,2.17-1,.7,0,0-.44.24s-.17.07-.12.05c-5.21-2.3-12.23-6.67-15.29.5-4.54,0-4.07,2.51-5.92,6.13-.75-1.35-1.67-2.55-2.36-4-2-4.09-4.79-7.47-7.55-11a12.16,12.16,0,0,0-1,9c-.45,2.49.5,4.29,1.71,6.38-.17.57-.37,1.28-.49,1.81v0h0s0,0,0,.06l-.06-.1a2.55,2.55,0,0,0-1.45-.6c-.28.07-.12,0-.12,0-1.08-.43-1.54-1.39-2.23-2.32a14.1,14.1,0,0,0-6.24-6.17,5.6,5.6,0,0,1-1-.55c-.18-.2,0,0-.15-.16-1.32-2.73-6.83-4.44-8.42-5.66-.75-.59-.86-.74-.81-.74-1.61-2-4.5-2.31-6.67-2.74-2.86-.56-2.37,1.51-1.69,2.71.43.76.05,0,.2.28s0,0,.08.11c-.16,2.25,2.06,4.9,3.17,6.12l.31.33c3,4.23,4.48,9.28,7,13.87,1.47,3,3.85,5.62,5.71,8.19a24.83,24.83,0,0,0,4.72,5,17.82,17.82,0,0,1,2.5,2.53l.11.13h0s0,0,0,0l-.12-.07a1.54,1.54,0,0,0-2.12,1.68c-1.6.58-2.14,2.86-2.5,4.09l-.1.34c-1,1.44-1.11,3.53-1.15,5.24-.09,3.43,1.1,8.37,1.19,11.1,0,1.17,0,1.14,0,1-.42,3.67,1.23,6.16,3.17,9.21-.23.16-.29.33-.5.54a19.29,19.29,0,0,0-5.18,9.25c-3.59,2-9.5,8-10.33,11.26a6.61,6.61,0,0,0-.23,1.2c-3.37.57-5.91,6.39-6.86,8.38s-.33.68-.38.78c-.9.56-2.21.18-2.92,1.43-1.41,2.46-5.7,6.85-7.58,7.72l-.87.38c-3,1.43-3.88,4.06-4.64,7.42-.11.08-.24.07-.34.16a4.18,4.18,0,0,0-1.38,2.74c0,.19.12.32.15.5a2.78,2.78,0,0,0-2.42,1.82c-.1.2,0,.47,0,.63s-.05,0-.09,0a10.53,10.53,0,0,0-5,4.32,24.27,24.27,0,0,0-6.59,4.24c-.76.81,0,0-.28.33l-.1.11h0c-1.74-.3-3.58,2.74-4.32,3.5s-.22.15-.4.3c-1.71,1.67-5.94,5.31-7.66,5.77-.82.22-1,.21-1,.16-7.34.48-9.6,6-13,12.36-1.14,1.19-3.16,3.79-4.52,4a3.26,3.26,0,0,1-.45,0c-.19-.49-1.42-.32-1.56-.07,0,0,0,0,0,.06h0s0,0,0,0c-1.32-1.32-3.53.42-4.39.86-.66.34-.48.22-.41.19-2.7-1.31-6.47-.57-8.81.3l-.52.2c-.52-.7-3-1.74-3.45-1.37a1.22,1.22,0,0,0-.19.17h0c-.71,2.82-5.84-.54-7-1.19-1.33-.77-2-1-3-1.63A20.68,20.68,0,0,0,71,1512.85C70.39,1510.93,65.31,1511.12,64.49,1511.67ZM226,1353.43h0l0,0S226.1,1353.51,226,1353.43Zm-53.6-28.16Zm-.24,0h0Zm-64.94,30c0,.09.08.31.05.36s-.17-.15-.18-.19.1-.14.12-.16ZM62.65,1493h0S62.62,1493,62.65,1493Z"/><polygon class="cls-10" points="296.33 1371.27 296.32 1371.27 296.33 1371.27 296.33 1371.27"/><path class="cls-11" d="M348.9,1376.64h0v0Z"/><path class="cls-12" d="M84.07,1415.08S84,1415,84,1415s.13-.06.14,0S84.1,1415.09,84.07,1415.08Z"/><path class="cls-13" d="M256,1448.49s0-.07,0-.06,0,.06,0,.08S256,1448.5,256,1448.49Z"/><path class="cls-14" d="M80.58,1421.16c.13-.52.07-.29,0,0C80.57,1421.21,80.56,1421.24,80.58,1421.16Z"/><path class="cls-15" d="M43.58,1488.63l0,0h0s.07,0,.09,0S43.59,1488.63,43.58,1488.63Z"/><polygon class="cls-16" points="156.77 1180 156.77 1180 156.77 1180 156.77 1180"/><path class="cls-17" d="M88.7,1387.41s-.17,0-.19,0,.09,0,.09-.05h0S88.72,1387.39,88.7,1387.41Z"/><path class="cls-18" d="M60.35,1186.06l.06,0s0,0,0,0,0,0,0,0l0,0h-.06Z"/><path class="cls-19" d="M186.4,1299.35c.26.06,0,0-.18,0C186.2,1299.31,186.21,1299.3,186.4,1299.35Z"/><path class="cls-20" d="M84.12,1327.88v0h0Z"/><path class="cls-21" d="M72.79,1313.74s-.07,0-.07,0,0-.07.06-.07A.17.17,0,0,1,72.79,1313.74Z"/><path class="cls-22" d="M75,1289.93h0s0,0,0,0l0,0Z"/><path class="cls-23" d="M96.19,1360.09v0l0,0Z"/><path class="cls-24" d="M67.41,1275.66l-.07.07.06-.07Z"/><path class="cls-25" d="M74.6,1284.61h0s0-.08,0-.07.16,0,.16.08S74.61,1284.62,74.6,1284.61Z"/><polygon class="cls-26" points="244.09 1300.92 244.09 1300.92 244.09 1300.92 244.09 1300.92"/><path class="cls-27" d="M71.12,932.93a.22.22,0,0,1,.16,0s0,.11,0,.12S71.12,933,71.12,932.93Z"/><path class="cls-28" d="M113.92,1081.34s0,.05,0,.07,0,0-.07,0,0,0,0,0S113.9,1081.36,113.92,1081.34Z"/><path class="cls-29" d="M75.43,1027.31v0h0l0,0Z"/><polygon class="cls-30" points="143.14 1029.68 143.14 1029.67 143.16 1029.68 143.14 1029.68"/><polygon class="cls-31" points="223.34 1074.28 223.34 1074.27 223.34 1074.27 223.34 1074.28"/><path class="cls-32" d="M151.38,995.83h.09s0,0,0,0l-.07,0Z"/><path class="cls-33" d="M200.13,1028h0v0h0Z"/><path class="cls-34" d="M62.55,1454.42h0S62.52,1454.41,62.55,1454.42Z"/><path class="cls-35" d="M107.32,1323.82s-.16-.14-.17-.18.09-.14.11-.15h0C107.26,1323.56,107.36,1323.77,107.32,1323.82Z"/><path class="cls-36" d="M226.34,1321.66l0,0,0,0Z"/><path class="cls-37" d="M64.26,1472.29h0l.14-.09Z"/><path class="cls-38" d="M64.22,1472.31l0,0h0Z"/><path class="cls-39" d="M70.7,1437.84a.78.78,0,0,1,.09.42C70.74,1438.27,70.65,1437.85,70.7,1437.84Z"/><polygon class="cls-40" points="127.22 1472.31 127.22 1472.31 127.22 1472.31 127.22 1472.32 127.22 1472.31 127.22 1472.31"/><path class="cls-41" d="M75.35,1431.38a.06.06,0,0,1,0-.06v.06Z"/><path class="cls-42" d="M226.36,1321.69l0,0h0l0,0Z"/><path class="cls-43" d="M226.46,1321.79Z"/><path class="cls-44" d="M194.47,1411.91s-.12.11-.15.1,0-.11.05-.12S194.48,1411.88,194.47,1411.91Z"/><path class="cls-45" d="M226.34,1321.66h0C226.1,1321.41,226.25,1321.56,226.34,1321.66Z"/><path class="cls-46" d="M85.1,1413.32a1.61,1.61,0,0,1,.08.33h0A3.21,3.21,0,0,1,85.1,1413.32Z"/><path class="cls-47" d="M75.34,1431.31h0Z"/><path class="cls-48" d="M108.62,1294.59l0-.13S108.64,1294.55,108.62,1294.59Z"/><path class="cls-49" d="M230.24,1318.25Z"/><path class="cls-50" d="M109.93,1338.18l.08-.07S109.94,1338.2,109.93,1338.18Z"/><path class="cls-51" d="M85.18,1413.66h0S85.19,1413.68,85.18,1413.66Z"/><path class="cls-52" d="M75.35,1431.36v0h0A.11.11,0,0,1,75.35,1431.36Z"/><path class="cls-53" d="M226.34,1321.66h0l0,0Z"/><path class="cls-37" d="M64.25,1472.29h0l.14-.09Z"/><path class="cls-54" d="M64.51,1472.12l0,0Z"/><path class="cls-55" d="M64.61,1472.06Z"/><path class="cls-56" d="M64.39,1472.2l.12-.08Z"/><path class="cls-57" d="M64.55,1472.1l.06,0Z"/><path class="cls-58" d="M235.77,1335.22h0Z"/><path class="cls-59" d="M184.43,1328.43c-.06-.08-.13-.13-.19-.21S184.57,1328.4,184.43,1328.43Z"/><path class="cls-60" d="M419.23,1494.65v0l0,0Z"/><path class="cls-61" d="M163.19,1432.83l-.11.05C162.55,1433.07,163.22,1432.71,163.19,1432.83Z"/><path class="cls-62" d="M129.14,1463.32l-.28,0S129.17,1463.2,129.14,1463.32Z"/><path class="cls-63" d="M194.87,1384.94a2.11,2.11,0,0,0,0,.25C194.84,1385.08,194.84,1384.92,194.87,1384.94Z"/><polygon class="cls-64" points="422.89 1503.09 422.89 1503.08 422.89 1503.08 422.9 1503.08 422.89 1503.09"/><path class="cls-65" d="M46.47,915.28l-.14-.1C46.41,915.2,46.5,915.25,46.47,915.28Z"/></g><rect class="cls-66" x="1010.63" y="286.79" width="1000" height="1000"/></g></g></g></svg>